<?xml version="1.0" encoding="UTF-8"?>
<svg width="1175" height="327" viewBox="0 0 1175 327" xmlns="http://www.w3.org/2000/svg" role="img" aria-label="Kumpulin logo">
  <title>Kumpulin logo</title>
  <path d="M 695 112 L 672 106 L 655 106 L 634 111 L 613 124 L 604 133 L 592 152 L 587 170 L 587 300 L 590 306 L 601 314 L 607 315 L 619 311 L 624 307 L 628 300 L 630 245 L 654 252 L 680 251 L 696 246 L 709 238 L 723 225 L 733 207 L 738 189 L 738 169 L 734 155 L 722 133 L 707 119 Z M 343 149 L 339 164 L 338 231 L 342 243 L 353 251 L 361 252 L 369 250 L 379 240 L 381 233 L 381 166 L 385 158 L 391 152 L 402 147 L 412 147 L 420 150 L 428 157 L 432 165 L 432 233 L 435 242 L 442 249 L 447 251 L 458 251 L 465 248 L 471 242 L 474 233 L 474 166 L 477 159 L 485 151 L 496 147 L 504 147 L 512 150 L 521 158 L 525 169 L 525 237 L 529 244 L 533 248 L 540 251 L 552 251 L 560 247 L 565 240 L 567 233 L 567 165 L 564 152 L 559 140 L 552 130 L 538 117 L 525 110 L 507 106 L 487 107 L 466 115 L 453 125 L 442 116 L 424 108 L 413 106 L 393 107 L 381 111 L 364 121 L 352 133 Z M 24 18 L 17 25 L 13 36 L 13 231 L 17 241 L 25 249 L 35 252 L 46 251 L 53 248 L 63 237 L 67 225 L 72 217 L 87 202 L 132 247 L 141 251 L 150 251 L 159 247 L 164 241 L 167 233 L 167 225 L 164 217 L 118 171 L 118 169 L 145 141 L 147 129 L 144 120 L 138 114 L 130 110 L 116 111 L 111 114 L 66 159 L 64 31 L 57 20 L 46 14 L 32 14 Z M 187 112 L 179 123 L 179 195 L 183 210 L 193 227 L 210 242 L 225 249 L 239 252 L 258 252 L 269 250 L 285 244 L 299 234 L 313 216 L 320 196 L 321 127 L 316 116 L 305 109 L 294 109 L 282 118 L 279 126 L 278 193 L 268 206 L 257 211 L 247 212 L 238 210 L 231 206 L 224 199 L 220 190 L 220 125 L 218 120 L 211 112 L 205 109 L 194 109 Z M 888 111 L 881 108 L 873 108 L 867 110 L 860 116 L 856 125 L 856 189 L 852 198 L 844 206 L 828 212 L 822 212 L 811 208 L 801 199 L 798 193 L 797 125 L 794 118 L 782 109 L 769 110 L 760 117 L 756 126 L 757 197 L 767 222 L 783 239 L 802 249 L 817 252 L 835 252 L 859 245 L 869 239 L 881 228 L 891 212 L 897 190 L 897 125 L 894 117 Z M 1062 119 L 1045 136 L 1039 146 L 1034 162 L 1034 236 L 1038 244 L 1049 251 L 1059 251 L 1070 244 L 1074 235 L 1075 163 L 1087 150 L 1092 148 L 1105 148 L 1116 154 L 1120 158 L 1124 167 L 1125 239 L 1132 248 L 1139 251 L 1148 251 L 1155 248 L 1160 243 L 1163 236 L 1163 163 L 1159 148 L 1153 137 L 1145 127 L 1131 116 L 1107 108 L 1085 109 Z M 933 42 L 923 46 L 919 50 L 915 59 L 915 234 L 918 242 L 924 248 L 930 251 L 941 251 L 948 248 L 954 242 L 957 234 L 957 60 L 954 52 L 949 46 L 940 42 Z M 993 107 L 983 111 L 977 118 L 975 124 L 975 235 L 977 241 L 982 247 L 990 251 L 999 251 L 1007 248 L 1013 242 L 1016 233 L 1016 125 L 1013 116 L 1008 111 L 1002 108 Z M 653 148 L 669 147 L 679 150 L 689 158 L 696 171 L 697 182 L 692 196 L 682 206 L 671 211 L 655 211 L 645 207 L 635 198 L 629 186 L 629 172 L 633 163 L 640 155 Z" fill="#023CF0" fill-rule="evenodd"/><path d="M 132 49 L 119 49 L 110 53 L 104 59 L 100 68 L 100 81 L 102 86 L 109 94 L 119 99 L 135 98 L 146 89 L 150 81 L 151 73 L 147 60 L 142 54 Z M 992 46 L 985 49 L 978 56 L 976 61 L 976 73 L 983 83 L 992 87 L 1001 87 L 1008 84 L 1014 78 L 1017 70 L 1017 63 L 1015 57 L 1008 49 Z" fill="#01B56C" fill-rule="evenodd"/>
</svg>
