<?xml version="1.0" encoding="UTF-8"?>
<svg width="489" height="775" viewBox="0 0 489 775" xmlns="http://www.w3.org/2000/svg" role="img" aria-label="Kumpulin logo">
  <title>Kumpulin logo</title>
  <path d="M 48 18 L 36 26 L 20 45 L 13 60 L 9 81 L 9 691 L 11 708 L 19 728 L 25 737 L 37 749 L 60 761 L 73 764 L 96 764 L 118 757 L 132 748 L 145 734 L 153 721 L 163 693 L 180 662 L 205 628 L 220 615 L 263 657 L 268 660 L 351 743 L 369 757 L 389 765 L 400 767 L 427 765 L 446 757 L 457 749 L 467 738 L 475 724 L 479 712 L 481 691 L 480 682 L 474 663 L 461 644 L 322 508 L 322 506 L 344 484 L 344 482 L 401 425 L 409 413 L 414 402 L 418 386 L 417 362 L 409 341 L 402 331 L 389 319 L 368 309 L 344 306 L 329 308 L 317 312 L 298 323 L 222 401 L 221 404 L 160 465 L 157 462 L 158 74 L 155 61 L 148 45 L 140 34 L 128 23 L 114 15 L 96 10 L 81 9 L 62 12 Z" fill="#003CF0" fill-rule="evenodd"/><path d="M 325 107 L 299 116 L 286 125 L 275 137 L 262 162 L 259 176 L 259 196 L 262 210 L 269 226 L 276 236 L 292 251 L 318 263 L 332 265 L 352 264 L 368 259 L 384 250 L 396 239 L 404 228 L 410 216 L 415 197 L 414 170 L 410 156 L 404 144 L 397 134 L 383 121 L 370 113 L 355 108 Z" fill="#01C371" fill-rule="evenodd"/>
</svg>
