<?xml version="1.0" encoding="UTF-8"?>
<svg version="1.1" xmlns="http://www.w3.org/2000/svg" width="3840" height="1200">
<path d="M0 0 C12.48391693 -0.08175139 24.96769172 -0.14617155 37.451828 -0.18207359 C41.1049044 -0.19303351 44.75783366 -0.21072189 48.4108429 -0.23534584 C66.35307367 -0.35180471 84.14756872 -0.05705723 102.03735352 1.4156723 C102.78443227 1.47709384 103.53151102 1.53851538 104.30122852 1.60179818 C162.42185848 6.50461149 224.10049629 21.0805022 273.16430664 54.04482269 C273.83816406 54.49535004 274.51202148 54.94587738 275.20629883 55.41005707 C318.23762936 84.43343984 352.25300229 126.43846899 362.94555664 178.08535004 C373.1126612 231.1355822 357.79707215 286.84467625 328.10546875 331.27870941 C308.469469 359.99379458 284.41615536 386.43000022 257.16430664 408.04482269 C256.02513061 408.9743984 254.8871808 409.90547816 253.75024414 410.83779144 C237.27229739 424.29012028 219.63230001 436.27678542 201.45336914 447.31435394 C200.45047852 447.92665863 199.44758789 448.53896332 198.41430664 449.16982269 C197.57383789 449.66740082 196.73336914 450.16497894 195.86743164 450.67763519 C195.02438477 451.35439301 195.02438477 451.35439301 194.16430664 452.04482269 C194.16430664 455.64233246 194.75492511 456.08346346 197.10180664 458.66982269 C197.7424707 459.37751801 198.38313477 460.08521332 199.04321289 460.81435394 C201.16430501 463.04482098 203.33987109 465.20427243 205.53930664 467.35732269 C209.63411487 471.40363065 213.27005647 475.69205995 216.86352539 480.18544769 C219.16135637 483.04115614 221.53250163 485.82149583 223.91430664 488.60732269 C234.42525711 501.23675931 243.60641325 514.74633773 251.91186523 528.91152191 C253.09332823 530.92392418 254.29377344 532.92389552 255.49633789 534.92372894 C275.40917176 568.58013617 286.67945378 607.6186491 286.47680664 646.73232269 C286.47407242 647.83909363 286.47407242 647.83909363 286.47128296 648.96822357 C286.42072541 661.18865927 285.69947329 673.06530214 283.16430664 685.04482269 C282.98738281 685.88110199 282.81045898 686.71738129 282.62817383 687.57900238 C273.52987482 729.1420436 252.28652385 766.50615423 223.44165039 797.58388519 C221.4052851 799.78441715 219.43168811 802.02210972 217.47680664 804.29482269 C212.54733374 809.94989558 207.2443093 815.10421926 201.55493164 819.99013519 C199.76059325 821.53232799 197.98188455 823.09273645 196.21118164 824.66201019 C181.57408901 837.55575956 165.72036336 848.76018553 149.16430664 859.04482269 C148.55731934 859.42412933 147.95033203 859.80343597 147.32495117 860.19423676 C142.98513056 862.89398814 138.59338033 865.49441018 134.16430664 868.04482269 C133.38555176 868.49438324 132.60679687 868.94394379 131.80444336 869.40712738 C85.88439361 895.70056157 33.86910307 912.76219225 -18.83569336 918.04482269 C-19.71378812 918.133035 -20.59188287 918.22124731 -21.49658656 918.31213272 C-31.60238266 919.20641118 -41.66932602 919.18451777 -51.80474854 919.17180634 C-53.81578403 919.17296003 -55.8268193 919.17454922 -57.83785415 919.17653358 C-63.33632103 919.1806923 -68.83477047 919.17865192 -74.33323741 919.17554736 C-80.27309838 919.17327955 -86.2129564 919.17677963 -92.15281677 919.17952728 C-103.10392864 919.18371188 -114.05503454 919.18335671 -125.00614673 919.18061581 C-135.11690918 919.17809768 -145.22766961 919.17744478 -155.33843231 919.17863846 C-156.34544148 919.17875304 -156.34544148 919.17875304 -157.37279428 919.17886993 C-160.09802536 919.17918127 -162.82325645 919.17949967 -165.54848753 919.17982969 C-191.08607825 919.18288541 -216.62366544 919.18011967 -242.16125561 919.17473279 C-264.86084221 919.16998102 -287.56042321 919.17041765 -310.26000977 919.17519379 C-335.76978604 919.18054329 -361.27955921 919.18267519 -386.78933597 919.17958152 C-389.50580517 919.1792608 -392.22227438 919.17894796 -394.93874359 919.17863846 C-395.60759965 919.17855938 -396.2764557 919.1784803 -396.96558012 919.17839883 C-407.07948397 919.17725988 -417.19338558 919.17859424 -427.30728912 919.18111801 C-438.79426587 919.18397014 -450.2812363 919.18318055 -461.76821229 919.17783727 C-467.63360214 919.17519924 -473.49898057 919.17419698 -479.36437035 919.17748642 C-484.72397031 919.18044693 -490.08354815 919.17886073 -495.44314608 919.17350887 C-497.39094524 919.1723837 -499.33874624 919.17297803 -501.28654423 919.17538466 C-503.9159014 919.17838645 -506.54518087 919.17534649 -509.17453384 919.17066383 C-509.94629835 919.173005 -510.71806286 919.17534617 -511.51321417 919.17775828 C-516.72154282 919.15897323 -516.72154282 919.15897323 -517.83569336 918.04482269 C-517.37113645 910.5979658 -515.58432193 903.70690964 -513.60913086 896.53310394 C-513.09388442 894.62836941 -512.57863993 892.72363435 -512.0634594 890.81888199 C-511.50642897 888.76442852 -510.94613016 886.71089173 -510.3848877 884.65758514 C-509.18091708 880.25215152 -507.9864672 875.84417045 -506.79370117 871.43569183 C-506.37501462 869.88855348 -505.95631326 868.34141913 -505.53759766 866.79428864 C-505.22092636 865.62417457 -505.22092636 865.62417457 -504.89785767 864.43042183 C-504.24149798 862.00651421 -503.5842441 859.58285061 -502.92675781 857.15924835 C-498.25016036 839.91609924 -493.63953743 822.6554278 -489.03082275 805.39403534 C-486.58781181 796.24448023 -484.14145768 787.09581871 -481.69506836 777.94716644 C-481.32897146 776.57799418 -481.32897146 776.57799418 -480.95547867 775.18116188 C-475.36770116 754.28432448 -469.76117908 733.39252734 -464.1528511 712.50119781 C-458.83416443 692.68859225 -453.51968369 672.87488504 -448.22241211 653.05654144 C-447.98883814 652.18269114 -447.75526417 651.30884083 -447.5146122 650.40851021 C-446.32821136 645.9697881 -445.14191448 641.53103821 -443.95565796 637.09227753 C-434.98399671 603.52212935 -425.98169873 569.96034481 -416.95565796 536.40477753 C-411.08085418 514.56427559 -405.20983916 492.72277787 -399.35522461 470.87685394 C-399.08633801 469.87354475 -398.8174514 468.87023556 -398.54041672 467.83652306 C-395.83194672 457.72985441 -393.12434927 447.62295227 -390.41765785 437.51580715 C-384.8584541 416.75789323 -379.28967995 396.00263548 -373.69427109 375.25444794 C-372.82224675 372.0205128 -371.95061461 368.78647223 -371.07913208 365.55239105 C-370.65335719 363.97237305 -370.65335719 363.97237305 -370.21898079 362.36043549 C-369.65176007 360.25549966 -369.08455389 358.15055991 -368.51736259 356.04561615 C-366.88715808 349.99674956 -365.25420555 343.94863364 -363.61910534 337.90108871 C-362.60720369 334.15600401 -361.59786064 330.41023294 -360.58913612 326.66429138 C-360.12823661 324.95485038 -359.66629252 323.24569054 -359.20311546 321.53686523 C-358.98761858 320.74166222 -358.7721217 319.9464592 -358.5500946 319.12715912 C-358.36458888 318.44397236 -358.17908316 317.7607856 -357.98795605 317.05689621 C-355.05704721 306.08030479 -352.47227782 295.11847743 -349.83569336 284.04482269 C-371.61569336 284.04482269 -393.39569336 284.04482269 -415.83569336 284.04482269 C-416.96069837 278.41979763 -416.96069837 278.41979763 -415.18017578 275.01503754 C-414.79194138 274.2558905 -414.40370697 273.49674347 -414.00370789 272.71459198 C-413.57056778 271.90317749 -413.13742767 271.091763 -412.69116211 270.25576019 C-412.24734695 269.39785889 -411.8035318 268.53995758 -411.3462677 267.65605927 C-409.91833798 264.90359513 -408.47114976 262.16179512 -407.02319336 259.41982269 C-406.09027263 257.62882224 -405.15861934 255.83716099 -404.22827148 254.04482269 C-401.44934101 248.70164411 -398.64449031 243.37234555 -395.83569336 238.04482269 C-394.92732945 236.31899585 -394.0191237 234.59308575 -393.11108398 232.86708832 C-391.41980039 229.65269326 -389.72773475 226.43871184 -388.03515625 223.22499847 C-385.33092828 218.08823891 -382.64245782 212.94334134 -379.96069336 207.79482269 C-378.9424739 205.84169263 -377.92424444 203.88856779 -376.90600586 201.93544769 C-376.3984375 200.96156097 -375.89086914 199.98767426 -375.36791992 198.98427582 C-372.85861428 194.17037525 -370.34705499 189.35765089 -367.83569336 184.54482269 C-366.83568223 182.62816183 -365.83568224 180.71149516 -364.83569336 178.79482269 C-354.83569336 159.62815603 -344.83569336 140.46148936 -334.83569336 121.29482269 C-334.34053223 120.34575043 -333.84537109 119.39667816 -333.33520508 118.41884613 C-332.3368772 116.50541145 -331.33850492 114.59199992 -330.34008789 112.67861176 C-327.81413685 107.83768633 -325.28899892 102.99633978 -322.76538086 98.15419769 C-317.76143627 88.55485893 -312.74443676 78.96286191 -307.69458008 69.38759613 C-304.21709968 62.78604342 -300.77451058 56.16658235 -297.33569336 49.54482269 C-292.23100183 39.71748935 -287.10867569 29.9001411 -281.92602539 20.11367035 C-280.86443024 18.0993494 -279.81555605 16.07885654 -278.76928711 14.05654144 C-278.14578047 12.86503508 -277.52209525 11.67362214 -276.89819336 10.48232269 C-276.37354492 9.47040863 -275.84889648 8.45849457 -275.30834961 7.41591644 C-273.83569336 5.04482269 -273.83569336 5.04482269 -270.83569336 3.04482269 C-268.5709815 2.73069006 -268.5709815 2.73069006 -265.89540863 2.64120579 C-264.89788401 2.60400454 -263.90035939 2.5668033 -262.87260675 2.52847475 C-261.79545829 2.49874765 -260.71830983 2.46902056 -259.60852051 2.43839264 C-258.48757036 2.40103927 -257.36662021 2.3636859 -256.21170187 2.32520062 C-244.96628843 1.97158325 -233.7205754 1.83203084 -222.47045898 1.74770355 C-220.25652279 1.72817638 -218.04258953 1.70831382 -215.82865906 1.6881485 C-209.87603334 1.63496389 -203.92337767 1.58668803 -197.97070122 1.53957057 C-191.6182643 1.4886249 -185.26586144 1.43369543 -178.91345215 1.37943268 C-167.50047949 1.28262351 -156.08747988 1.18974241 -144.6744619 1.09847976 C-134.54571879 1.01738263 -124.41701576 0.93235371 -114.28833008 0.84438324 C-79.64052234 0.5439349 -44.99267483 0.27863879 -10.34420776 0.06664562 C-6.89613306 0.04519863 -3.44806624 0.02276359 0 0 Z M-61.80891418 258.59816742 C-63.19066517 261.89066537 -64.12845482 265.2124484 -64.94873047 268.67714691 C-65.13781479 269.44218536 -65.32689911 270.20722382 -65.52171326 270.99544525 C-66.14494449 273.52792385 -66.75426103 276.06352117 -67.36303711 278.59951019 C-67.79692251 280.37970804 -68.23146846 282.15974501 -68.66664124 283.9396286 C-69.57952681 287.68240676 -70.48579933 291.42670546 -71.38720703 295.1722641 C-72.52735444 299.90849289 -73.6813903 304.64119566 -74.83991051 309.37295914 C-80.5872513 332.61650664 -80.5872513 332.61650664 -85.46459961 356.05263519 C-85.61694565 356.85667786 -85.76929169 357.66072052 -85.92625427 358.48912811 C-86.88298289 364.02838414 -86.98027246 369.43182161 -86.83569336 375.04482269 C-84.08374667 375.96213826 -82.44989781 376.17397655 -79.61416626 376.18526459 C-78.75375732 376.19097473 -77.89334839 376.19668488 -77.00686646 376.20256805 C-75.59496536 376.20424484 -75.59496536 376.20424484 -74.15454102 376.20595551 C-72.6636496 376.21340286 -72.6636496 376.21340286 -71.14263916 376.22100067 C-67.84500438 376.23563651 -64.54741783 376.24242936 -61.24975586 376.24794769 C-58.95348103 376.25370131 -56.65720621 376.25945902 -54.3609314 376.26522064 C-49.53724951 376.27573695 -44.71358432 376.2815744 -39.88989258 376.28505707 C-33.73573502 376.29052006 -27.58180114 376.31449834 -21.42771339 376.34302902 C-16.67820617 376.36174548 -11.92875163 376.36686595 -7.17921066 376.36839294 C-4.9124162 376.37140353 -2.64562231 376.37937763 -0.37886429 376.39257812 C20.85367286 376.50732212 37.82953474 374.76502049 53.89086914 359.35341644 C54.64110352 358.59158051 55.39133789 357.82974457 56.16430664 357.04482269 C56.87329102 356.33454926 57.58227539 355.62427582 58.31274414 354.89247894 C72.24460419 340.1332479 77.76729846 321.66732487 77.44165039 301.72841644 C76.8623714 287.56922402 70.72958702 274.56798882 60.46118164 264.91982269 C52.27172481 258.23455181 43.24479877 256.74430881 32.9621582 256.75429535 C31.46092659 256.74421951 31.46092659 256.74421951 29.92936707 256.73394012 C26.63783748 256.71501812 23.34651214 256.71103987 20.05493164 256.70888519 C17.76283688 256.7024569 15.47074294 256.69572852 13.1786499 256.68871307 C8.38397313 256.6767575 3.58936835 256.67303086 -1.20532227 256.67421722 C-7.35819958 256.67442115 -13.51061886 256.64703474 -19.6633873 256.61267281 C-24.39190814 256.59048222 -29.12031698 256.58637715 -33.84888458 256.58743668 C-36.11836588 256.58507212 -38.38784988 256.57620087 -40.65727997 256.56077194 C-43.82222659 256.54125628 -46.98616141 256.54689164 -50.15112305 256.55898285 C-51.56313744 256.54212433 -51.56313744 256.54212433 -53.00367737 256.52492523 C-57.76054402 256.46118112 -57.76054402 256.46118112 -61.80891418 258.59816742 Z M-135.83569336 560.04482269 C-136.93435068 562.89014199 -136.93435068 562.89014199 -137.76806641 566.19887543 C-138.10792572 567.45699036 -138.44778503 568.71510529 -138.79794312 570.01134491 C-139.14618225 571.35523785 -139.49208763 572.69973763 -139.83569336 574.04482269 C-140.00091618 574.69099171 -140.16613899 575.33716072 -140.33636856 576.00291061 C-141.56645313 580.85320576 -142.74442079 585.71569668 -143.91772461 590.57997894 C-144.29855996 592.14965354 -144.67964399 593.71926781 -145.06095886 595.28882599 C-146.0586382 599.39839294 -147.05291637 603.50877518 -148.04644775 607.61934662 C-149.23014851 612.51347321 -150.4182958 617.40652225 -151.60580254 622.29972649 C-152.57387226 626.29022029 -153.53991288 630.28118438 -154.50149536 634.27324677 C-156.13571705 641.05441789 -157.77462763 647.83361371 -159.47580051 654.59835529 C-159.99190693 656.65188955 -160.50398266 658.70638655 -161.01481628 660.7612381 C-161.63542338 663.25131073 -162.26408731 665.73939469 -162.90229797 668.22501373 C-163.17382187 669.32111465 -163.44534576 670.41721558 -163.72509766 671.54653168 C-163.96512009 672.49382645 -164.20514252 673.44112122 -164.45243835 674.41712189 C-164.86732341 677.26168692 -164.45965953 679.26320023 -163.83569336 682.04482269 C-148.52730806 682.11511694 -133.21893023 682.1679104 -117.91041946 682.20025921 C-110.80130852 682.21568314 -103.69229825 682.23668627 -96.58325195 682.27114105 C-90.38205955 682.30118131 -84.18094012 682.32043015 -77.97967696 682.32708818 C-74.70060401 682.33097589 -71.42178658 682.34162748 -68.14276886 682.36201286 C-64.46899781 682.38393462 -60.79565258 682.38678341 -57.12182617 682.38539886 C-56.0522316 682.39618469 -54.98263702 682.40697052 -53.88063049 682.41808319 C-43.52375136 682.37611765 -33.95258695 680.1821743 -24.77319336 675.35732269 C-24.09691895 675.00847015 -23.42064453 674.65961761 -22.72387695 674.30019379 C0.01467439 662.2748426 15.02332596 642.19215942 22.60180664 617.91982269 C26.01798334 603.85582253 26.35682694 587.4846624 18.80883789 574.75966644 C12.39491501 565.56007197 3.23637954 559.19398309 -7.83569336 557.04482269 C-11.90981482 556.7504768 -15.97397618 556.76128248 -20.05737305 556.77016449 C-21.27277267 556.76505356 -22.4881723 556.75994263 -23.74040222 556.75467682 C-27.05628192 556.74319681 -30.37191086 556.74070046 -33.68779278 556.74324012 C-36.45901151 556.74431301 -39.2302074 556.73941893 -42.00142121 556.7346347 C-48.53587715 556.72356386 -55.07027557 556.72309002 -61.60473633 556.72914886 C-68.34580168 556.73520289 -75.08665906 556.7228361 -81.82768893 556.7015788 C-87.62147309 556.68398053 -93.41519091 556.67795816 -99.20900083 556.68121654 C-102.6670481 556.6830306 -106.12494661 556.68038013 -109.58296967 556.666502 C-113.43259418 556.6516274 -117.28195155 556.6608781 -121.1315918 556.67250824 C-122.27865097 556.6648645 -123.42571014 556.65722076 -124.60752869 556.6493454 C-126.17619438 556.65986687 -126.17619438 556.65986687 -127.77655029 556.67060089 C-129.14145411 556.67034928 -129.14145411 556.67034928 -130.53393173 556.67009258 C-133.31065639 557.12214736 -134.1575763 557.82586577 -135.83569336 560.04482269 Z " fill="#243E8F" transform="translate(1909.835693359375,144.9551773071289)"/>
<path d="M0 0 C0.70876491 -0.00145344 1.41752982 -0.00290688 2.14777246 -0.00440437 C4.54099688 -0.00807597 6.93415806 -0.00457249 9.32738209 -0.0011425 C11.05353272 -0.0022939 12.7796831 -0.00388155 14.50583297 -0.00586975 C19.26419093 -0.01006135 24.02252895 -0.00797303 28.78088701 -0.00488353 C33.90813197 -0.00262861 39.03537341 -0.00610975 44.16261768 -0.00886345 C54.21876574 -0.01332114 64.27490635 -0.0123441 74.33105471 -0.00945081 C82.51346366 -0.00719414 90.69587052 -0.00688541 98.87827969 -0.00797462 C100.62407962 -0.00820447 100.62407962 -0.00820447 102.40514824 -0.00843897 C104.76966009 -0.0087587 107.13417194 -0.00908291 109.49868379 -0.00941156 C131.70356413 -0.01226702 153.90844036 -0.00897967 176.11332003 -0.00361119 C195.13013613 0.00084457 214.14694611 0.00009121 233.16376209 -0.00452995 C255.2556243 -0.00989587 277.34748288 -0.01197933 299.43934566 -0.00891769 C301.80167059 -0.00859916 304.16399552 -0.00828479 306.52632046 -0.00797462 C307.68851294 -0.00782035 308.85070541 -0.00766607 310.04811585 -0.00750712 C318.20169832 -0.00664709 326.35527847 -0.00809402 334.50886059 -0.01045418 C344.47441799 -0.01327534 354.43996752 -0.01246597 364.40552404 -0.00717343 C369.48181546 -0.00456555 374.55809382 -0.0034811 379.63438511 -0.00682259 C399.4837657 -0.01885569 419.28226933 0.00655762 439.10736561 1.12584114 C441.24406655 4.63214787 441.4253025 7.55916675 441.56831264 11.62639713 C441.59394037 12.28274039 441.61956809 12.93908365 441.64597242 13.6153161 C441.73024891 15.83180647 441.80123688 18.04852728 441.87241077 20.26547432 C441.93093357 21.87601422 441.99028514 23.48652418 442.05039084 25.09700578 C442.18035561 28.6285069 442.30432822 32.16015331 442.42390966 35.69202113 C442.62144453 41.5243042 442.83212373 47.35607363 443.04409885 53.18784714 C443.35762383 61.8502232 443.66484506 70.51280469 443.96824741 79.17554092 C444.46793845 93.43250794 444.9819993 107.68893964 445.49911976 121.94528389 C445.54391106 123.18042427 445.58870235 124.41556464 445.63485096 125.68813352 C445.81994318 130.79132992 446.00509747 135.89452405 446.19042297 140.99771199 C446.43154487 147.63761686 446.6723072 154.2775344 446.91219592 160.91748393 C448.55064549 206.26636799 450.24680026 251.61290566 451.9774828 296.95836067 C452.02401587 298.17764666 452.02401587 298.17764666 452.07148901 299.42156469 C452.87195599 320.39414206 453.67483422 341.3666269 454.47872363 362.33907334 C454.93810937 374.32404426 455.39701963 386.30903331 455.85560322 398.29403496 C455.92140784 400.0137822 455.98721255 401.73352945 456.05301733 403.45327669 C456.15189901 406.03747278 456.25078035 408.62166888 456.34966054 411.20586503 C457.5505604 442.59055847 458.75292421 473.97519567 459.95603206 505.35980454 C461.01919198 533.09386553 462.0811148 560.82797363 463.14203358 588.56212044 C463.41800625 595.77646369 463.69398017 602.9908069 463.96996593 610.20514965 C464.0039927 611.09461944 464.03801947 611.98408923 464.07307735 612.90051265 C464.97724727 636.53530664 465.88235805 660.1700646 466.78776038 683.80481142 C466.88512748 686.34651937 466.98249431 688.88822732 467.0798607 691.4299353 C467.14436767 693.11385868 467.20887536 694.79778203 467.27338375 696.48170535 C467.74787598 708.86804957 468.22191505 721.25441108 468.69572544 733.6407814 C469.23118828 747.63874739 469.76739996 761.6366845 470.30454342 775.6345861 C470.57673456 782.72829927 470.84863893 789.82202307 471.11961079 796.91578293 C471.41515244 804.65190637 471.71192963 812.38798186 472.00955677 820.12402534 C472.07912382 821.93499027 472.07912382 821.93499027 472.15009627 823.78254034 C472.63633891 836.41356847 473.13900609 849.04359793 473.68785954 861.67207336 C473.73469995 862.75273587 473.78154037 863.83339838 473.8298002 864.94680823 C474.04802218 869.96675402 474.26950809 874.98651849 474.49711931 880.00604731 C475.91691317 911.83710393 475.91691317 911.83710393 475.10736561 922.12584114 C473.43759731 923.79560944 471.4244451 923.25128762 469.13010883 923.25168228 C467.50304327 923.2555939 467.50304327 923.2555939 465.8431077 923.25958455 C464.63661774 923.25735382 463.43012778 923.2551231 462.18707752 923.25282478 C460.28187706 923.25516477 460.28187706 923.25516477 458.33818769 923.25755203 C454.79647934 923.26174976 451.25479772 923.25965267 447.71308923 923.25656581 C443.8998259 923.25431372 440.08656734 923.25779036 436.27330494 923.26054573 C428.79671742 923.26500448 421.32013991 923.2640265 413.84355199 923.26113309 C407.76997474 923.25887947 401.69640031 923.25856636 395.62282276 923.25965691 C394.76010963 923.25981014 393.8973965 923.25996337 393.00854054 923.26012125 C391.2562408 923.26044096 389.50394107 923.26076517 387.75164133 923.26109384 C371.3002265 923.26394894 354.84881722 923.26066114 338.3974033 923.25529347 C324.26540227 923.25082541 310.13340946 923.25160133 296.00140858 923.25621223 C279.61094862 923.26155747 263.22049354 923.26367425 246.83003283 923.26059997 C245.08399137 923.2602814 243.33794991 923.25996703 241.59190845 923.25965691 C240.30310456 923.25942549 240.30310456 923.25942549 238.98826423 923.2591894 C232.91832911 923.2583241 226.84839706 923.25978742 220.77846241 923.26213646 C213.38648723 923.2649341 205.99452267 923.26419697 198.60254872 923.25885572 C194.82731518 923.2562182 191.05209939 923.25521447 187.27686596 923.25850487 C183.19377959 923.2620099 179.11073847 923.25783967 175.02765369 923.25282478 C173.82116374 923.25505551 172.61467378 923.25728623 171.37162352 923.25958455 C170.28691314 923.2569768 169.20220277 923.25436905 168.08462238 923.25168228 C167.14079999 923.25151993 166.19697761 923.25135758 165.22455454 923.2511903 C163.10736561 923.12584114 163.10736561 923.12584114 162.10736561 922.12584114 C161.9984019 920.13923137 161.96046075 918.14871472 161.94914722 916.15915108 C161.93935841 914.86199669 161.92956959 913.5648423 161.91948414 912.2283802 C161.91357917 910.77745284 161.90776877 909.32652509 161.90204334 907.875597 C161.89247031 906.35822466 161.88246058 904.84085502 161.87204456 903.32348824 C161.8449271 899.19146504 161.82395471 895.05943033 161.80404258 890.92736697 C161.78222507 886.61382925 161.75481573 882.30032725 161.72798634 877.98681831 C161.678002 869.81286588 161.63308454 861.63889367 161.58996397 853.46490246 C161.54064055 844.16152608 161.48570433 834.85818553 161.43028438 825.55484378 C161.31637623 806.41187615 161.20955653 787.26887473 161.10736561 768.12584114 C137.42924713 768.18631042 113.75123727 768.26376391 90.07324219 768.36155605 C79.0796622 768.40656248 68.08611496 768.44596589 57.09247303 768.47227669 C47.51279666 768.49521758 37.93322351 768.52857161 28.35362893 768.5745427 C23.2791415 768.59852779 18.20475661 768.61722185 13.13021374 768.62345505 C8.35727308 768.62948208 3.58459501 768.64939508 -1.18824863 768.68011665 C-2.94304491 768.68893525 -4.69787544 768.69261161 -6.45269299 768.6908493 C-8.84291784 768.68920629 -11.23233288 768.70581134 -13.62244701 768.72711372 C-14.32186108 768.72226615 -15.02127514 768.71741857 -15.74188358 768.7124241 C-18.58153379 768.75438554 -20.44108493 768.79400741 -22.76978111 770.50531483 C-24.25933273 772.65506817 -25.29891256 774.84005916 -26.35357189 777.23521614 C-26.81803722 778.28322395 -27.28250256 779.33123177 -27.76104259 780.41099739 C-28.25821789 781.55439583 -28.75539318 782.69779427 -29.26763439 783.87584114 C-29.79510265 785.07595833 -30.32257092 786.27607552 -30.86602306 787.51255989 C-35.30520266 797.64145489 -39.58430455 807.83741378 -43.83916759 818.04478645 C-48.11746794 828.30602305 -52.47538617 838.53122097 -56.86605358 848.74482918 C-60.99411149 858.34843301 -65.10160223 867.96043787 -69.18560314 877.58287239 C-69.86399998 879.18054955 -69.86399998 879.18054955 -70.5561018 880.81050301 C-72.36419973 885.06902479 -74.17222563 889.32757156 -75.97640514 893.5877552 C-77.23329694 896.55557746 -78.49247069 899.52242272 -79.75200939 902.48912239 C-80.1263763 903.37509605 -80.50074322 904.26106972 -80.88645458 905.17389107 C-81.87426319 907.49770401 -82.88108681 909.81229268 -83.89263439 912.12584114 C-84.36990978 913.25272346 -84.84718517 914.37960579 -85.33892345 915.54063606 C-87.20418444 918.64422635 -88.66272497 919.53525062 -91.89263439 921.12584114 C-94.64011925 921.4995873 -94.64011925 921.4995873 -97.68725395 921.49777794 C-98.85246313 921.50436778 -100.0176723 921.51095763 -101.21819085 921.51774716 C-102.49405724 921.50969076 -103.76992362 921.50163435 -105.08445263 921.49333382 C-106.45677872 921.49535838 -107.8291034 921.49869799 -109.20142347 921.50323939 C-112.97167718 921.51189141 -116.74168472 921.50181846 -120.511917 921.48869705 C-124.57803192 921.47780512 -128.64412395 921.484211 -132.71024609 921.48848152 C-140.67460888 921.4941174 -148.63887546 921.48379585 -156.60322186 921.46819356 C-165.87194394 921.45066935 -175.14064727 921.44923464 -184.40938333 921.44857797 C-200.94150021 921.44688959 -217.4735732 921.4310695 -234.0056715 921.40709114 C-250.06068823 921.38382154 -266.11567711 921.36966489 -282.17071056 921.36607552 C-283.15994867 921.36585275 -284.14918678 921.36562998 -285.1684018 921.36540046 C-287.16113995 921.36495787 -289.15387809 921.36451585 -291.14661624 921.36407439 C-292.12953512 921.36385483 -293.11245401 921.36363526 -294.12515831 921.36340904 C-295.10554019 921.36319306 -296.08592207 921.36297707 -297.09601248 921.36275454 C-312.38024027 921.35905697 -327.66446354 921.34769806 -342.94868639 921.33527865 C-348.4950983 921.33083869 -354.04150978 921.32740237 -359.58792277 921.32465652 C-368.38248033 921.32023051 -377.17702126 921.31247955 -385.97156831 921.29788211 C-389.99200784 921.29126075 -394.01243264 921.28620688 -398.03287792 921.28542137 C-401.70835604 921.28463759 -405.38379686 921.279262 -409.05926339 921.27010188 C-411.0289415 921.26638278 -412.99862697 921.26757804 -414.96830815 921.26890874 C-416.12569408 921.26506759 -417.28308002 921.26122645 -418.47553825 921.25726891 C-419.48060565 921.25602241 -420.48567304 921.25477591 -421.52119702 921.25349164 C-423.89263439 921.12584114 -423.89263439 921.12584114 -425.89263439 920.12584114 C-425.45948847 913.81881399 -422.39556639 908.8862581 -419.45513439 903.43834114 C-418.91308361 902.41740364 -418.37103283 901.39646614 -417.81255627 900.34459114 C-416.70343918 898.25638242 -415.59097829 896.16994622 -414.47515392 894.0853138 C-412.26015683 889.94304369 -410.07651509 885.78456947 -407.89263439 881.62584114 C-407.08018819 880.08414612 -406.26768732 878.54247991 -405.45513439 877.00084114 C-402.58634057 871.55013289 -399.73936503 866.08809586 -396.89263439 860.62584114 C-392.8404426 852.85056959 -388.77072109 845.08492171 -384.68169689 837.32896614 C-381.40177122 831.10337473 -378.14477353 824.86598629 -374.89263439 818.62584114 C-370.8404426 810.85056959 -366.77072109 803.08492171 -362.68169689 795.32896614 C-358.88360426 788.11984764 -355.11710975 780.89438137 -351.35137463 773.66832161 C-348.23356371 767.6882335 -345.10163868 761.71587532 -341.95513439 755.75084114 C-338.0731587 748.3902119 -334.227778 741.01097101 -330.39263439 733.62584114 C-326.1625937 725.48027919 -321.91320005 717.34561056 -317.63091564 709.22740364 C-314.36685284 703.03621355 -311.12713664 696.83251947 -307.89263439 690.62584114 C-303.84046402 682.85055848 -299.77072103 675.08492161 -295.68169689 667.32896614 C-292.40177122 661.10337473 -289.14477353 654.86598629 -285.89263439 648.62584114 C-282.2404686 641.61813215 -278.57793725 634.61618183 -274.89263439 627.62584114 C-269.19172256 616.81037081 -263.54281098 605.96787834 -257.89263439 595.12584114 C-251.84227032 583.51589032 -245.78673288 571.90904448 -239.68120861 560.32798958 C-236.40139764 554.102749 -233.14460532 547.86566353 -229.89263439 541.62584114 C-225.8404426 533.85056959 -221.77072109 526.08492171 -217.68169689 518.32896614 C-214.40177122 512.10337473 -211.14477353 505.86598629 -207.89263439 499.62584114 C-204.2404686 492.61813215 -200.57793725 485.61618183 -196.89263439 478.62584114 C-191.19172256 467.81037081 -185.54281098 456.96787834 -179.89263439 446.12584114 C-173.84227032 434.51589032 -167.78673288 422.90904448 -161.68120861 411.32798958 C-158.40139764 405.102749 -155.14460532 398.86566353 -151.89263439 392.62584114 C-147.8404426 384.85056959 -143.77072109 377.08492171 -139.68169689 369.32896614 C-136.40177122 363.10337473 -133.14477353 356.86598629 -129.89263439 350.62584114 C-126.2404686 343.61813215 -122.57793725 336.61618183 -118.89263439 329.62584114 C-114.239422 320.79801112 -109.62042327 311.95255283 -105.00982189 303.10240364 C-102.83409611 298.92706245 -100.65073168 294.75581343 -98.46294689 290.58677864 C-97.90719982 289.52620247 -97.35145275 288.4656263 -96.77886486 287.37291145 C-95.70397912 285.32193579 -94.62752953 283.27177882 -93.54937267 281.22252083 C-93.06968029 280.30631966 -92.58998791 279.39011848 -92.09575939 278.44615364 C-91.66940197 277.6342054 -91.24304455 276.82225716 -90.8037672 275.98570442 C-89.81931151 274.32134498 -89.81931151 274.32134498 -89.89263439 273.12584114 C-114.97263439 272.79584114 -140.05263439 272.46584114 -165.89263439 272.12584114 C-164.76806477 264.2538538 -164.76806477 264.2538538 -162.25982189 260.10630989 C-161.70882824 259.18027962 -161.15783459 258.25424934 -160.59014416 257.30015755 C-159.98871593 256.31450813 -159.38728771 255.32885872 -158.76763439 254.31334114 C-157.48163032 252.15889907 -156.19650345 250.0039332 -154.91216564 247.84849739 C-154.24652599 246.73877571 -153.58088634 245.62905403 -152.8950758 244.48570442 C-149.68987827 239.10775656 -146.57369198 233.6793348 -143.45513439 228.25084114 C-142.19624403 226.06581611 -140.93712824 223.88092094 -139.67779064 221.69615364 C-139.05275646 220.61108528 -138.42772228 219.52601692 -137.78374767 218.4080677 C-134.65583291 212.97924172 -131.52404991 207.55264833 -128.39263439 202.12584114 C-127.1426156 199.95918531 -125.89261561 197.79251864 -124.64263439 195.62584114 C-57.14263439 78.62584114 -57.14263439 78.62584114 -55.26787853 75.37632942 C-54.01698959 73.2080785 -52.76617588 71.03978417 -51.51543713 68.87144661 C-48.40465104 63.47866199 -45.29259202 58.08662021 -42.17779064 52.69615364 C-41.56339123 51.63219368 -40.94899181 50.56823372 -40.31597424 49.47203255 C-39.08179322 47.33561372 -37.84645345 45.19986385 -36.60991955 43.06480598 C-33.59570816 37.85139815 -30.60388045 32.62724983 -27.6659956 27.37050056 C-26.22191286 24.78724854 -24.77074267 22.20800408 -23.31960583 19.62870979 C-22.625601 18.38984544 -21.93534726 17.14887127 -21.24911022 15.90568733 C-20.29327827 14.17439906 -19.32367639 12.45073503 -18.35357189 10.72740364 C-17.53058605 9.24747932 -17.53058605 9.24747932 -16.69097424 7.73765755 C-12.18222434 1.18938082 -7.61796597 0.00097555 0 0 Z M161.10736561 337.12584114 C154.2263273 352.66413319 147.45698112 368.24517034 140.81976795 383.88911629 C138.34250754 389.72740863 135.85952872 395.56326885 133.37689686 401.39927864 C132.86390034 402.60543327 132.35090382 403.81158791 131.82236195 405.05429268 C126.10804443 418.48427117 120.35965761 431.89958583 114.60736561 445.31334114 C114.10059284 446.49527046 113.59382008 447.67719978 113.07169056 448.89494514 C108.99099819 458.41200356 104.90869653 467.92837112 100.82513905 477.44420052 C100.47670948 478.2561689 100.12827991 479.06813728 99.76929188 479.90471077 C99.10263361 481.45823932 98.4359276 483.01174739 97.76916981 484.56523323 C96.25640517 488.09057802 94.74524434 491.61659084 93.23822498 495.14439583 C92.6711898 496.47155371 92.10413273 497.79870225 91.53705311 499.12584114 C91.26145557 499.7709565 90.98585804 500.41607185 90.70190907 501.08073616 C88.84584462 505.41864238 86.96896485 509.74713764 85.08298206 514.07211494 C83.73897917 517.15879131 82.40393773 520.24929718 81.07031727 523.34047127 C80.43557377 524.80570805 79.79678828 526.26920141 79.15369129 527.73079109 C78.27363237 529.7318282 77.40775951 531.73844893 76.54486561 533.74693489 C76.04857655 534.88574104 75.55228748 536.0245472 75.04095936 537.19786263 C74.06322652 540.26427211 74.20151347 541.17798458 75.10736561 544.12584114 C86.00777513 544.17213674 96.90816134 544.20769621 107.80864906 544.22946548 C112.86992644 544.23991247 117.93113665 544.25408837 122.99237537 544.27672005 C127.87473875 544.29841579 132.75703745 544.31040287 137.6394453 544.31559563 C139.5042132 544.31929726 141.36897748 544.32652543 143.23371792 544.33730125 C145.84117438 544.35177274 148.44836192 544.35382091 151.05585194 544.35289192 C152.21786625 544.36367775 152.21786625 544.36367775 153.4033556 544.37468147 C157.18580943 544.36005351 158.87925263 544.27791646 162.10736561 542.12584114 C162.40166557 539.37719389 162.49848858 536.8536795 162.46812916 534.10273933 C162.47069243 533.26390225 162.47325571 532.42506517 162.47589666 531.56080878 C162.48086072 528.73382416 162.46429867 525.90736686 162.44794178 523.08043098 C162.44709607 521.06045736 162.44756954 519.04048281 162.44926929 517.02050972 C162.45013288 511.52278948 162.4324485 506.02526412 162.41154742 500.52758932 C162.39284095 494.78737014 162.39103495 489.04714689 162.3874712 483.30690193 C162.37813297 472.43068172 162.35349516 461.55455156 162.32342273 450.67837107 C162.28993398 438.29888727 162.27340663 425.91939926 162.25833642 413.53988147 C162.22694714 388.06848469 162.17415216 362.59716795 162.10736561 337.12584114 C161.77736561 337.12584114 161.44736561 337.12584114 161.10736561 337.12584114 Z " fill="#243E8F" transform="translate(3288.8926343917847,157.87415885925293)"/>
<path d="M0 0 C5.30929904 0.25696543 9.74377376 2.952463 14.36865234 5.36132812 C15.87008789 6.12125313 15.87008789 6.12125313 17.40185547 6.89653015 C20.60599488 8.52142575 23.79999448 10.16516081 26.99365234 11.81054688 C31.15791757 13.93636738 35.32585084 16.05495105 39.49365234 18.17382812 C40.53407684 18.70438309 41.57450134 19.23493805 42.64645386 19.78157043 C51.49173104 24.27942266 60.42516511 28.57436952 69.38916016 32.8293457 C74.91935796 35.45556027 80.42485761 38.130375 85.92333984 40.82226562 C87.2608429 41.47705147 87.2608429 41.47705147 88.62536621 42.14506531 C90.44135805 43.03468682 92.25719345 43.92462774 94.07287598 44.81488037 C98.95405841 47.2079449 103.83714199 49.59712397 108.72021484 51.98632812 C109.6887439 52.46026001 110.65727295 52.93419189 111.65515137 53.42248535 C123.44162274 59.18784115 135.24909316 64.90964591 147.05990601 70.62492371 C151.91474269 72.97451509 156.76706126 75.32926216 161.61865234 77.68554688 C163.06526123 78.38778843 164.51187579 79.0900183 165.95849609 79.79223633 C168.7742864 81.15915697 171.58928111 82.52769815 174.40380859 83.8972168 C180.43374156 86.82796609 186.47002622 89.73587322 192.55615234 92.54882812 C193.53036133 93.0014502 194.50457031 93.45407227 195.50830078 93.92041016 C197.25710579 94.72925589 199.0100248 95.52930272 200.76806641 96.31787109 C205.28244058 98.40856791 208.99796796 100.3696967 211.99365234 104.49804688 C211.68649066 109.1455896 210.21385545 112.34240897 207.84521484 116.30273438 C206.84651367 117.98894897 206.84651367 117.98894897 205.82763672 119.70922852 C205.09148298 120.93060643 204.35514953 122.15187604 203.61865234 123.37304688 C202.85281165 124.65825671 202.0878557 125.94399411 201.32373047 127.23022461 C199.71104281 129.94171662 198.09308392 132.64996141 196.47119141 135.35595703 C194.04394413 139.40855695 191.6375697 143.47325528 189.23583984 147.54101562 C181.24384171 161.06654545 173.1664992 174.53563202 164.98199463 187.94549561 C159.99119068 196.12908328 155.15041823 204.38020463 150.43359375 212.72412109 C146.09872571 220.37207731 141.58620631 227.90679096 137.04736328 235.43505859 C132.27132111 243.3586736 127.54099647 251.30808217 122.82745361 259.26898193 C116.30555123 270.28393335 109.72620957 281.25967109 103.05615234 292.18554688 C97.71404258 300.93731362 92.50788744 309.74787202 87.4621582 318.67358398 C83.44648038 325.75808652 79.30362673 332.76234312 75.11865234 339.74804688 C74.19028564 341.302052 74.19028564 341.302052 73.24316406 342.88745117 C71.51099986 345.76884421 69.75364753 348.63360128 67.99365234 351.49804688 C67.20039551 352.8505957 67.20039551 352.8505957 66.39111328 354.23046875 C65.88612305 355.05611328 65.38113281 355.88175781 64.86083984 356.73242188 C64.42626465 357.46170898 63.99168945 358.19099609 63.54394531 358.94238281 C61.99365234 360.49804688 61.99365234 360.49804688 59.54272461 360.88256836 C56.74465486 360.4604862 55.54540482 359.84301014 53.34130859 358.11132812 C52.6592334 357.59175537 51.9771582 357.07218262 51.27441406 356.53686523 C50.17637451 355.68233765 50.17637451 355.68233765 49.05615234 354.81054688 C24.88036147 336.73711736 -2.4812233 323.18385218 -31.00634766 313.49804688 C-31.93737305 313.1799707 -32.86839844 312.86189453 -33.82763672 312.53417969 C-57.17330559 304.68668931 -81.5135934 299.9285915 -106.00634766 297.49804688 C-106.93769531 297.40378418 -107.86904297 297.30952148 -108.82861328 297.21240234 C-119.04245591 296.29916849 -129.25942278 296.25463668 -139.50634766 296.24804688 C-140.45387909 296.24737213 -141.40141052 296.24669739 -142.37765503 296.2460022 C-204.628511 296.31605069 -269.5731203 313.34580495 -321.00634766 349.49804688 C-322.08795166 350.25142334 -322.08795166 350.25142334 -323.19140625 351.02001953 C-333.99079061 358.5945722 -343.97396441 366.65015057 -353.37646484 375.90332031 C-354.87049498 377.36512451 -356.39411781 378.79652351 -357.92041016 380.22460938 C-365.95055528 387.88448844 -372.52606973 396.51675434 -379.00634766 405.49804688 C-379.46428711 406.13258789 -379.92222656 406.76712891 -380.39404297 407.42089844 C-394.09127981 426.64203961 -404.03679972 448.00240214 -409.88134766 470.87304688 C-410.07253174 471.61997803 -410.26371582 472.36690918 -410.46069336 473.13647461 C-413.73197877 486.88240701 -414.38097389 500.50742364 -414.31884766 514.56054688 C-414.31702484 515.41733032 -414.31520203 516.27411377 -414.31332397 517.15686035 C-414.26576757 530.45344522 -413.76991928 543.44724307 -411.00634766 556.49804688 C-410.84005859 557.29436523 -410.67376953 558.09068359 -410.50244141 558.91113281 C-404.28299474 587.486035 -391.03531289 612.27817019 -371.00634766 633.49804688 C-370.38373047 634.17351563 -369.76111328 634.84898437 -369.11962891 635.54492188 C-335.22878322 671.06991735 -282.25395388 685.29328767 -235.00634766 689.49804688 C-233.43336914 689.63944092 -233.43336914 689.63944092 -231.82861328 689.78369141 C-221.9299472 690.58469811 -212.05667382 690.74104994 -202.13134766 690.74804688 C-201.26118011 690.74872162 -200.39101257 690.74939636 -199.49447632 690.75009155 C-131.35418073 690.66703055 -57.29945648 673.20601302 0.29418945 635.56176758 C1.11540283 635.03156006 1.93661621 634.50135254 2.78271484 633.95507812 C3.50152832 633.48046143 4.2203418 633.00584473 4.9609375 632.5168457 C6.99365234 631.49804688 6.99365234 631.49804688 10.99365234 631.49804688 C8.80963098 638.50480484 6.08083651 645.16248758 3.12802124 651.87869263 C2.27742912 653.81337833 1.43150693 655.75005055 0.58666992 657.68725586 C-0.32396658 659.77504409 -1.23495125 661.86267479 -2.14735413 663.94969177 C-5.39192585 671.37130278 -8.60548334 678.80623031 -11.81729126 686.24206543 C-13.51084974 690.16244766 -15.20599334 694.0821445 -16.90087891 698.00195312 C-17.58659666 699.58804988 -18.2723063 701.17415013 -18.95800781 702.76025391 C-21.97438131 709.73726474 -24.99148719 716.71395886 -28.00854492 723.69067383 C-29.00979162 726.00601089 -30.01100479 728.32136246 -31.01220703 730.63671875 C-34.30806947 738.25861996 -37.60420086 745.88040466 -40.90087891 753.50195312 C-53.97060523 783.71853162 -67.0236066 813.9423281 -80.06274414 844.17211914 C-81.89584446 848.42175807 -83.73008577 852.67090187 -85.56518555 856.91967773 C-89.91976504 867.00458735 -94.26512499 877.09320231 -98.5806427 887.19490051 C-100.58927891 891.89526857 -102.60272281 896.59357013 -104.61654663 901.29171753 C-105.57535681 903.53232611 -106.53180617 905.77394659 -107.48574829 908.01663208 C-108.81086701 911.13151697 -110.14408453 914.24282091 -111.47900391 917.35351562 C-111.8645343 918.26577911 -112.2500647 919.1780426 -112.64727783 920.11795044 C-119.39087544 935.75577575 -119.39087544 935.75577575 -128.00634766 939.49804688 C-129.01785889 939.9534082 -129.01785889 939.9534082 -130.04980469 940.41796875 C-166.67274117 956.20612241 -207.50326745 961.7918463 -247.00634766 964.49804688 C-247.68986298 964.54503723 -248.3733783 964.59202759 -249.0776062 964.64044189 C-263.52454875 965.60074817 -277.96875979 965.74071803 -292.44384766 965.74804688 C-293.65155823 965.74872162 -294.8592688 965.74939636 -296.10357666 965.75009155 C-316.5457657 965.73205125 -336.71550102 965.00718859 -357.00634766 962.49804688 C-357.69889648 962.41319031 -358.39144531 962.32833374 -359.10498047 962.24090576 C-405.55230655 956.48179034 -450.24656505 943.43622357 -493.00634766 924.49804688 C-493.87243652 924.11535645 -494.73852539 923.73266602 -495.63085938 923.33837891 C-537.29045507 904.74407591 -576.34037078 878.18096251 -610.00634766 847.49804688 C-610.84166016 846.75554688 -611.67697266 846.01304687 -612.53759766 845.24804688 C-620.90144542 837.81351553 -628.81634638 830.0796613 -636.00634766 821.49804688 C-636.45993652 820.96356934 -636.91352539 820.4290918 -637.38085938 819.87841797 C-654.15140305 800.05283758 -667.88486874 777.99951656 -679.02490234 754.55126953 C-679.68214531 753.17629109 -680.34958894 751.80614472 -681.02685547 750.44091797 C-701.66740358 708.7854118 -711.85782479 660.64181757 -715.00634766 614.49804688 C-715.06274414 613.71059082 -715.11914062 612.92313477 -715.17724609 612.11181641 C-720.47656926 535.33434444 -706.80234616 456.5427134 -618.00634766 270.49804688 C-617.46268555 269.74475098 -616.91902344 268.99145508 -616.35888672 268.21533203 C-603.26764834 250.14825487 -589.62320707 232.63943406 -574.49072266 216.22851562 C-573.18415609 214.79252501 -571.88198838 213.35161641 -570.62524414 211.87182617 C-565.20418091 205.50680089 -559.30027763 199.64075856 -553.38208008 193.7434082 C-551.57273833 191.93942602 -549.76880446 190.13016023 -547.96533203 188.3203125 C-542.14857438 182.49984876 -536.30682804 176.79970342 -530.00634766 171.49804688 C-528.88785298 170.52558998 -527.77063768 169.55165939 -526.65478516 168.57617188 C-459.20359663 110.14361182 -377.69354384 69.38583699 -87.00634766 17.49804688 C-86.25305176 17.48290039 -85.49975586 17.46775391 -84.72363281 17.45214844 C-66.87037302 17.10727981 -48.93039888 18.02171693 -31.17382812 19.83740234 C-28.7860526 20.0792429 -26.39744808 20.29220798 -24.00634766 20.49804688 C-22.75080078 20.62050781 -21.49525391 20.74296875 -20.20166016 20.86914062 C-16.8815281 20.7569441 -16.8815281 20.7569441 -14.34228516 18.48632812 C-11.19484681 14.45992288 -8.86637203 10.14416021 -6.57666016 5.5859375 C-3.84632304 0.63720148 -3.84632304 0.63720148 0 0 Z " fill="#243E8F" transform="translate(2937.00634765625,151.501953125)"/>
<path d="M0 0 C1.12196777 0.27287842 1.12196777 0.27287842 2.26660156 0.55126953 C13.74405917 3.38893526 24.37862973 7.85622559 35 13 C35.97815674 13.46962158 35.97815674 13.46962158 36.97607422 13.94873047 C55.98111862 23.19905999 72.61710901 36.64263507 88 51 C88.86238281 51.79664063 89.72476562 52.59328125 90.61328125 53.4140625 C123.66861627 85.08212586 141.21385247 130.62674957 142.1875 175.98046875 C142.51376105 201.9782342 139.83249966 226.10176023 129 250 C128.71286133 250.63856934 128.42572266 251.27713867 128.12988281 251.93505859 C119.60567893 270.64683804 107.21282624 286.36986161 93.34375 301.4375 C91.31386333 303.65684276 89.33504502 305.90672034 87.375 308.1875 C84.46512695 311.54136776 81.38117443 314.66645227 78.1875 317.75 C76.30890917 319.68226485 74.55943298 321.65621887 72.8046875 323.69921875 C68.8034908 328.30688346 64.48273006 332.54524979 60.125 336.8125 C53.615977 343.26040233 47.55888515 349.70805066 42 357 C41.21882813 357.97582031 40.43765625 358.95164062 39.6328125 359.95703125 C-10.1614507 422.46617893 -21.54672531 502.66845676 -23.54492188 580.22753906 C-23.56572028 581.0112225 -23.58651869 581.79490594 -23.60794735 582.60233736 C-24.07245815 600.34213479 -24.19912957 618.0803378 -24.27039146 635.82536983 C-24.28904989 640.17959882 -24.31326136 644.53379695 -24.33703613 648.88800049 C-24.40613268 661.7191891 -24.46675501 674.55041568 -24.52606201 687.38165283 C-24.57278743 697.46594894 -24.62177069 707.55022344 -24.67754889 717.63447404 C-24.70582559 722.79327379 -24.72943563 727.95206713 -24.74947357 733.11090517 C-24.7628053 736.28926237 -24.78021172 739.4675874 -24.79878426 742.64591789 C-24.80656644 744.12262352 -24.81262449 745.59933933 -24.81687737 747.07605934 C-24.82288344 749.08154771 -24.83549672 751.08701313 -24.84851074 753.09246826 C-24.85366447 754.21601086 -24.85881821 755.33955345 -24.86412811 756.49714279 C-25 759 -25 759 -26 760 C-30.39998945 760.21832989 -34.80534812 760.18579146 -39.21020508 760.18530273 C-41.42483782 760.18748751 -43.63897123 760.20563531 -45.85351562 760.22460938 C-47.25520662 760.22754356 -48.6569 760.22952819 -50.05859375 760.23046875 C-51.34048584 760.23457764 -52.62237793 760.23868652 -53.94311523 760.24291992 C-57 760 -57 760 -59 758 C-59.2561264 755.25309181 -59.2561264 755.25309181 -59.26501465 751.67764282 C-59.27158655 750.6925917 -59.27158655 750.6925917 -59.27829123 749.68764055 C-59.2906643 747.47479758 -59.28879923 745.26219009 -59.28710938 743.04931641 C-59.29313259 741.46525724 -59.30005659 739.88120128 -59.30781555 738.29714966 C-59.32275128 734.87158898 -59.3314665 731.44608704 -59.33552551 728.02049637 C-59.34226596 722.5557915 -59.36407124 717.09120898 -59.38806152 711.6265564 C-59.43712866 699.95939991 -59.46913275 688.29221648 -59.5 676.625 C-59.54062652 661.4088032 -59.58744432 646.19266114 -59.65625 630.9765625 C-59.66034197 630.0582072 -59.66443394 629.1398519 -59.66864991 628.19366765 C-59.93343923 570.61514387 -60.72295785 511.9152937 -76 456 C-76.25475098 455.05044434 -76.50950195 454.10088867 -76.77197266 453.12255859 C-89.97454682 404.62482693 -116.64323609 363.80480876 -152.21875 328.8125 C-154.00162104 326.99835052 -155.65999718 325.12061651 -157.3125 323.1875 C-160.22252353 319.79802179 -163.32185105 316.63575933 -166.5 313.5 C-170.25332969 309.79160142 -173.8568067 306.01502262 -177.27734375 301.99609375 C-178.49180143 300.58886501 -179.73727399 299.20811312 -181.00390625 297.84765625 C-192.22602959 285.78236801 -201.51073524 272.66388527 -209 258 C-209.48509033 257.05060547 -209.48509033 257.05060547 -209.97998047 256.08203125 C-221.37194556 233.44976062 -226.22917616 209.53652319 -226.25 184.3125 C-226.25067474 183.57834869 -226.25134949 182.84419739 -226.25204468 182.08779907 C-226.23421459 169.84119833 -225.50110533 158.02056823 -223 146 C-222.75056641 144.77531006 -222.75056641 144.77531006 -222.49609375 143.52587891 C-217.2467211 118.57677724 -207.04581604 94.63506853 -192 74 C-191.26136719 72.96488281 -190.52273438 71.92976563 -189.76171875 70.86328125 C-162.04198602 33.19529376 -121.16268813 9.19030993 -76 -1 C-74.95199219 -1.2477417 -74.95199219 -1.2477417 -73.8828125 -1.50048828 C-50.43301958 -6.84858964 -23.20816754 -5.94117373 0 0 Z " fill="#243E8F" transform="translate(695,137)"/>
<path d="M0 0 C1.18737762 0.00060425 2.37475525 0.0012085 3.59811401 0.00183105 C100.1408861 0.13379814 195.65035447 14.28103088 444.39221191 87.34906006 C446.70998218 88.24447629 449.03014739 89.13349552 451.35058594 90.02197266 C455.43447996 91.58811762 459.51140288 93.17129703 463.58374023 94.76724243 C465.13282213 95.37289232 466.68341069 95.97470494 468.2355957 96.57235718 C470.37859013 97.39982246 472.51407647 98.2443054 474.6484375 99.09375 C476.4744751 99.81014648 476.4744751 99.81014648 478.33740234 100.54101562 C510.61367735 117.0187748 531.1365257 213.01399352 541.93862915 246.18606567 C569.08810682 330.2980359 584.72777103 417.97675022 589.5625 506.1875 C589.62034668 507.20199219 589.67819336 508.21648437 589.73779297 509.26171875 C594.83405178 602.77882407 585.48722488 697.31953384 535.5625 903.1875 C535.17251831 904.44191895 535.17251831 904.44191895 534.7746582 905.72167969 C523.57806517 941.69853199 510.73108295 977.05315346 496.8125 1012.0625 C496.42623444 1013.03883392 496.03996887 1014.01516785 495.64199829 1015.02108765 C494.54548509 1017.78561739 493.438795 1020.54581942 492.328125 1023.3046875 C492.00585434 1024.11826218 491.68358368 1024.93183685 491.35154724 1025.77006531 C488.6780621 1032.34642494 486.19109187 1037.90494151 479.5625 1041.1875 C478.9123291 1041.51137695 478.2621582 1041.83525391 477.59228516 1042.16894531 C396.58800363 1081.76490138 307.00581396 1108.36116952 28.125 1142.375 C26.89404602 1142.37439575 25.66309204 1142.3737915 24.39483643 1142.37316895 C-75.21161258 1142.24179795 -173.4075212 1127.55647817 -327.4375 1086.1875 C-328.9583017 1085.70990234 -328.9583017 1085.70990234 -330.50982666 1085.22265625 C-361.5034644 1075.46459478 -392.13263013 1064.91139567 -422.4375 1053.1875 C-423.59943878 1052.73929901 -423.59943878 1052.73929901 -424.78485107 1052.28204346 C-429.78116065 1050.35371975 -434.7687087 1048.40426708 -439.75 1046.4375 C-440.96606934 1045.96014404 -442.18213867 1045.48278809 -443.43505859 1044.9909668 C-444.54574707 1044.545354 -445.65643555 1044.09974121 -446.80078125 1043.640625 C-447.75251221 1043.26067383 -448.70424316 1042.88072266 -449.68481445 1042.48925781 C-456.14712272 1039.43320214 -459.42770627 1036.39447822 -462.375 1029.90234375 C-462.71144531 1029.19520737 -463.04789062 1028.48807098 -463.39453125 1027.75950623 C-464.42667408 1025.576646 -465.4340353 1023.38366732 -466.4375 1021.1875 C-467.03212967 1019.91012229 -467.62716373 1018.63293272 -468.22265625 1017.35595703 C-470.00330468 1013.5058194 -471.72813766 1009.63223544 -473.4375 1005.75 C-473.75087311 1005.03972656 -474.06424622 1004.32945312 -474.38711548 1003.59765625 C-487.23529137 974.37986043 -498.49615756 944.4522247 -508.74468994 914.23016357 C-509.20537529 912.87189059 -509.66724288 911.51401799 -510.13031006 910.15655518 C-535.04519871 837.11408039 -550.88238262 761.16904575 -558.6875 684.4375 C-558.76481354 683.68500977 -558.84212708 682.93251953 -558.92178345 682.15722656 C-559.49402767 676.50573985 -559.97633584 670.84901424 -560.4375 665.1875 C-560.5683046 663.66313324 -560.5683046 663.66313324 -560.70175171 662.10797119 C-562.65907873 638.7565196 -562.78044187 615.44357272 -562.75317383 592.0234375 C-562.74856734 587.74110336 -562.75538929 583.45905499 -562.77368164 579.17675781 C-562.93118852 541.90550613 -561.55601825 504.79103772 -557.1875 467.75 C-557.08523102 466.85744507 -556.98296204 465.96489014 -556.87759399 465.04528809 C-552.75127802 429.14458818 -546.86892099 393.54720146 -539.4375 358.1875 C-539.26861267 357.38066772 -539.09972534 356.57383545 -538.92572021 355.74255371 C-523.28567255 281.21891469 -500.29028538 208.30427717 -472.35144043 137.50616455 C-471.44941092 135.21771797 -470.55283698 132.92719573 -469.65722656 130.63623047 C-468.2928498 127.15312882 -466.91095537 123.67756221 -465.51211548 120.2081604 C-464.77652502 118.37847743 -464.05247002 116.54416982 -463.32885742 114.7097168 C-462.88646729 113.63246338 -462.44407715 112.55520996 -461.98828125 111.4453125 C-461.61356689 110.5186377 -461.23885254 109.59196289 -460.8527832 108.63720703 C-458.09343587 103.86106573 -453.8071942 101.68200006 -448.90625 99.48046875 C-447.80522949 98.98417969 -446.70420898 98.48789063 -445.56982422 97.9765625 C-443.77182373 97.18378906 -443.77182373 97.18378906 -441.9375 96.375 C-441.31135803 96.0970459 -440.68521606 95.8190918 -440.0401001 95.53271484 C-358.6306462 59.42662178 -273.27455486 32.57423373 -51.4375 1.1875 C-50.56568085 1.14513214 -49.69386169 1.10276428 -48.79562378 1.05911255 C-32.52751076 0.28890151 -16.28547322 -0.01555841 0 0 Z M-407.4375 111.1875 C-408.09310913 111.46203003 -408.74871826 111.73656006 -409.42419434 112.01940918 C-413.58418071 113.76153612 -417.73303543 115.52781371 -421.875 117.3125 C-422.87539307 117.73756836 -423.87578613 118.16263672 -424.90649414 118.60058594 C-433.86859357 122.53681879 -438.70525334 126.28794307 -442.375 135.5 C-442.74431641 136.3969458 -443.11363281 137.2938916 -443.49414062 138.21801758 C-444.83803863 141.53018859 -446.1412733 144.85637984 -447.4375 148.1875 C-447.69509094 148.84681519 -447.95268188 149.50613037 -448.21807861 150.1854248 C-481.22765973 234.76585355 -506.89985949 322.17554756 -507.4375 822.1875 C-507.25552063 822.92059387 -507.07354126 823.65368774 -506.88604736 824.40899658 C-492.37124414 882.63541948 -472.58753698 939.35275345 -448.6875 994.375 C-448.40285889 995.03372101 -448.11821777 995.69244202 -447.82495117 996.37112427 C-441.67183768 1011.62150891 -441.67183768 1011.62150891 -429.32006836 1021.62866211 C-428.15096924 1022.06960205 -426.98187012 1022.51054199 -425.77734375 1022.96484375 C-425.12886475 1023.2120517 -424.48038574 1023.45925964 -423.81225586 1023.71395874 C-421.67001851 1024.52731736 -419.52287298 1025.32665332 -417.375 1026.125 C-415.84237864 1026.70101532 -414.30991092 1027.27743959 -412.77758789 1027.85424805 C-408.78194639 1029.35417498 -404.78110993 1030.83970307 -400.77832031 1032.32043457 C-398.55275763 1033.14480731 -396.32886051 1033.97350379 -394.10546875 1034.80371094 C-301.7666475 1069.22987379 -206.00581931 1094.26408472 -46.64385986 1113.03320312 C-44.47294833 1113.185021 -42.3026449 1113.34388716 -40.13232422 1113.50390625 C44.25624549 1119.61456337 129.90418865 1113.85268882 420.5625 1037.1875 C421.77244629 1036.68847168 422.98239258 1036.18944336 424.22900391 1035.67529297 C431.70354995 1032.58073569 439.14571153 1029.41788777 446.5625 1026.1875 C447.38024902 1025.83429687 448.19799805 1025.48109375 449.04052734 1025.1171875 C451.15888253 1024.19683306 453.26855412 1023.25973657 455.375 1022.3125 C456.47457031 1021.82007813 457.57414062 1021.32765625 458.70703125 1020.8203125 C464.71226607 1017.38640258 467.4845274 1012.98115859 469.875 1006.65234375 C470.165457 1005.91426483 470.455914 1005.17618591 470.75517273 1004.41574097 C471.70472021 1001.99059926 472.63417039 999.55833492 473.5625 997.125 C474.22572955 995.41277636 474.88955723 993.70078431 475.55395508 991.98901367 C481.90967717 975.54176777 487.9442327 958.98053952 493.79937744 942.3493042 C494.54468467 940.23796799 495.29553951 938.12869435 496.04833984 936.02001953 C525.40345145 853.68789019 545.65857633 767.93325167 561.5625 625.1875 C561.61470703 624.43198853 561.66691406 623.67647705 561.72070312 622.89807129 C564.67941931 579.74784392 564.70324268 536.32677013 561.5625 493.1875 C561.49933594 492.30763428 561.43617187 491.42776855 561.37109375 490.52124023 C557.20757621 432.97183548 548.44861935 376.20120533 534.5625 320.1875 C534.3828772 319.46147583 534.20325439 318.73545166 534.01818848 317.98742676 C524.96381947 281.51254882 488.71376995 141.18949631 460.5625 123.1875 C456.96457201 121.42757464 453.27998337 119.92544233 449.5625 118.4375 C447.82238647 117.73620972 447.82238647 117.73620972 446.04711914 117.02075195 C427.11445707 109.47313736 407.81588205 102.86030204 388.5625 96.1875 C387.67546387 95.87901123 386.78842773 95.57052246 385.87451172 95.25268555 C293.57404513 63.16432382 197.41771056 40.70136461 -407.4375 111.1875 Z " fill="#243E8F" transform="translate(646.4375,28.8125)"/>
<path d="M0 0 C1.02528809 0.24145752 1.02528809 0.24145752 2.07128906 0.48779297 C30.90024123 7.48987865 56.66426171 23.91870211 79 43 C79.73734375 43.62519531 80.4746875 44.25039063 81.234375 44.89453125 C93.19873989 55.35303642 105.11081426 66.68100521 114.86328125 79.25 C116.48775101 81.34072525 118.13969196 83.36158274 119.85546875 85.375 C133.46532519 101.46570989 145.32811308 119.27009107 155 138 C155.35578125 138.67111816 155.7115625 139.34223633 156.078125 140.03369141 C189.40517262 203.44602717 190.39458033 282.37792411 190.23571944 352.35955834 C190.22671791 357.18755427 190.22870024 362.01554902 190.2290802 366.84355164 C190.22815611 374.89807811 190.21962775 382.95256591 190.20581055 391.00708008 C190.18989918 400.3168569 190.18481986 409.62659221 190.1855461 418.93638164 C190.18621929 428.9161835 190.17931485 438.89596945 190.1700995 448.87576652 C190.16796926 451.73760078 190.16725861 454.59943249 190.16686058 457.46126747 C190.16586116 461.92598949 190.15979794 466.39067632 190.14969444 470.85538673 C190.14676264 472.4949675 190.14554544 474.13455231 190.14612198 475.77413559 C190.14660901 478.00073231 190.14099456 480.22722882 190.13371277 482.45381165 C190.13203692 483.70141927 190.13036108 484.94902689 190.12863445 486.2344408 C190 489 190 489 189 490 C185.36100825 490.25156269 181.70916327 490.18522226 178.0625 490.1875 C177.03447266 490.19974609 176.00644531 490.21199219 174.94726562 490.22460938 C173.47483398 490.22750977 173.47483398 490.22750977 171.97265625 490.23046875 C170.61539429 490.23663208 170.61539429 490.23663208 169.23071289 490.24291992 C167 490 167 490 165 488 C164.72875977 486.05834961 164.72875977 486.05834961 164.69140625 483.65234375 C164.66852539 482.74967773 164.64564453 481.84701172 164.62207031 480.91699219 C164.59258301 479.44214355 164.59258301 479.44214355 164.5625 477.9375 C162.99643633 430.70203686 148.84901033 391.58775345 114.34008789 358.35913086 C73.40948221 320.15597533 18.67067846 302.89416767 -33.48312378 286.03372192 C-78.96163574 271.32280378 -78.96163574 271.32280378 -98 262 C-99.269646 261.37955811 -99.269646 261.37955811 -100.56494141 260.74658203 C-116.39358755 252.92513331 -130.18236138 244.23922532 -143 232 C-143.61101562 231.45214844 -144.22203125 230.90429688 -144.8515625 230.33984375 C-165.78963025 210.88369404 -173.81526838 180.88840787 -175.12792969 153.3125 C-176.3243795 111.23475842 -164.22812432 72.65184415 -135.29296875 41.42578125 C-134.53628906 40.62527344 -133.77960938 39.82476562 -133 39 C-132.25363281 38.18917969 -131.50726563 37.37835938 -130.73828125 36.54296875 C-98.16294574 2.35232735 -45.50908151 -11.0962821 0 0 Z " fill="#243E8F" transform="translate(435,407)"/>
<path d="M0 0 C5.23151325 4.91089734 9.74740864 10.2124506 14.0625 15.9375 C15.15498047 17.38189453 15.15498047 17.38189453 16.26953125 18.85546875 C31.06351718 39.29759642 40.62198793 62.91559404 44.0625 87.9375 C44.33513672 89.72414063 44.33513672 89.72414063 44.61328125 91.546875 C48.51314381 123.73523517 43.23478027 159.23095376 23.12109375 185.421875 C-7.37770259 222.69175136 -52.70562658 236.92391467 -97.04983521 251.18334961 C-168.33934645 274.14237404 -242.66309414 300.37215413 -279.45385742 370.66967773 C-291.35505237 394.31750665 -293.83293801 420.25555212 -294.50830078 446.36181641 C-294.53649902 447.19503418 -294.56469727 448.02825195 -294.59375 448.88671875 C-294.61244141 449.62237061 -294.63113281 450.35802246 -294.65039062 451.1159668 C-294.9375 452.9375 -294.9375 452.9375 -296.9375 454.9375 C-303.99800055 456.17758791 -311.27370163 456.82933703 -317.9375 453.9375 C-319.84498304 449.65971629 -320.18843556 445.88661581 -320.19146729 441.24128723 C-320.19458727 440.59271387 -320.19770725 439.94414051 -320.20092177 439.27591342 C-320.20886179 437.11459367 -320.20259275 434.95355789 -320.19628906 432.79223633 C-320.19900169 431.23552283 -320.20256414 429.67881062 -320.20690918 428.12210083 C-320.21603113 423.8903331 -320.2124823 419.65866292 -320.20615101 415.42689347 C-320.20105687 410.95335026 -320.20579494 406.47981494 -320.20892334 402.00627136 C-320.21256699 394.45460538 -320.20776794 386.90297841 -320.19824219 379.35131836 C-320.1886785 371.68332355 -320.18849882 364.01540667 -320.19824219 356.34741211 C-320.43192985 167.46415816 -320.43192985 167.46415816 -260.9375 64.9375 C-260.53321777 64.39577148 -260.12893555 63.85404297 -259.71240234 63.29589844 C-253.4370377 54.90387295 -246.79011388 46.86391574 -239.9375 38.9375 C-239.17747681 38.04502563 -239.17747681 38.04502563 -238.40209961 37.13452148 C-226.30348707 23.06640855 -212.99864268 9.80486203 -197.9375 -1.0625 C-196.86050533 -1.87826618 -195.78499747 -2.69599877 -194.7109375 -3.515625 C-173.84727286 -19.2065567 -150.44796586 -30.52447224 -124.9375 -36.0625 C-123.27654297 -36.43181641 -123.27654297 -36.43181641 -121.58203125 -36.80859375 C-76.94594338 -44.84863442 -33.41194138 -29.31117312 0 0 Z " fill="#243E8F" transform="translate(1000.9375,442.0625)"/>
<path d="M0 0 C4.2900823 0.36772134 6.00672274 1.64100024 8.8125 4.8125 C40.50779327 37.70679285 90.00012909 48.54095248 131.98730469 61.90625 C187.06259834 79.44524736 247.40188803 100.38238352 284 148 C284.72703125 148.88816406 285.4540625 149.77632812 286.203125 150.69140625 C306.67962015 176.43021746 314.22523011 208.23829003 314.125 240.5625 C314.12886719 241.84447266 314.13273437 243.12644531 314.13671875 244.44726562 C314.13478516 246.26967773 314.13478516 246.26967773 314.1328125 248.12890625 C314.13168457 249.23306885 314.13055664 250.33723145 314.12939453 251.47485352 C314 254 314 254 313 255 C295.27848101 257.53164557 295.27848101 257.53164557 289 254 C286.2121223 251.2121223 286.50768522 248.37185749 286.1875 244.625 C284.77701542 231.58458822 279.58830812 219.9715905 269.7890625 210.96875 C243.5478726 191.0917025 206.45019139 195.26564845 175.8125 197.9375 C171.50678456 198.30406027 167.20072337 198.66642946 162.89453125 199.02734375 C161.86127716 199.1141188 160.82802307 199.20089386 159.76345825 199.29029846 C112.16462949 203.24228353 55.11084971 204.85042319 14.9375 174.4375 C13.6124357 173.30621981 12.29991875 172.16008686 11 171 C9.81277344 170.0409375 9.81277344 170.0409375 8.6015625 169.0625 C-9.48661763 153.92408463 -18.10386996 131.95969968 -21 109 C-22.90014124 71.56328621 -17.25485879 35.06144836 -1 1 C-0.67 0.67 -0.34 0.34 0 0 Z " fill="#243E8F" transform="translate(277,642)"/>
<path d="M0 0 C2.01098633 0.79174805 2.01098633 0.79174805 3.10424805 2.33203125 C3.38026855 2.99549561 3.65628906 3.65895996 3.94067383 4.3425293 C4.2580249 5.09300537 4.57537598 5.84348145 4.90234375 6.61669922 C5.2269458 7.43759033 5.55154785 8.25848145 5.88598633 9.10424805 C6.4047937 10.38489136 6.4047937 10.38489136 6.93408203 11.69140625 C22.07800213 49.94108114 30.96328004 97.56507753 15.1105957 137.03344727 C11.44866549 145.4033071 7.05961108 152.91160504 1.01098633 159.79174805 C0.41930664 160.52522461 -0.17237305 161.25870117 -0.78198242 162.0144043 C-22.82612793 188.51283075 -59.34111966 196.51532274 -91.98901367 199.79174805 C-108.28236221 201.23824791 -124.55706715 201.04771229 -140.86401367 199.97924805 C-142.26129362 199.89187925 -143.65859246 199.8048121 -145.0559082 199.71801758 C-153.30865932 199.19780069 -161.55551867 198.60847323 -169.80151367 197.9909668 C-171.17957687 197.8887809 -171.17957687 197.8887809 -172.58547974 197.78453064 C-177.07738636 197.45137265 -181.56854743 197.11161312 -186.05883789 196.75732422 C-194.44446024 196.11493139 -202.78754922 195.6694097 -211.19995117 195.65893555 C-211.95525116 195.65783783 -212.71055115 195.65674011 -213.48873901 195.65560913 C-233.74107333 195.78979389 -257.13933884 199.33052224 -272.31713867 213.92456055 C-281.12547314 223.76190605 -284.18950554 234.60680559 -285.49682617 247.5065918 C-285.98901367 250.79174805 -285.98901367 250.79174805 -287.98901367 254.79174805 C-295.90901367 254.79174805 -303.82901367 254.79174805 -311.98901367 254.79174805 C-320.49923266 237.77131007 -311.22020099 206.50385901 -305.61010742 189.4753418 C-291.33556446 148.55432811 -260.66553848 119.59757407 -223.33618164 99.08276367 C-221.80986823 98.24324367 -220.28777883 97.39598178 -218.77075195 96.53979492 C-183.22946792 76.48475336 -143.03410775 65.12185597 -104.31469727 52.92868042 C-67.03799873 41.18306212 -32.33054203 28.69388144 -3.74291992 0.90893555 C-1.98901367 -0.20825195 -1.98901367 -0.20825195 0 0 Z " fill="#243E8F" transform="translate(1027.989013671875,642.208251953125)"/>
<path d="M0 0 C1.21212158 -0.03891357 1.21212158 -0.03891357 2.44873047 -0.07861328 C8.37573748 -0.09694801 13.39781307 1.15804248 18.4375 4.375 C25.51226798 12.4147939 26.03805775 22.3333933 25.75 32.578125 C25.29513865 38.10469037 24.12530215 42.09364598 19.8359375 45.734375 C18.1875 46.875 18.1875 46.875 15.4375 48.375 C16.08976563 48.83648438 16.74203125 49.29796875 17.4140625 49.7734375 C24.4950184 55.05804471 30.85965713 61.29816196 32.4375 70.375 C33.01299321 78.6421813 33.36504705 87.25311115 28.1015625 94.1171875 C19.77473861 102.28153677 6.74350101 103.21338659 -4.29223633 104.44067383 C-6.52315022 104.69008818 -8.75056346 104.96182259 -10.97851562 105.23632812 C-23.55926981 106.71691772 -23.55926981 106.71691772 -27.5625 105.375 C-29.97443985 101.75709023 -30.19154778 98.64635251 -30.61572266 94.43798828 C-30.70379684 93.62937851 -30.79187103 92.82076874 -30.88261414 91.98765564 C-31.17223003 89.30768974 -31.44969468 86.62662317 -31.7265625 83.9453125 C-31.92495584 82.07496604 -32.12388759 80.20467662 -32.32333374 78.33444214 C-32.74040981 74.40579193 -33.15160713 70.47658291 -33.55859375 66.546875 C-34.07731857 61.54183235 -34.60934123 56.5383163 -35.14576149 51.5351429 C-35.55921582 47.66631498 -35.96596636 43.79680418 -36.37073898 39.92705917 C-36.56417907 38.08431799 -36.7595127 36.24177446 -36.95686722 34.39944839 C-38.02925239 24.34769256 -38.87683142 14.49670156 -38.5625 4.375 C-25.87096944 1.50917052 -12.99971248 0.21686493 0 0 Z M-14.5625 19.375 C-15.27536467 27.13362018 -13.89972875 34.75757194 -12.5625 42.375 C-7.58775535 43.47883532 -7.58775535 43.47883532 -2.8125 42.125 C1.26688534 38.96083183 1.26688534 38.96083183 3.4375 34.375 C3.80678024 28.74347628 3.58069824 25.26441949 0.4375 20.375 C-2.95499348 18.11333768 -4.21451501 18.12984455 -8.1875 18.1875 C-9.66089844 18.19716797 -9.66089844 18.19716797 -11.1640625 18.20703125 C-13.51427549 18.10811562 -13.51427549 18.10811562 -14.5625 19.375 Z M-10.5625 61.375 C-10.2581707 66.71047542 -9.92609037 72.04323562 -9.5625 77.375 C-9.50191406 78.29023437 -9.44132813 79.20546875 -9.37890625 80.1484375 C-9.20829952 82.4340783 -9.20829952 82.4340783 -8.5625 85.375 C-5.1723457 87.63510287 -3.51937332 87.59873021 0.4375 86.98046875 C4.56465077 85.73103834 6.60892272 82.69319113 8.8125 79.1875 C9.90975798 74.24983908 9.89195041 68.90757449 7.3203125 64.4296875 C5.57112229 62.28718825 3.92464915 60.61857457 1.4375 59.375 C-4.84881643 59.05798676 -4.84881643 59.05798676 -10.5625 61.375 Z " fill="#243E8F" transform="translate(769.5625,979.625)"/>
<path d="M0 0 C5.63534031 0.60127938 11.03263204 1.85754678 16.53955078 3.17041016 C18.53792488 3.64514196 20.53960798 4.10316307 22.54223633 4.55957031 C42.95469382 9.29665789 42.95469382 9.29665789 47.8059082 15.39941406 C48.62768555 16.38941406 48.62768555 16.38941406 49.46606445 17.39941406 C53.70247777 24.03257498 52.64673271 35.15120795 51.05981445 42.61425781 C48.91158994 48.9697934 45.77505446 55.99827263 39.80200195 59.55566406 C37.8684082 60.39941406 37.8684082 60.39941406 34.7434082 61.39941406 C35.15333008 61.78871094 35.56325195 62.17800781 35.9855957 62.57910156 C36.52442383 63.13855469 37.06325195 63.69800781 37.6184082 64.27441406 C38.15208008 64.80808594 38.68575195 65.34175781 39.2355957 65.89160156 C44.22018702 74.18203583 42.43032854 82.617792 40.4309082 91.58691406 C39.9544638 93.85098815 39.47916984 96.11530469 39.00512695 98.37988281 C38.78002441 99.4257959 38.55492187 100.47170898 38.32299805 101.54931641 C37.84234983 103.91287464 37.4480783 106.24737171 37.13793945 108.63769531 C36.7434082 111.39941406 36.7434082 111.39941406 35.7434082 112.39941406 C19.31978295 111.97578881 19.31978295 111.97578881 14.7434082 107.39941406 C14.1838708 100.67622247 15.86570667 94.39674493 17.3215332 87.87011719 C18.44961088 82.58829637 19.11805534 77.80503703 18.7434082 72.39941406 C16.04271109 68.39192803 13.63566547 67.18915215 9.05200195 66.26660156 C8.24432373 66.10015137 7.43664551 65.93370117 6.60449219 65.76220703 C5.68325562 65.58262451 5.68325562 65.58262451 4.7434082 65.39941406 C4.53977661 66.49443237 4.53977661 66.49443237 4.33203125 67.61157227 C3.7030048 70.97924625 3.06699651 74.34556708 2.4309082 77.71191406 C2.21756836 78.85982422 2.00422852 80.00773437 1.78442383 81.19042969 C-2.00317724 101.14599951 -2.00317724 101.14599951 -4.2565918 103.39941406 C-10.62597933 104.13871797 -16.44660314 103.07716782 -22.2565918 100.39941406 C-24.2565918 98.39941406 -24.2565918 98.39941406 -24.48188782 94.81388855 C-24.36438547 90.34655905 -23.59228018 86.12616545 -22.65185547 81.76782227 C-22.48111008 80.94563202 -22.31036469 80.12344177 -22.13444519 79.27633667 C-21.57264116 76.58250397 -20.99908962 73.89134046 -20.42456055 71.20019531 C-20.02774386 69.31797888 -19.6313733 67.43566834 -19.23542786 65.55326843 C-18.40594208 61.61923912 -17.57051739 57.68652984 -16.73095703 53.75463867 C-15.65652813 48.7200554 -14.59786406 43.68230764 -13.54371166 38.64344501 C-12.72934034 34.76011986 -11.90622164 30.87868861 -11.08049965 26.99776268 C-10.68659661 25.14084039 -10.29550705 23.28331893 -9.90730858 21.42519569 C-9.36364645 18.82907306 -8.80814122 16.23575945 -8.24951172 13.64282227 C-8.09198425 12.87855423 -7.93445679 12.11428619 -7.77215576 11.32685852 C-5.43799857 0.66695897 -5.43799857 0.66695897 0 0 Z M14.7434082 21.39941406 C11.6837599 29.55847622 10.22340882 37.84480058 8.7434082 46.39941406 C12.71113364 48.93286037 14.97276021 49.99574506 19.7434082 49.39941406 C23.7238907 47.97781317 25.23407873 45.93725016 27.0559082 42.27441406 C28.90920961 37.62981381 29.69550353 33.3522332 28.7434082 28.39941406 C26.9125089 25.21229305 25.52301622 23.81920299 22.3059082 22.08691406 C19.66463331 21.37827933 17.46490178 21.24390014 14.7434082 21.39941406 Z " fill="#243E8F" transform="translate(459.256591796875,963.6005859375)"/>
<path d="M0 0 C7.49656742 4.00621831 12.67758403 8.6693949 15.4609375 16.8359375 C17.29729838 24.20799494 15.67107246 31.02476415 13 38 C12 39 12 39 10.25 39.01953125 C4.48194567 38.48879014 -2.71112345 37.28887655 -7 33 C-7.2108982 30.89980546 -7.36877227 28.79417378 -7.5 26.6875 C-7.68968201 21.2353283 -7.68968201 21.2353283 -9 16 C-12.78167635 14.73944122 -16.10909125 14.01494214 -20 15 C-26.23231875 20.34630409 -28.28402886 28.6978964 -30.5625 36.25 C-30.9445459 37.48258545 -31.3265918 38.7151709 -31.72021484 39.98510742 C-33.98617127 47.39008381 -36.16180163 54.82121621 -38.125 62.3125 C-38.33713135 63.09850586 -38.5492627 63.88451172 -38.76782227 64.69433594 C-39.94130143 69.43388501 -40.0998094 73.14353827 -39 78 C-36.96677698 80.94817338 -34.37235696 81.95617523 -31 83 C-29.33363604 83.03176354 -27.66627298 83.03622333 -26 83 C-23.12059087 76.5849443 -21.4535179 71.02952752 -21 64 C-21.804375 63.5875 -22.60875 63.175 -23.4375 62.75 C-26 61 -26 61 -26.74609375 59.21484375 C-27.06720079 56.41380235 -26.48678982 54.48879225 -25.625 51.8125 C-25.34914063 50.93207031 -25.07328125 50.05164063 -24.7890625 49.14453125 C-24 47 -24 47 -23 46 C-16.39918106 45.35800254 -10.83695234 47.36278912 -4.625 49.4375 C-3.61566406 49.76298828 -2.60632813 50.08847656 -1.56640625 50.42382812 C5.84167395 52.84167395 5.84167395 52.84167395 7 54 C6.52685302 59.82994788 5.25986011 65.15181523 3.56640625 70.734375 C3.20940895 71.93504608 3.20940895 71.93504608 2.84519958 73.15997314 C2.3447326 74.83818603 1.84119579 76.51548625 1.3347168 78.19189453 C0.5611145 80.75458972 -0.20160236 83.32034177 -0.96289062 85.88671875 C-1.45248848 87.52362802 -1.94270142 89.16035347 -2.43359375 90.796875 C-2.6607457 91.56046326 -2.88789764 92.32405151 -3.12193298 93.11077881 C-5.28808432 100.24949614 -5.28808432 100.24949614 -7 103 C-16.59986714 107.79993357 -34.47604485 101.15578642 -44 98 C-51.73107683 95.12550485 -57.28565038 91.2763147 -61.11328125 83.8359375 C-66.73623597 65.85239068 -58.65778394 46.01223695 -53 29 C-52.70222656 28.08089844 -52.40445312 27.16179688 -52.09765625 26.21484375 C-48.00587406 13.69521166 -43.07129243 3.33976792 -31 -3 C-21.06722333 -6.31092556 -9.34687956 -4.0234912 0 0 Z " fill="#243E8F" transform="translate(411,950)"/>
<path d="M0 0 C2.39749384 0.08745575 4.79148221 0.19437075 7.1875 0.3125 C7.86103516 0.33505859 8.53457031 0.35761719 9.22851562 0.38085938 C13.57150306 0.61389773 16.78429036 0.96596887 20 4 C21.68997585 11.5515418 20.46689795 18.93420656 19.56640625 26.53515625 C19.40710747 27.94174399 19.24875294 29.34843895 19.09129333 30.75523376 C18.67674272 34.44085433 18.25172325 38.12518413 17.82373047 41.80926514 C17.13990987 47.70753734 16.47046563 53.60744048 15.80421257 59.50771904 C15.57102597 61.55705631 15.33233349 63.6056953 15.09291077 65.65431213 C14.94953781 66.90929001 14.80616486 68.16426788 14.65844727 69.45727539 C14.53107681 70.5545546 14.40370636 71.6518338 14.2724762 72.78236389 C13.50541493 80.91093124 13.50541493 80.91093124 17 88 C20.19194941 89.59597471 23.52741063 89.37078983 27 89 C29.83389416 87.48858978 30.01293581 85.95786025 30.95532227 82.88793945 C32.44225021 76.72039987 32.95157986 70.39541057 33.60133171 64.09694481 C33.84377316 61.75501146 34.09458811 59.41411115 34.34779358 57.07331848 C35.06605324 50.42394649 35.77312918 43.77344853 36.46557617 37.12133789 C36.89111831 33.03898577 37.32940983 28.9581698 37.77578926 24.87804604 C37.94294405 23.32641656 38.10517289 21.7742482 38.26237297 20.2215786 C38.48186205 18.05664125 38.71746467 15.89402266 38.95678711 13.73120117 C39.08621201 12.50068527 39.2156369 11.27016937 39.34898376 10.00236511 C40 7 40 7 41.31886292 5.07466125 C44.41595169 3.09485762 48.09061789 4.18904722 51.5625 4.6875 C52.34302734 4.77966797 53.12355469 4.87183594 53.92773438 4.96679688 C59.72165644 5.72165644 59.72165644 5.72165644 62 8 C62.93809865 16.83743555 61.55697759 25.99810763 60.609375 34.78515625 C60.46186394 36.17653319 60.31450795 37.56792657 60.16729736 38.95933533 C59.85914765 41.85499947 59.5456933 44.75003346 59.22900391 47.64477539 C58.82749 51.32333485 58.44472101 55.00358347 58.06658554 58.68460941 C57.76895337 61.55213003 57.45856763 64.41817033 57.14478302 67.28396416 C56.92814066 69.28964846 56.72410451 71.29668187 56.52044678 73.3037262 C55.25267975 84.56111577 53.13929741 95.47247791 44 103 C35.13111476 108.88480543 23.38208511 108.13773458 13.296875 106.33984375 C5.35429051 104.20642861 -0.98588409 100.9794605 -5.3359375 93.79296875 C-11.12182946 81.74928584 -8.88032997 68.4246329 -7.5390625 55.60546875 C-7.3867351 54.12577606 -7.23458774 52.64606482 -7.08261108 51.16633606 C-6.76465852 48.08230943 -6.44307132 44.99868739 -6.11914062 41.9152832 C-5.70491203 37.96749573 -5.30214359 34.0186309 -4.90232277 30.06936169 C-4.59202332 27.02074913 -4.27455372 23.97291486 -3.95502853 20.92525673 C-3.80344851 19.46908393 -3.65435805 18.01264969 -3.50783157 16.5559597 C-3.30256232 14.52376189 -3.08633709 12.49267976 -2.86962891 10.46166992 C-2.74971588 9.30745041 -2.62980286 8.1532309 -2.5062561 6.96403503 C-2.03966103 4.23220795 -1.40156656 2.36568351 0 0 Z " fill="#243E8F" transform="translate(535,977)"/>
<path d="M0 0 C4.88819137 3.9484583 7.21219436 8.80147428 9.9375 14.3125 C13.99034684 22.27731 18.26862602 30.05486234 22.8125 37.75 C28.41418143 47.24365315 33.86072588 56.81191358 39.20629883 66.45214844 C42.29828162 72.01559683 45.47756299 77.48641121 48.87939453 82.8671875 C50.34854617 85.66337677 50.48940395 87.90044165 50 91 C43.81746205 93.73458409 38.92201348 95.728633 32 95 C27.33889463 91.67063902 25.57500927 87.27566887 23.50390625 82.109375 C22.12813365 79.7402111 22.12813365 79.7402111 19.234375 79.0859375 C15.59955289 78.9893601 13.09857178 79.64310608 9.6875 80.875 C8.63949219 81.24367188 7.59148438 81.61234375 6.51171875 81.9921875 C4.10019822 82.7688239 4.10019822 82.7688239 3 84 C3.03195912 85.37349461 3.13198694 86.74555376 3.26171875 88.11328125 C3.32810547 88.94923828 3.39449219 89.78519531 3.46289062 90.64648438 C3.61173626 92.41321735 3.77305122 94.17894735 3.94726562 95.94335938 C4.42541533 102.36633941 4.42541533 102.36633941 2.32421875 105.49609375 C-3.11383954 109.01483735 -9.54960351 110.50924183 -16 110 C-17.76766869 105.35158419 -18.44396503 100.95505879 -18.77783203 96.02954102 C-18.83664551 95.25296646 -18.89545898 94.47639191 -18.95605469 93.67628479 C-19.14764047 91.11932602 -19.32800053 88.56171787 -19.5078125 86.00390625 C-19.63895443 84.20991768 -19.77062626 82.41596778 -19.90280151 80.62205505 C-20.17822825 76.86075886 -20.44828494 73.09912755 -20.71435547 69.3371582 C-21.05278915 64.55592323 -21.40278618 59.77562491 -21.75671577 54.99551487 C-22.03027154 51.28679342 -22.29834659 47.57769103 -22.564785 43.86845207 C-22.69169281 42.1084022 -22.8200408 40.34845547 -22.94995499 38.58862495 C-23.35575553 33.06147512 -23.70693574 27.5342479 -24 22 C-24.04363426 21.26261974 -24.08726852 20.52523949 -24.13222504 19.76551437 C-24.24672517 17.67300884 -24.32472997 15.58258351 -24.39013672 13.48803711 C-24.43693573 12.30382675 -24.48373474 11.11961639 -24.5319519 9.89952087 C-24 7 -24 7 -21.63894653 5.16749573 C-20.76809418 4.78222214 -19.89724182 4.39694855 -19 4 C-18.13761719 3.61457031 -17.27523437 3.22914063 -16.38671875 2.83203125 C-10.70523695 0.68605911 -6.07263426 -0.94230532 0 0 Z M-4 29 C-4.16690529 36.2376202 -3.53630726 43.19845534 -2.625 50.375 C-2.49867188 51.45394531 -2.37234375 52.53289063 -2.2421875 53.64453125 C-2.11328125 54.67707031 -1.984375 55.70960938 -1.8515625 56.7734375 C-1.73635254 57.70591309 -1.62114258 58.63838867 -1.50244141 59.59912109 C-1.10367827 62.24802874 -1.10367827 62.24802874 1 65 C5.05606165 64.53199289 8.46588679 64.12046792 12 62 C11.51328067 56.10210689 8.98170266 51.70972931 6.1875 46.625 C5.3052265 44.9925997 4.42370816 43.35979101 3.54296875 41.7265625 C3.11677246 40.94055664 2.69057617 40.15455078 2.25146484 39.34472656 C0.42930973 35.93076291 -1.28860818 32.47065473 -3 29 C-3.33 29 -3.66 29 -4 29 Z " fill="#243E8F" transform="translate(936,949)"/>
<path d="M0 0 C5.83091538 4.31071244 10.09872521 9.61364851 12.1875 16.6171875 C12.40047894 19.63761604 12.3724496 22.59634406 12.1875 25.6171875 C-1.52703275 31.90301501 -1.52703275 31.90301501 -8.8125 29.6171875 C-10.421875 26.96484375 -10.421875 26.96484375 -11.5625 23.6796875 C-13.0331855 19.23919582 -13.0331855 19.23919582 -15.8125 15.6171875 C-19.27106374 15.16607049 -21.13654152 15.1969971 -24.125 17.0546875 C-27.33198106 21.92454763 -27.13851595 27.71776053 -26.16333008 33.33569336 C-25.81770015 35.00427423 -25.45660697 36.66970902 -25.08203125 38.33203125 C-24.89033859 39.22781387 -24.69864594 40.1235965 -24.50114441 41.04652405 C-24.09495682 42.92953005 -23.68195284 44.81107745 -23.26245117 46.69116211 C-22.62827471 49.53997704 -22.01857289 52.3932188 -21.41210938 55.24804688 C-21.01186111 57.08885633 -20.61021371 58.92936223 -20.20703125 60.76953125 C-20.02767532 61.60838364 -19.8483194 62.44723602 -19.66352844 63.31150818 C-17.52603865 73.74792926 -17.52603865 73.74792926 -11.90779114 82.41075134 C-8.66326944 84.27889664 -6.33019248 83.52918185 -2.8125 82.6171875 C-0.29206321 78.83653232 -0.65842658 75.91111359 -0.8125 71.5546875 C-0.90646733 68.883666 -0.90572536 66.29450343 -0.8125 63.6171875 C1.90789409 60.89679341 4.25240287 60.76917622 8 59.9921875 C9.83498047 59.60160156 9.83498047 59.60160156 11.70703125 59.203125 C14.6352228 58.71016346 17.23264312 58.49336493 20.1875 58.6171875 C24.41946322 65.95259041 24.59985765 76.99474464 22.57421875 85.05859375 C19.55095514 91.86426645 14.37144888 96.23012066 7.63671875 99.1640625 C-2.67945002 102.93380148 -14.30065128 105.1217447 -24.875 101.0546875 C-33.49671078 96.37987621 -36.60562838 88.49020356 -39.8125 79.6171875 C-41.20890834 74.78107699 -42.3457103 69.90508396 -43.4375 64.9921875 C-43.73882895 63.66304405 -44.04034446 62.33394287 -44.34204102 61.00488281 C-53.3412472 20.98637424 -53.3412472 20.98637424 -44.6875 7.2421875 C-33.25978684 -3.19181147 -13.92804915 -8.10942335 0 0 Z " fill="#243E8F" transform="translate(866.8125,971.3828125)"/>
<path d="M0 0 C0.95366455 0.00749268 1.9073291 0.01498535 2.88989258 0.02270508 C3.89818115 0.05259521 4.90646973 0.08248535 5.9453125 0.11328125 C6.97873779 0.13092529 8.01216309 0.14856934 9.0769043 0.16674805 C12.07605509 0.22795521 15.07241657 0.32062845 18.0703125 0.42578125 C19.20122314 0.45913574 19.20122314 0.45913574 20.35498047 0.49316406 C31.09821383 0.84591909 40.42584945 1.85132066 48.4453125 9.53125 C55.39281368 17.63110113 54.62298172 29.39734704 54.0703125 39.42578125 C53.05772898 46.36237703 51.53044987 53.61117736 46.0703125 58.42578125 C38.06875334 63.16852359 30.01330318 63.6270858 20.95703125 64.03125 C17.20371322 63.87172123 17.20371322 63.87172123 14.0703125 65.42578125 C13.92392321 67.31827782 13.84284852 69.21589353 13.7890625 71.11328125 C13.75167969 72.28761719 13.71429687 73.46195313 13.67578125 74.671875 C13.64097656 75.91066406 13.60617187 77.14945313 13.5703125 78.42578125 C12.95876097 99.64888431 12.95876097 99.64888431 11.0703125 103.42578125 C7.91089067 104.47892186 5.5751243 104.59241765 2.2578125 104.61328125 C1.24074219 104.62746094 0.22367188 104.64164063 -0.82421875 104.65625 C-4.14214861 104.4100137 -6.82801972 103.59875875 -9.9296875 102.42578125 C-10.01706676 91.42540463 -9.98185024 80.42623233 -9.9296875 69.42578125 C-9.92451111 68.17430298 -9.91933472 66.92282471 -9.91400146 65.63342285 C-9.87988132 57.69560299 -9.82654091 49.75823301 -9.74417591 41.82075787 C-9.70577298 38.09086473 -9.67421232 34.36119991 -9.65896606 30.63113403 C-9.64393718 27.05364059 -9.60970172 23.47681833 -9.56144142 19.89962387 C-9.53950606 17.91512848 -9.53721236 15.93044702 -9.5353241 13.9458313 C-9.5156105 12.75029633 -9.49589691 11.55476135 -9.47558594 10.32299805 C-9.46670349 9.27669724 -9.45782104 8.23039642 -9.44866943 7.15238953 C-8.42842359 1.79225927 -5.19351279 -0.08873191 0 0 Z M14.0703125 19.42578125 C13.05088234 27.54346589 12.27444792 36.26479702 13.0703125 44.42578125 C15.55050003 46.90596878 16.45547201 46.74939683 19.8828125 46.80078125 C23.53243545 46.73221897 24.90803012 46.52182593 28.1328125 44.61328125 C32.02325064 40.2208511 31.33646416 35.18530847 31.29296875 29.60546875 C31.03253037 25.88622596 30.27425886 23.44600403 28.0703125 20.42578125 C24.78769219 18.23736771 23.75240352 18.1772346 19.9453125 18.23828125 C19.05585937 18.24472656 18.16640625 18.25117187 17.25 18.2578125 C15.09294721 18.18625077 15.09294721 18.18625077 14.0703125 19.42578125 Z " fill="#243E8F" transform="translate(627.9296875,983.57421875)"/>
</svg>
