<?xml version="1.0" encoding="UTF-8"?>
<svg version="1.1" xmlns="http://www.w3.org/2000/svg" width="3948" height="1200">
<path d="M0 0 C55.33023891 -0.04589241 110.66047588 -0.08107735 165.99073013 -0.10213066 C172.53996269 -0.10463173 179.08919522 -0.10722041 185.63842773 -0.10986328 C186.94212675 -0.1103879 188.24582577 -0.11091252 189.58903082 -0.11145304 C210.63010183 -0.12012853 231.67116178 -0.13588257 252.71222625 -0.15430559 C274.34196193 -0.17308448 295.97169187 -0.18413351 317.60143536 -0.18817699 C330.92157794 -0.19090557 344.24168926 -0.19948708 357.5618222 -0.21583293 C366.72654823 -0.22649871 375.89125837 -0.22957922 385.05599014 -0.22700275 C390.32401563 -0.22573619 395.59198695 -0.22751692 400.86000252 -0.23841095 C419.99257196 -0.27592226 439.07970156 -0.20670162 458.1849823 0.90872192 C459.21959367 0.96905992 459.21959367 0.96905992 460.27510629 1.03061686 C498.26856547 3.31519778 536.55304149 8.81585343 573 20 C574.1034375 20.33757324 575.206875 20.67514648 576.34375 21.02294922 C636.54080284 39.70626746 695.74585684 74.24021535 726.58496094 131.30126953 C754.46525223 184.4966796 757.85684131 247.30106713 740.77001953 304.56982422 C728.59522947 342.99336902 706.95245002 377.98853163 675 403 C674.44812012 403.4336084 673.89624023 403.8672168 673.32763672 404.31396484 C651.13322219 421.60677504 624.70113969 433.68923109 597 439 C597.95438965 439.25579834 598.9087793 439.51159668 599.89208984 439.77514648 C655.94143024 454.84824943 708.70192192 475.88146059 754 513 C754.56396484 513.45955078 755.12792969 513.91910156 755.70898438 514.39257812 C769.41037541 525.62553155 782.14340393 537.97606673 793 552 C793.86361102 553.06434948 794.72962678 554.1267509 795.59765625 555.1875 C840.76556447 610.78370434 856.67157931 682.84646458 850.17529297 753.26245117 C843.82374353 811.03761518 820.47255135 866.32845523 782 910 C781.36449219 910.73476563 780.72898437 911.46953125 780.07421875 912.2265625 C778.39604655 914.1632118 776.70177422 916.08406992 775 918 C774.29230469 918.80050781 773.58460938 919.60101562 772.85546875 920.42578125 C765.67274642 928.48951893 758.21781804 935.99601926 750 943 C748.59814453 944.21816406 748.59814453 944.21816406 747.16796875 945.4609375 C727.12678146 962.78130135 705.13132564 977.15238833 682 990 C681.20609863 990.44553223 680.41219727 990.89106445 679.59423828 991.35009766 C602.369911 1034.40053006 510.51965199 1043.92875515 423.75 1048.1875 C422.63192963 1048.24289444 422.63192963 1048.24289444 421.49127197 1048.29940796 C391.91113492 1049.72602447 362.31933935 1050.15289059 332.70981741 1050.11606562 C328.21961076 1050.11164117 323.729405 1050.1132158 319.23919678 1050.1139679 C311.50666704 1050.11448573 303.77414592 1050.11141766 296.04161835 1050.10573006 C284.86244873 1050.09751276 273.68328316 1050.09498951 262.50411084 1050.09374207 C244.35527728 1050.09156738 226.20644828 1050.0849508 208.05761719 1050.07543945 C190.45475283 1050.06622398 172.85188973 1050.05916352 155.24902344 1050.05493164 C153.61438895 1050.05453756 153.61438895 1050.05453756 151.94673154 1050.05413551 C146.47833616 1050.05283023 141.00994078 1050.05156658 135.54154539 1050.05032361 C90.36102711 1050.04000042 45.18051379 1050.02242589 0 1050 C0 1048.02 0 1046.04 0 1044 C1.30710937 1043.29037109 1.30710937 1043.29037109 2.640625 1042.56640625 C10.95186207 1037.98300346 18.58954994 1032.9661203 26 1027 C26.56219238 1026.55140625 27.12438477 1026.1028125 27.70361328 1025.640625 C61.75733772 998.26981474 75.74907273 959.35392251 80.68128861 917.01844648 C81.7505406 906.8917927 82.14666893 896.80619395 82.12863445 886.62854862 C82.13126401 884.71523358 82.13126401 884.71523358 82.13394669 882.7632657 C82.13863048 879.25100188 82.1371902 875.73876429 82.13466892 872.22649926 C82.13302454 868.39447478 82.13718601 864.56245565 82.14057809 860.73043293 C82.14571542 854.02332152 82.14715219 847.31621733 82.14612198 840.60910416 C82.14459368 830.63473889 82.1487663 820.66038158 82.1539966 810.68601786 C82.16365733 791.83182209 82.16648038 772.97762905 82.16705366 754.12343109 C82.16751361 739.55922009 82.16957403 724.99501014 82.17275429 710.43079948 C82.17365187 706.23502046 82.17454168 702.03924143 82.17542917 697.84346241 C82.17565021 696.80030575 82.17587126 695.7571491 82.17609901 694.68238164 C82.18225158 665.34767766 82.18619974 636.01297404 82.18575573 606.67826939 C82.18574015 605.57272844 82.18572457 604.46718749 82.18570852 603.32814531 C82.18562542 597.72510806 82.18552638 592.12207081 82.18542381 586.51903356 C82.18540387 585.40629911 82.18538392 584.29356465 82.18536337 583.14711097 C82.18532294 580.89689067 82.18528114 578.64667037 82.18523798 576.39645007 C82.18462542 541.39784081 82.1921289 506.39924125 82.20581055 471.40063477 C82.22118455 432.05687781 82.22977596 392.71312722 82.22884732 353.36936706 C82.2287727 349.17075884 82.22872399 344.97215062 82.22869301 340.7735424 C82.22867553 339.22290072 82.22867553 339.22290072 82.22865769 337.64093293 C82.22862697 321.03384235 82.23500198 304.42676021 82.24362527 287.81967214 C82.25211884 271.11644548 82.2530784 254.41323113 82.24651595 237.7100035 C82.24283157 227.79892789 82.24461927 217.88788973 82.25445829 207.97681812 C82.2604863 201.34151289 82.25913171 194.7062346 82.25198779 188.07093057 C82.24812992 184.30023757 82.24726135 180.5296167 82.25544515 176.75892896 C82.29718858 156.19317446 81.96100786 135.60633244 78.25 115.3125 C78.08081055 114.37446533 77.91162109 113.43643066 77.73730469 112.4699707 C71.02986479 77.09507567 54.09641141 44.69297069 25.0625 22.6875 C24.33683838 22.1298999 23.61117676 21.5722998 22.86352539 20.99780273 C17.12631251 16.66377651 11.15477402 12.83964264 4.82641602 9.42260742 C2.90234375 8.31640625 2.90234375 8.31640625 0 6 C-0.18139648 2.85522461 -0.18139648 2.85522461 0 0 Z M248 98 C248 205.25 248 312.5 248 423 C399.2904504 432.33465871 399.2904504 432.33465871 537.5 371.875 C568.23535167 340.09870059 576.92692519 295.23934364 576.25 252.4765625 C575.06377641 212.58386303 559.29509111 178.33088217 530.85546875 150.61328125 C487.08348103 110.55382874 426.86555952 100.44086825 369.6796875 99.46484375 C367.2934628 99.42167549 364.90724257 99.37825928 362.52102661 99.33460999 C357.51991712 99.24398219 352.51876984 99.15603596 347.51757812 99.07006836 C341.21790979 98.96161802 334.91837102 98.84708709 328.6188488 98.73049068 C323.68150926 98.63974218 318.74411714 98.55215303 313.80670547 98.46542549 C311.49110479 98.424446 309.17551875 98.38262747 306.85995102 98.33982658 C287.23434011 97.98022676 267.63505983 98 248 98 Z M248 523 C248 661.27 248 799.54 248 942 C386.9424055 945.07110073 386.9424055 945.07110073 523 922 C524.25756104 921.6280249 524.25756104 921.6280249 525.54052734 921.24853516 C564.71196762 909.49483839 605.72914642 888.2586662 632 856 C632.40331543 855.5143457 632.80663086 855.02869141 633.22216797 854.52832031 C651.44737616 832.51423983 663.17766752 807.26914749 669.25 779.375 C669.40122314 778.68470703 669.55244629 777.99441406 669.70825195 777.28320312 C672.4788027 763.60409771 673.38490581 749.86071211 673.3125 735.9375 C673.31034485 735.18164612 673.3081897 734.42579224 673.30596924 733.64703369 C673.18092134 706.09818629 669.02250814 678.42699652 658 653 C657.71431152 652.32598145 657.42862305 651.65196289 657.13427734 650.95751953 C650.59057243 635.68180427 641.89441873 621.57552142 631 609 C630.30519531 608.195625 629.61039063 607.39125 628.89453125 606.5625 C626.63501791 604.00305127 624.33070977 601.4947368 622 599 C621.20207031 598.13632812 620.40414063 597.27265625 619.58203125 596.3828125 C529.91444947 502.7812521 357.79016757 522.1867395 248 523 Z " fill="#005E6A" transform="translate(1387,65)"/>
<path d="M0 0 C77.55 0 155.1 0 235 0 C237.31 5.28 239.62 10.56 242 16 C245.75268138 22.98173279 250.26777097 29.12784191 255.0534668 35.41625977 C259.16724049 40.83466054 263.11273692 46.35471715 267 51.9375 C267.5882959 52.78199707 268.1765918 53.62649414 268.78271484 54.49658203 C269.9569557 56.18400723 271.13062818 57.8718281 272.30371094 59.56005859 C279.65079594 70.12810227 287.11756744 80.57670523 294.875 90.84765625 C298.242808 95.31064293 301.56165536 99.80899608 304.875 104.3125 C305.46152344 105.10914063 306.04804688 105.90578125 306.65234375 106.7265625 C309.5850414 110.71169431 312.51339325 114.69996716 315.4375 118.69140625 C321.62686408 127.12936718 327.8877647 135.5039058 334.25 143.8125 C339.01408732 150.03467144 343.70043388 156.28910816 348.21289062 162.69580078 C351.79676816 167.76506227 355.51617462 172.72798119 359.25 177.6875 C364.21992576 184.28904287 369.16555655 190.90660094 374.0625 197.5625 C374.63726074 198.34343018 375.21202148 199.12436035 375.80419922 199.92895508 C378.68204781 203.84164925 381.55532886 207.75765875 384.42578125 211.67578125 C390.61925938 220.11879809 396.88380562 228.49873554 403.25 236.8125 C408.01408732 243.03467144 412.70043388 249.28910816 417.21289062 255.69580078 C420.79676816 260.76506227 424.51617462 265.72798119 428.25 270.6875 C433.21992467 277.28904143 438.16567528 283.90651462 443.0625 290.5625 C443.63653564 291.34270508 444.21057129 292.12291016 444.80200195 292.92675781 C447.11223769 296.06854854 449.4208368 299.21154011 451.72949219 302.35449219 C458.27858134 311.26760676 464.85407489 320.15877575 471.5 329 C479.89200455 340.16407315 488.17188654 351.40934441 496.42578125 362.67578125 C502.61925938 371.11879809 508.88380562 379.49873554 515.25 387.8125 C520.01408732 394.03467144 524.70043388 400.28910816 529.21289062 406.69580078 C532.79676816 411.76506227 536.51617462 416.72798119 540.25 421.6875 C545.21992576 428.28904287 550.16555655 434.90660094 555.0625 441.5625 C555.63726074 442.34343018 556.21202148 443.12436035 556.80419922 443.92895508 C559.68204781 447.84164925 562.55532886 451.75765875 565.42578125 455.67578125 C571.61925938 464.11879809 577.88380562 472.49873554 584.25 480.8125 C589.01408732 487.03467144 593.70043388 493.28910816 598.21289062 499.69580078 C601.79676816 504.76506227 605.51617462 509.72798119 609.25 514.6875 C614.21992576 521.28904287 619.16555655 527.90660094 624.0625 534.5625 C624.63726074 535.34343018 625.21202148 536.12436035 625.80419922 536.92895508 C628.68204781 540.84164925 631.55532886 544.75765875 634.42578125 548.67578125 C640.61925896 557.11879752 646.88377608 565.49875839 653.25 573.8125 C658.08533326 580.1273009 662.84030272 586.47736771 667.42382812 592.97705078 C670.45809042 597.27136774 673.58531837 601.48850778 676.75 605.6875 C681.15907423 611.53781083 685.53292137 617.41226783 689.875 623.3125 C690.4613623 624.10889893 691.04772461 624.90529785 691.65185547 625.72583008 C694.58467276 629.71123766 697.51322006 633.69973076 700.4375 637.69140625 C706.62686408 646.12936718 712.8877647 654.5039058 719.25 662.8125 C724.01408732 669.03467144 728.70043388 675.28910816 733.21289062 681.69580078 C736.79676816 686.76506227 740.51617462 691.72798119 744.25 696.6875 C749.21992576 703.28904287 754.16555655 709.90660094 759.0625 716.5625 C759.63726074 717.34343018 760.21202148 718.12436035 760.80419922 718.92895508 C763.68204781 722.84164925 766.55532886 726.75765875 769.42578125 730.67578125 C775.61926075 739.11879996 781.88388555 747.4986728 788.25 755.8125 C793.41783499 762.56322575 798.48695528 769.35839023 803.37840271 776.31175232 C806.13822815 780.21243983 808.96190806 784.06491019 811.79296875 787.9140625 C812.29646851 788.59960205 812.79996826 789.2851416 813.31872559 789.99145508 C814.54530317 791.66134764 815.77257826 793.33072782 817 795 C817.01713019 735.48127815 817.03304925 675.96255605 817.04234314 616.4438324 C817.04255023 615.12103677 817.04255023 615.12103677 817.04276149 613.771518 C817.04575488 594.60306787 817.048525 575.4346177 817.05106533 556.2661675 C817.05231259 546.86502637 817.05360916 537.46388525 817.05493164 528.06274414 C817.0550624 527.12725191 817.05519316 526.19175967 817.05532788 525.22791919 C817.05958399 494.94352636 817.06709137 464.65913541 817.07629722 434.37474372 C817.08574561 403.23569717 817.0918891 372.09665166 817.09391499 340.95760371 C817.09420312 336.55247959 817.09452875 332.14735548 817.09487724 327.74223137 C817.09497838 326.44183198 817.09497838 326.44183198 817.09508156 325.11516189 C817.09626011 311.19863609 817.10088958 297.2821135 817.10683203 283.36558901 C817.11274174 269.35136053 817.11496238 255.33713522 817.11350138 241.32290555 C817.11274478 233.01201658 817.11473262 224.70113926 817.12079754 216.39025241 C817.12503113 210.15918169 817.1239387 203.92812198 817.12089889 197.6970508 C817.12047999 195.19460342 817.12171667 192.69215502 817.12488318 190.18970961 C817.14950731 169.50816989 817.1345173 148.68951561 814.6875 128.125 C814.55706299 127.00552979 814.42662598 125.88605957 814.29223633 124.73266602 C810.67231469 95.16114703 801.81514738 66.87776676 782 44 C781.34281982 43.22970459 781.34281982 43.22970459 780.67236328 42.44384766 C768.67653803 28.46095737 753.72797432 17.23486939 737.79296875 8.05859375 C736 7 736 7 735 6 C735 4.02 735 2.04 735 0 C827.73 0 920.46 0 1016 0 C1016 6 1016 6 1014.26953125 7.80078125 C1013.05330078 8.54908203 1013.05330078 8.54908203 1011.8125 9.3125 C1010.89597656 9.90289062 1009.97945312 10.49328125 1009.03515625 11.1015625 C1007.53275391 12.04128906 1007.53275391 12.04128906 1006 13 C996.36902263 19.35521818 987.57385902 26.28237371 979 34 C977.96746094 34.92232422 977.96746094 34.92232422 976.9140625 35.86328125 C944.09859271 66.90702379 935.89118814 114.74848818 934.69081211 157.84947872 C934.5993683 161.47692094 934.52259486 165.10453521 934.45033264 168.73240662 C934.41900519 170.26546068 934.41900519 170.26546068 934.38704485 171.82948553 C933.69382736 207.07532347 933.82336429 242.33433177 933.80144288 277.58534592 C933.79435499 288.65884687 933.78156689 299.7323397 933.76867336 310.80583516 C933.74504411 331.23037205 933.72576519 351.65491078 933.70907402 372.07945442 C933.69256277 392.26596389 933.67405141 412.45246994 933.65294075 432.63897514 C933.65096434 434.53044517 933.65096434 434.53044517 933.648948 436.46012672 C933.64224477 442.86550874 933.63550649 449.27089072 933.62875474 455.67627268 C933.58114924 500.89916877 933.53791891 546.12206792 933.49731445 591.3449707 C933.48749929 602.27435306 933.47766856 613.20373539 933.46777344 624.13311768 C933.46715964 624.81108832 933.46654584 625.48905897 933.46591344 626.18757418 C933.43728314 657.78759004 933.40614883 689.3876033 933.37438093 720.98761614 C933.37231502 723.04264759 933.37025019 725.09767904 933.36818558 727.15271049 C933.35449995 740.7731099 933.34077144 754.39350925 933.32701423 768.01390858 C933.29899629 795.75361114 933.27125037 823.49331397 933.2436676 851.23301697 C933.2417653 853.145635 933.2417653 853.145635 933.23982458 855.09689179 C933.1553463 940.06459021 933.07717163 1025.03229466 933 1110 C931.41468126 1109.37751966 929.83051329 1108.75210811 928.24682617 1108.12548828 C927.36451828 1107.77753204 926.48221039 1107.42957581 925.57316589 1107.07107544 C922.0009405 1105.58414337 918.66318048 1103.80165214 915.3125 1101.875 C914.63243896 1101.48739502 913.95237793 1101.09979004 913.25170898 1100.70043945 C905.9355809 1096.47253474 898.9445019 1091.80732882 892 1087 C891.00081543 1086.31381592 891.00081543 1086.31381592 889.98144531 1085.61376953 C873.60758339 1074.34852159 858.09919932 1062.01360812 842.73535156 1049.41943359 C841.19012594 1048.15551382 839.63847219 1046.89946211 838.0859375 1045.64453125 C827.21693114 1036.84352167 816.70332836 1027.6281604 806.39453125 1018.1796875 C804.37082071 1016.33754968 802.32375721 1014.53511863 800.25 1012.75 C795.12122904 1008.28838624 790.18690846 1003.61575939 785.23120117 998.96411133 C782.60009814 996.49631893 779.9633449 994.03495356 777.31860352 991.58178711 C768.05395364 982.97150602 759.00823687 974.16526122 750.07836914 965.20874023 C747.91082358 963.03575665 745.737875 960.86827637 743.56445312 958.70117188 C742.15592873 957.29198771 740.747714 955.88249394 739.33984375 954.47265625 C738.7043309 953.83916763 738.06881805 953.20567902 737.41404724 952.55299377 C733.61967275 948.73896403 730.0149135 944.80881312 726.50819397 940.7283783 C724.60382035 938.54598128 722.57836079 936.51632017 720.5 934.5 C717.17230537 931.21145472 714.04663559 927.83618376 711.00390625 924.28515625 C708.94319219 921.93521916 706.82525813 919.64966874 704.69213867 917.36572266 C699.64169795 911.95728995 694.83655063 906.44308379 690.203125 900.66796875 C687.93072182 897.91610462 685.55305169 895.30261857 683.125 892.6875 C678.88379019 888.07919939 675.00521972 883.28429105 671.1784668 878.33496094 C668.03209843 874.27691422 664.78135055 870.333946 661.4375 866.4375 C656.59692157 860.77432853 652.01309245 854.94012508 647.51806641 848.99951172 C645.74287144 846.66132472 643.95564639 844.33256285 642.16796875 842.00390625 C635.94274878 833.88347722 629.74809799 825.76092315 623.8671875 817.38696289 C620.04841446 811.98678156 616.02359807 806.74849416 612 801.5 C607.57509176 795.7280256 603.17982202 789.95239784 599 784 C594.87902189 778.13332365 590.55020304 772.43870284 586.1875 766.75 C581.19152322 760.23472432 576.27392837 753.67976426 571.5 747 C566.80214536 740.43017246 561.97404143 733.97410658 557.0625 727.5625 C548.99635308 717.03281977 541.12688479 706.36757408 533.29101562 695.66601562 C526.60936477 686.54636218 519.86908148 677.47960099 513 668.5 C504.95897686 657.98837925 497.10940059 647.34369567 489.29101562 636.66601562 C482.60936477 627.54636218 475.86908148 618.47960099 469 609.5 C460.95897686 598.98837925 453.10940059 588.34369567 445.29101562 577.66601562 C437.94811189 567.64383116 430.51264001 557.70274282 422.96142578 547.83642578 C417.99620759 541.33791947 413.12885387 534.77367691 408.29785156 528.17504883 C403.85518898 522.12220487 399.31621363 516.14752041 394.75 510.1875 C390.00430122 503.99122915 385.34541901 497.75935893 380.85742188 491.37451172 C376.45680048 485.15600595 371.79652275 479.13633213 367.1640625 473.08984375 C362.7127597 467.27147417 358.32740848 461.41100037 354 455.5 C349.05818871 448.75031236 344.02622322 442.07707221 338.9375 435.4375 C333.47804344 428.3110338 328.15285679 421.10808763 322.93115234 413.80615234 C318.09029957 407.06401342 313.06036289 400.47399729 308.01171875 393.88671875 C303.6105482 388.1365304 299.27779075 382.34246346 295 376.5 C290.07447611 369.77494119 285.06651345 363.11946776 280 356.5 C274.34932439 349.11731654 268.78976064 341.67640427 263.29785156 334.17504883 C258.85518898 328.12220487 254.31621363 322.14752041 249.75 316.1875 C245.00430122 309.99122915 240.34541901 303.75935893 235.85742188 297.37451172 C231.46738259 291.1709595 226.81935496 285.16497504 222.19702148 279.13378906 C216.79662256 272.07660227 211.49994277 264.94842589 206.25292969 257.77661133 C205.70668945 257.03048584 205.16044922 256.28436035 204.59765625 255.515625 C204.11820557 254.85852539 203.63875488 254.20142578 203.14477539 253.52441406 C202.08313378 252.03619618 202.08313378 252.03619618 201 251 C200.96568448 311.83585848 200.9338906 372.67171806 200.91531372 433.50758362 C200.91503761 434.40948897 200.91476149 435.31139433 200.91447701 436.24063015 C200.90848973 455.84643462 200.90294957 475.4522392 200.89786934 495.05804392 C200.8953749 504.67419402 200.89278176 514.29034409 200.89013672 523.90649414 C200.88974444 525.34179734 200.88974444 525.34179734 200.88934424 526.80609657 C200.88083759 557.76210123 200.86582702 588.71809853 200.84740556 619.67409874 C200.82849307 651.51343797 200.81621818 683.35277313 200.81217002 715.19211788 C200.8115938 719.70008546 200.81094253 724.20805302 200.81024551 728.71602058 C200.81011067 729.60316138 200.80997582 730.49030218 200.80983689 731.40432604 C200.80748314 745.62426158 200.79823338 759.84418447 200.78633593 774.06411488 C200.77449396 788.39662258 200.77008078 802.72911789 200.77299725 817.0616303 C200.77437462 824.8123769 200.77260567 832.56308965 200.76158905 840.31382942 C198.87080881 915.53920703 198.87080881 915.53920703 219 987 C219.556875 988.14339844 220.11375 989.28679688 220.6875 990.46484375 C226.77314017 1002.31212009 234.89041008 1012.34875879 244 1022 C244.62261719 1022.67546875 245.24523438 1023.3509375 245.88671875 1024.046875 C252.97056914 1031.4722947 261.18340288 1037.62688117 269.83984375 1043.09375 C270.66307129 1043.6187207 271.48629883 1044.14369141 272.33447266 1044.68457031 C273.96387595 1045.7139037 275.60538095 1046.72436781 277.25927734 1047.71386719 C278.00516113 1048.18469727 278.75104492 1048.65552734 279.51953125 1049.140625 C280.52657104 1049.75212402 280.52657104 1049.75212402 281.55395508 1050.37597656 C283 1052 283 1052 283 1058 C189.61 1058 96.22 1058 0 1058 C0 1052 0 1052 1.79736328 1050.13232422 C2.62993652 1049.6117041 3.46250977 1049.09108398 4.3203125 1048.5546875 C5.70234863 1047.66076294 5.70234863 1047.66076294 7.11230469 1046.7487793 C8.10649414 1046.13043213 9.10068359 1045.51208496 10.125 1044.875 C19.40727274 1038.83348225 27.89642998 1032.53667614 36 1025 C36.88558594 1024.195625 37.77117188 1023.39125 38.68359375 1022.5625 C72.7104434 990.28742264 80.60428157 942.80013721 82 898 C82.16656205 888.74234784 82.14151876 879.48263403 82.13466892 870.2238065 C82.13301593 866.48005677 82.13719301 862.73631238 82.14057809 858.99256444 C82.14570185 852.44795756 82.14715458 845.90335807 82.14612198 839.35874939 C82.14459009 829.62567768 82.14877416 819.89261407 82.1539966 810.15954394 C82.16364472 791.7585526 82.16647991 773.35756405 82.16705366 754.95657048 C82.16751408 740.73865769 82.16957694 726.52074599 82.17275429 712.30283356 C82.1736519 708.20285901 82.17454172 704.10288445 82.17542917 700.0029099 C82.17565021 698.98349213 82.17587126 697.96407437 82.17609901 696.91376516 C82.18224949 668.2560211 82.18619996 639.59827743 82.18575573 610.94053268 C82.18574015 609.86104933 82.18572457 608.78156597 82.18570852 607.669371 C82.18562542 602.19873638 82.18552638 596.72810175 82.18542381 591.25746712 C82.18540387 590.17108098 82.18538392 589.08469484 82.18536337 587.96538791 C82.18532294 585.76845085 82.18528114 583.57151378 82.18523798 581.37457672 C82.18462559 547.21423178 82.19212662 513.05389678 82.20581055 478.89355469 C82.22119725 440.46710073 82.22977519 402.0406533 82.22884732 363.61419606 C82.2287727 359.51044925 82.22872399 355.40670244 82.22869301 351.30295563 C82.22868135 350.29259679 82.2286697 349.28223796 82.22865769 348.2412622 C82.22862702 332.03678434 82.23499167 315.83231516 82.24362527 299.62783988 C82.25213464 283.31827779 82.25306615 267.00872829 82.24651595 250.6991652 C82.24284197 241.03192032 82.24458767 231.3647139 82.25445829 221.69747316 C82.2605135 215.21466491 82.25910225 208.73188412 82.25198779 202.24907706 C82.2481523 198.57213273 82.24719381 194.89526208 82.25544515 191.21832332 C82.2860602 176.5752588 82.03347897 161.9970224 81.09392262 147.3849678 C81.01431267 146.14160366 80.93470273 144.89823952 80.85268037 143.61719768 C77.64202424 97.78015167 63.70650424 56.32059766 28.37890625 25.58984375 C23.3085058 21.35397305 18.03123721 17.59845926 12.40625 14.15234375 C11.62419189 13.66854248 10.84213379 13.18474121 10.03637695 12.6862793 C8.49830602 11.74578753 6.94752021 10.82570937 5.38354492 9.92895508 C4.68334229 9.50380615 3.98313965 9.07865723 3.26171875 8.640625 C2.63225342 8.27485352 2.00278809 7.90908203 1.35424805 7.53222656 C0 6 0 6 0 0 Z " fill="#005E6A" transform="translate(2357,65)"/>
<path d="M0 0 C109.23 0 218.46 0 331 0 C331 2.31 331 4.62 331 7 C329.71029297 7.69222656 329.71029297 7.69222656 328.39453125 8.3984375 C315.59325315 15.40700946 304.63577844 23.98985558 294 34 C293.33742188 34.598125 292.67484375 35.19625 291.9921875 35.8125 C259.74990231 66.09675167 251.4208387 112.76234141 250 155 C249.82612221 164.34720045 249.85857114 173.69712672 249.86533108 183.04561546 C249.86698028 186.86439691 249.86281006 190.68317307 249.85942191 194.50195277 C249.85429221 201.18127981 249.85284646 207.86059962 249.85387802 214.53992844 C249.85540833 224.47314476 249.8512293 234.40635312 249.8460034 244.33956789 C249.83634985 263.11738733 249.83351989 281.89520403 249.83294634 300.67302565 C249.83248614 315.17992229 249.83042439 329.68681785 249.82724571 344.19371414 C249.82634811 348.37516137 249.8254583 352.5566086 249.82457083 356.73805583 C249.82434979 357.77769168 249.82412874 358.81732753 249.82390099 359.88846749 C249.81774965 389.11850264 249.81380013 418.34853741 249.81424427 447.57857323 C249.81425985 448.67984953 249.81427543 449.78112584 249.81429148 450.91577415 C249.81437458 456.49701397 249.81447362 462.07825379 249.81457619 467.65949361 C249.81459613 468.76787038 249.81461608 469.87624714 249.81463663 471.01821108 C249.81467706 473.25961847 249.81471886 475.50102585 249.81476202 477.74243324 C249.81537452 512.60059117 249.80787169 547.45873938 249.79418945 582.31689453 C249.77880952 621.51604938 249.77022439 660.71519782 249.77115268 699.91435587 C249.7712273 704.09894665 249.77127601 708.28353743 249.77130699 712.4681282 C249.77131865 713.49841384 249.7713303 714.52869947 249.77134231 715.59020588 C249.77137301 732.12846381 249.76500296 748.66671325 249.75637473 765.20496866 C249.74787381 781.84404656 249.74692732 798.48311212 249.75348405 815.122191 C249.75716354 824.99022705 249.75539553 834.85822546 249.74554171 844.72625749 C249.73950098 851.33787291 249.74088214 857.94946134 249.74801221 864.56107557 C249.75185955 868.31490438 249.75277018 872.06866086 249.74455485 875.8224843 C249.64579146 924.24406697 252.36497822 976.87262942 286 1015 C286.7321875 1015.85335937 287.464375 1016.70671875 288.21875 1017.5859375 C295.83754516 1026.30462914 304.14281512 1033.55306435 313.5625 1040.25 C314.60664063 1040.9932251 314.60664063 1040.9932251 315.671875 1041.75146484 C320.60178347 1045.18875797 325.6983452 1048.17307004 331 1051 C331 1053.31 331 1055.62 331 1058 C221.77 1058 112.54 1058 0 1058 C0 1052 0 1052 1.35424805 1050.46777344 C1.98371338 1050.10200195 2.61317871 1049.73623047 3.26171875 1049.359375 C3.96208252 1048.93398437 4.66244629 1048.50859375 5.3840332 1048.0703125 C6.14417725 1047.63460938 6.90432129 1047.19890625 7.6875 1046.75 C9.26046345 1045.79079205 10.83075423 1044.82718854 12.3984375 1043.859375 C13.18057617 1043.38048828 13.96271484 1042.90160156 14.76855469 1042.40820312 C46.99625018 1022.07020011 67.15314008 990.57749953 76 954 C76.16725586 953.30922363 76.33451172 952.61844727 76.50683594 951.90673828 C82.34011594 927.06198334 82.15301153 901.32094535 82.13466892 875.9605859 C82.13301971 872.14269306 82.13718995 868.32480552 82.14057809 864.50691444 C82.14570779 857.82911774 82.14715354 851.15132829 82.14612198 844.47352982 C82.14459166 834.5425356 82.14877072 824.61154934 82.1539966 814.68055668 C82.16365026 795.90661629 82.16648012 777.13267864 82.16705366 758.35873606 C82.16751387 743.8542317 82.16957568 729.3497284 82.17275429 714.84522438 C82.17365189 710.66435442 82.1745417 706.48348447 82.17542917 702.30261451 C82.17565021 701.26311781 82.17587126 700.22362111 82.17609901 699.15262451 C82.18225042 669.92616276 82.18619986 640.69970138 82.18575573 611.47323895 C82.18574015 610.37208786 82.18572457 609.27093677 82.18570852 608.13641747 C82.18562542 602.55582561 82.18552638 596.97523376 82.18542381 591.3946419 C82.18540387 590.28639633 82.18538392 589.17815076 82.18536337 588.036322 C82.18532294 585.79517955 82.18528114 583.55403709 82.18523798 581.31289464 C82.18462553 546.46144056 82.19212745 511.60999622 82.20581055 476.75854492 C82.22119197 437.56560642 82.22977551 398.37267433 82.22884732 359.17973262 C82.2287727 354.99540476 82.22872399 350.8110769 82.22869301 346.62674904 C82.22867553 345.08142173 82.22867553 345.08142173 82.22865769 343.50487568 C82.228627 326.97053457 82.23499598 310.43620196 82.24362527 293.90186338 C82.25212808 277.26500859 82.25307123 260.62816615 82.24651595 243.99131038 C82.24283765 234.12570637 82.24460084 224.26014002 82.25445829 214.39454006 C82.26050216 207.7832694 82.25911446 201.17202572 82.25198779 194.56075624 C82.24814302 190.80794456 82.24722205 187.05520518 82.25544515 183.30239888 C82.32139652 150.99775433 81.75914174 117.82094753 71 87 C70.78118164 86.36835938 70.56236328 85.73671875 70.33691406 85.0859375 C61.59695796 60.42632261 45.82256491 38.84325591 25 23 C24.40993164 22.55092285 23.81986328 22.1018457 23.21191406 21.63916016 C16.281252 16.39196557 9.50096028 11.34925048 1.66015625 7.51171875 C1.11230469 7.01285156 0.56445312 6.51398438 0 6 C0 4.02 0 2.04 0 0 Z " fill="#005E6A" transform="translate(3551,65)"/>
<path d="M0 0 C109.23 0 218.46 0 331 0 C328.36 9.57 325.72 19.14 323 29 C321.80029982 34.22777013 320.65189682 39.36376712 319.6875 44.625 C319.32942261 46.52693115 319.32942261 46.52693115 318.96411133 48.46728516 C316.63893815 61.24182636 315.11732815 74.06837342 314 87 C313.92942383 87.78407227 313.85884766 88.56814453 313.78613281 89.37597656 C305.8466811 181.07874426 334.30953892 274.48636076 416 443 C416.67229854 444.1613074 417.34432384 445.32277302 418.01611328 446.484375 C426.25358946 460.71931087 434.61102416 474.85318995 443.51660156 488.68359375 C445.08586976 491.13409023 446.63442806 493.59679935 448.1796875 496.0625 C466.00617258 524.43834278 485.25601662 551.93163569 505 579 C505.57782227 579.79325684 506.15564453 580.58651367 506.75097656 581.40380859 C519.00055971 598.45989607 519.00055971 598.45989607 532.3671875 614.6328125 C534 617 534 617 534.125 619.0078125 C532.40314385 622.05693276 529.76882182 623.83671423 527 625.875 C525.71716238 626.84947603 524.43598542 627.82614106 523.15625 628.8046875 C522.47820313 629.3212793 521.80015625 629.83787109 521.1015625 630.37011719 C517.49943495 633.16377466 514.00458764 636.08561678 510.5 639 C504.8350409 643.69414957 499.11424862 648.29791735 493.30859375 652.81640625 C488.63900995 656.464851 484.06359115 660.22013828 479.5 664 C474.38520713 668.23640268 469.24098268 672.42065504 464 676.5 C458.80694681 680.54469015 453.70012894 684.68335135 448.625 688.875 C447.91899658 689.45580322 447.21299316 690.03660645 446.4855957 690.63500977 C442.80188207 693.66907541 439.1401041 696.72551953 435.50390625 699.81640625 C434.06516775 701.02351329 432.62636792 702.23054724 431.1875 703.4375 C430.52379395 704.01161621 429.86008789 704.58573242 429.17626953 705.17724609 C424.53870052 709.04048416 424.53870052 709.04048416 421.98583984 708.84863281 C419.58171511 707.82124929 418.565707 706.71068232 416.93359375 704.67578125 C416.37148193 703.98411865 415.80937012 703.29245605 415.23022461 702.57983398 C414.34282593 701.45750366 414.34282593 701.45750366 413.4375 700.3125 C412.50659546 699.15826538 412.50659546 699.15826538 411.55688477 697.98071289 C409.69294031 695.66281356 407.84367822 693.33403977 406 691 C405.49984375 690.36739258 404.9996875 689.73478516 404.484375 689.08300781 C402.68877879 686.80698874 400.89765314 684.52762071 399.11499023 682.24145508 C395.63367994 677.78037102 392.07826451 673.38357063 388.5 669 C383.99232786 663.47666343 379.55157233 657.90815403 375.1640625 652.2890625 C371.12080938 647.12398193 366.98152753 642.04000757 362.83374023 636.95874023 C359.36106518 632.69689091 355.94173694 628.39868899 352.5625 624.0625 C348.46062077 618.8024431 344.25421962 613.63749637 340 608.5 C335.28702568 602.8085006 330.65547156 597.06675554 326.11328125 591.23828125 C322.63146023 586.77910696 319.07751928 582.38265769 315.5 578 C310.99232786 572.47666343 306.55157233 566.90815403 302.1640625 561.2890625 C298.66223753 556.81563292 295.09188836 552.40132798 291.5 548 C287.4502431 543.03762183 283.44200507 538.048419 279.5 533 C274.41402155 526.48770583 269.20903861 520.0763363 263.98828125 513.671875 C261.01583171 510.02458406 258.07700432 506.35135699 255.14453125 502.671875 C252.90129084 499.8770181 250.63935364 497.09806375 248.375 494.3203125 C243.24272548 488.023772 238.16414533 481.69257157 233.16479492 475.29003906 C229.66277027 470.81624841 226.09214568 466.40164329 222.5 462 C217.99240027 456.47660315 213.55157358 450.90815564 209.1640625 445.2890625 C205.66223753 440.81563292 202.09188836 436.40132798 198.5 432 C194.4502431 427.03762183 190.44200507 422.048419 186.5 417 C181.41402155 410.48770583 176.20903861 404.0763363 170.98828125 397.671875 C168.01583171 394.02458406 165.07700432 390.35135699 162.14453125 386.671875 C159.90129084 383.8770181 157.63935364 381.09806375 155.375 378.3203125 C150.24272548 372.023772 145.16414533 365.69257157 140.16479492 359.29003906 C136.66277027 354.81624841 133.09214568 350.40164329 129.5 346 C124.99240027 340.47660315 120.55157358 334.90815564 116.1640625 329.2890625 C112.66223753 324.81563292 109.09188836 320.40132798 105.5 316 C101.4502431 311.03762183 97.44200507 306.048419 93.5 301 C88.41402155 294.48770583 83.20903861 288.0763363 77.98828125 281.671875 C75.01583171 278.02458406 72.07700432 274.35135699 69.14453125 270.671875 C66.90129084 267.8770181 64.63935364 265.09806375 62.375 262.3203125 C57.24272548 256.023772 52.16414533 249.69257157 47.16479492 243.29003906 C43.66277027 238.81624841 40.09214568 234.40164329 36.5 230 C31.99602695 224.4810471 27.55761853 218.91794348 23.17504883 213.30224609 C19.05327216 208.03482381 14.83472075 202.84826635 10.58984375 197.6796875 C9.58726195 196.45430974 8.59692912 195.21876563 7.62153053 193.97164154 C6.07897609 192.01131769 6.07897609 192.01131769 4.41428185 190.50571442 C-2.03721779 183.77247481 -0.7943232 174.88359063 -0.68115234 166.20117188 C-0.6793128 164.35793382 -0.6801179 162.51469154 -0.68334389 160.67145538 C-0.68469484 155.74880836 -0.6499986 150.82704184 -0.60768127 145.90460205 C-0.57343346 141.28044961 -0.57189844 136.656508 -0.56762695 132.03222656 C-0.53618132 118.52136839 -0.45241394 105.01067298 -0.375 91.5 C-0.25125 61.305 -0.1275 31.11 0 0 Z " fill="#F15922" transform="translate(54,65)"/>
<path d="M0 0 C0.81036713 0.00087616 1.62073425 0.00175232 2.45565796 0.00265503 C16.32862479 0.05190131 29.60224204 1.07890169 43.125 4.375 C44.09614746 4.61105957 45.06729492 4.84711914 46.06787109 5.09033203 C95.80457469 17.6194253 139.93752315 46.38849912 176.85520923 81.40187818 C179.05590222 83.45442913 181.32300242 85.32721663 183.71424973 87.15311593 C189.42863104 91.67498427 194.62199736 95.80521793 195.70354056 103.33904808 C195.96206141 107.13587072 195.9097967 110.89154355 195.80856323 114.6933136 C195.81467932 116.41635698 195.82695784 118.13938748 195.84481156 119.86234921 C195.87593771 124.56632578 195.82039285 129.26579175 195.7499187 133.96919382 C195.68920444 139.05216699 195.70993705 144.13490564 195.72055054 149.21813965 C195.72787578 158.01463458 195.68412125 166.80967073 195.60522079 175.60579872 C195.49122227 188.32310525 195.45495871 201.03970963 195.43738891 213.7574717 C195.40678198 234.39299449 195.3137064 255.02774053 195.18115234 275.6628418 C195.05255736 295.70251593 194.95350335 315.74197874 194.89404297 335.78198242 C194.89036484 337.01817018 194.88668671 338.25435794 194.88289712 339.52800594 C194.864626 345.72987593 194.84693423 351.93174742 194.82953048 358.1336199 C194.68450209 409.54794997 194.43801152 460.96143701 194.125 512.375 C192.05448251 513.34021073 189.98290656 514.30315112 187.91088867 515.26513672 C186.18064705 516.06985916 186.18064705 516.06985916 184.41545105 516.89083862 C180.48422355 518.66402288 176.53765724 520.1735785 172.4375 521.5 C171.68041748 521.74588867 170.92333496 521.99177734 170.14331055 522.24511719 C133.38188956 533.87198522 95.57705525 532.08617646 59.125 520.375 C58.43905762 520.15505371 57.75311523 519.93510742 57.04638672 519.70849609 C22.81152597 508.43000659 -7.9625814 488.00070081 -34.875 464.375 C-35.6071875 463.74207031 -36.339375 463.10914063 -37.09375 462.45703125 C-39.0326467 460.7758847 -40.95447071 459.07709122 -42.875 457.375 C-43.58414551 456.75069092 -44.29329102 456.12638184 -45.02392578 455.4831543 C-51.24319475 449.95584498 -57.20294055 444.20253889 -63.0715332 438.30883789 C-64.56804925 436.80693075 -66.069883 435.31048938 -67.57226562 433.81445312 C-72.88431632 428.50639522 -78.0029759 423.09312431 -82.875 417.375 C-83.89618818 416.21806279 -84.91959728 415.06308179 -85.9453125 413.91015625 C-93.50679166 405.3402348 -100.53590771 396.46266323 -107.39648438 387.32519531 C-108.71798155 385.58211086 -110.06048537 383.86042272 -111.421875 382.1484375 C-124.00238231 366.2377959 -134.76072585 348.93198022 -144.875 331.375 C-145.36709961 330.52389648 -145.85919922 329.67279297 -146.36621094 328.79589844 C-179.40705801 271.20550852 -198.15699373 203.91756097 -181.62988281 138.15576172 C-178.03020079 124.89561351 -172.47437789 112.39562415 -165.875 100.375 C-165.52711426 99.74110352 -165.17922852 99.10720703 -164.82080078 98.45410156 C-147.08358897 66.61641519 -119.05106293 41.65171064 -87.875 23.375 C-87.27397461 23.01954102 -86.67294922 22.66408203 -86.05371094 22.29785156 C-59.81976335 6.97193045 -30.21351641 -0.08025302 0 0 Z " fill="#F15922" transform="translate(909.875,286.625)"/>
<path d="M0 0 C0.93270638 0.00262701 1.86541276 0.00525403 2.82638296 0.00796065 C3.81185867 0.0068068 4.79733437 0.00565296 5.81267297 0.00446415 C9.15899744 0.00178921 12.50527507 0.00632681 15.85159716 0.01075396 C18.25721894 0.01031844 20.66284068 0.00944388 23.06846216 0.00816479 C28.32147323 0.00638713 33.57446992 0.00774455 38.82747874 0.011803 C46.63859283 0.01782114 54.44969975 0.01814038 62.26081574 0.01726101 C75.39833304 0.01594495 88.53584532 0.01929671 101.67336115 0.02527842 C114.68737279 0.03118875 127.70138233 0.03504301 140.7153953 0.03613123 C141.92765245 0.03623434 141.92765245 0.03623434 143.16439964 0.03633953 C147.26843687 0.03667785 151.37247409 0.03697924 155.47651132 0.03726641 C184.57044903 0.03936867 213.66438401 0.04611119 242.75832018 0.05556902 C271.02850233 0.06474849 299.29868372 0.07183453 327.56886706 0.07607684 C328.43977013 0.07620836 329.3106732 0.07633989 330.20796727 0.0764754 C338.9536698 0.07779388 347.69937234 0.0790697 356.44507488 0.08031426 C374.2622128 0.0828507 392.07935067 0.08567195 409.89648852 0.08866534 C411.12538265 0.08887127 411.12538265 0.08887127 412.37910292 0.08908137 C437.49823056 0.09330575 462.61735773 0.0987377 487.73648486 0.10535845 C488.80654689 0.10563979 488.80654689 0.10563979 489.89822635 0.10592681 C518.79828713 0.11354339 547.69834756 0.12243643 576.59840807 0.13100848 C576.59840807 46.66100848 576.59840807 93.19100848 576.59840807 141.13100848 C569.86411488 140.00862628 569.86411488 140.00862628 566.55934557 138.71303973 C565.45816393 138.29042864 565.45816393 138.29042864 564.3347362 137.85927996 C563.55549792 137.55707537 562.77625964 137.25487078 561.97340807 136.94350848 C527.09519449 123.83720374 490.43883748 116.88326763 453.16090807 116.94350848 C452.463203 116.94411272 451.76549792 116.94471697 451.04665026 116.94533953 C438.81073025 116.97390859 426.73541461 117.50961859 414.59840807 119.13100848 C413.67253893 119.25459734 412.74666979 119.37818621 411.79274401 119.50552019 C348.95054367 128.26604998 287.86636309 155.64715184 241.07497057 198.86538348 C239.02312073 200.74247008 236.94179853 202.56475484 234.83668932 204.38100848 C223.80361918 214.01370761 213.57432824 224.5627648 204.59840807 236.13100848 C203.65085237 237.29228838 202.70011212 238.45097437 201.74684557 239.60757098 C194.77517335 248.10078086 188.4488756 256.83161365 182.59840807 266.13100848 C182.13466784 266.86384051 181.6709276 267.59667254 181.19313464 268.3517116 C151.82533562 315.08123548 137.16759658 366.17320062 128.55754504 420.21572527 C127.6527934 425.86981324 126.66000135 431.50441203 125.59840807 437.13100848 C120.59766819 435.46409518 118.18426517 430.96205525 114.99977526 426.90200457 C113.57622973 425.10298031 112.12475738 423.3295834 110.66872057 421.55678973 C54.5897738 352.35996067 15.03583234 265.26051201 -14.40159193 112.13100848 C-14.4721681 111.35692644 -14.54274427 110.58284441 -14.61545911 109.78530535 C-17.77881645 74.20171964 -16.04695962 35.8259951 -7.40159193 1.13100848 C-5.4717387 -0.79884475 -2.56867283 0.00688908 0 0 Z " fill="#F15922" transform="translate(527.4015919268131,64.8689915239811)"/>
<path d="M0 0 C3.46108537 1.48443842 5.68513626 3.44630233 8.3125 6.125 C9.03050781 6.84945312 9.74851562 7.57390625 10.48828125 8.3203125 C12.45197706 10.41532856 14.3356373 12.53573151 16.20800781 14.71020508 C19.72172273 18.73350221 23.40134154 22.54656549 27.18359375 26.31640625 C27.84279312 26.97656235 28.50199249 27.63671844 29.1811676 28.31687927 C30.56396835 29.70035506 31.94801076 31.08259083 33.33325195 32.46362305 C35.43230343 34.55731669 37.5259594 36.65629874 39.61914062 38.75585938 C40.97363786 40.10969571 42.32844531 41.46322175 43.68359375 42.81640625 C44.29843124 43.43326797 44.91326874 44.0501297 45.54673767 44.6856842 C49.31710173 48.43615557 53.20584211 51.9991045 57.23370361 55.47181702 C59.64119076 57.5547522 61.97423867 59.71492655 64.3125 61.875 C68.74631311 65.91402153 73.28054584 69.77506878 77.94921875 73.5390625 C80.17288674 75.33280236 82.38198478 77.13872383 84.58203125 78.9609375 C157.52425556 139.18014285 247.51527708 180.77260383 343.83642578 172.23071289 C368.56302369 169.65406769 392.48743744 163.98307481 416 156 C416.96615234 155.67725098 417.93230469 155.35450195 418.92773438 155.02197266 C436.12203335 149.20177853 452.27327619 141.33729997 468.46810913 133.20957947 C472.89383068 131 472.89383068 131 474 131 C474 213.5 474 296 474 381 C354.54 381 235.08 381 112 381 C114.15878988 376.68242023 116.56838745 374.73352608 120.3125 371.9375 C121.58625666 370.96305307 122.85835375 369.98643355 124.12890625 369.0078125 C124.7748877 368.51055664 125.42086914 368.01330078 126.08642578 367.50097656 C129.04154823 365.18302647 131.89805965 362.75549255 134.75 360.3125 C139.28182414 356.44059092 143.87300632 352.66131486 148.54296875 348.95703125 C153.96252073 344.64034517 159.30265253 340.22391923 164.6484375 335.81640625 C172.00936283 329.76145154 179.48875622 323.86644587 187 318 C186.34 316.68 185.68 315.36 185 314 C183.20755859 314.41572266 183.20755859 314.41572266 181.37890625 314.83984375 C179.77349691 315.20598974 178.16802475 315.5718604 176.5625 315.9375 C175.77939453 316.11990234 174.99628906 316.30230469 174.18945312 316.49023438 C139.20389136 324.40877716 103.17160325 314.67947407 73.23828125 295.90527344 C60.76557502 287.84951749 49.15721877 278.78546681 38 269 C36.93060181 268.06522827 36.93060181 268.06522827 35.83959961 267.11157227 C29.15991311 261.1926147 22.81811806 254.97201353 16.52172852 248.65209961 C14.80792767 246.9329133 13.08880918 245.21917417 11.36914062 243.50585938 C5.69953247 237.84003747 0.16707042 232.13464757 -5 226 C-5.93766979 224.91698738 -6.87643946 223.83492587 -7.81640625 222.75390625 C-19.09734179 209.66842791 -30.06048203 196.33440489 -40.67333984 182.70166016 C-42.94008287 179.79418889 -45.22075465 176.89767334 -47.5 174 C-50.23103042 170.52691001 -52.96027547 167.05251067 -55.6796875 163.5703125 C-61.09946411 156.6380401 -66.60014151 149.7789578 -72.16357422 142.96142578 C-76.11230493 138.11467162 -79.9885508 133.2164174 -83.8359375 128.2890625 C-87.86924976 123.13668094 -91.99832048 118.06520159 -96.13549805 112.99609375 C-101.51056615 106.39850228 -106.76755158 99.71095588 -112 93 C-108.50924899 89.42598337 -104.88893873 86.08958505 -101.0625 82.875 C-100.50111328 82.40126953 -99.93972656 81.92753906 -99.36132812 81.43945312 C-94.73428895 77.56052881 -89.99952899 73.83117144 -85.23266602 70.12646484 C-81.23870284 67.00979157 -77.34756332 63.79523671 -73.5 60.5 C-69.08421883 56.71811442 -64.59075444 53.06741856 -60 49.5 C-54.23508808 45.01804245 -48.64383922 40.36447734 -43.08984375 35.625 C-38.45573246 31.67394719 -33.72404695 27.84259212 -29 24 C-27.16620121 22.50056908 -25.33287057 21.00056542 -23.5 19.5 C-20.70520838 17.21226343 -17.9092471 14.92604865 -15.109375 12.64453125 C-10.01683657 8.49119048 -4.96605384 4.30391333 0 0 Z " fill="#F15922" transform="translate(630,735)"/>
<path d="M0 0 C5.62811791 5.62811791 5.62811791 5.62811791 7.9453125 8.49609375 C8.45900391 9.12966797 8.97269531 9.76324219 9.50195312 10.41601562 C10.03755859 11.08310547 10.57316406 11.75019531 11.125 12.4375 C11.69412109 13.14197266 12.26324219 13.84644531 12.84960938 14.57226562 C16.88843037 19.58364552 20.87295017 24.63616506 24.83447266 29.70874023 C28.87779435 34.87488258 33.01791994 39.95931555 37.16625977 45.04125977 C40.63893482 49.30310909 44.05826306 53.60131101 47.4375 57.9375 C51.53937923 63.1975569 55.74578038 68.36250363 60 73.5 C64.71064042 79.18868092 69.33963869 84.92777854 73.88012695 90.75292969 C78.50790605 96.67879615 83.261299 102.50048043 88.01171875 108.328125 C90.98416829 111.97541594 93.92299568 115.64864301 96.85546875 119.328125 C99.09870916 122.1229819 101.36064636 124.90193625 103.625 127.6796875 C108.75727452 133.976228 113.83585467 140.30742843 118.83520508 146.70996094 C122.87864984 151.87540869 127.01821527 156.95967735 131.16625977 162.04125977 C134.63893482 166.30310909 138.05826306 170.60131101 141.4375 174.9375 C145.53937923 180.1975569 149.74578038 185.36250363 154 190.5 C158.71297432 196.1914994 163.34452844 201.93324446 167.88671875 207.76171875 C171.36853869 212.22089165 174.92242356 216.61739025 178.5 221 C182.53210829 225.93942126 186.51810853 230.90819236 190.4375 235.9375 C194.53937923 241.1975569 198.74578038 246.36250363 203 251.5 C207.71297432 257.1914994 212.34452844 262.93324446 216.88671875 268.76171875 C220.36853869 273.22089165 223.92242356 277.61739025 227.5 282 C231.53210829 286.93942126 235.51810853 291.90819236 239.4375 296.9375 C243.53937923 302.1975569 247.74578038 307.36250363 252 312.5 C256.71297432 318.1914994 261.34452844 323.93324446 265.88671875 329.76171875 C269.36853869 334.22089165 272.92242356 338.61739025 276.5 343 C280.53210628 347.9394188 284.51820857 352.90811607 288.4375 357.9375 C292.55663302 363.22160969 296.78653217 368.40464617 301.0625 373.5625 C306.88109846 380.58173638 312.50766034 387.72328271 318 395 C316.44745266 399.08017013 313.53697245 401.37754422 310.25 404.0625 C309.38979248 404.77768799 309.38979248 404.77768799 308.51220703 405.50732422 C303.19612455 409.9011262 297.76689853 414.15049379 292.328125 418.390625 C288.49070816 421.38792322 284.72569409 424.46987711 280.96484375 427.5625 C272.39806442 434.60554388 263.80826291 441.61744436 255.0625 448.4375 C248.37609072 453.65578766 241.83768373 459.04557611 235.30078125 464.44921875 C226.22488568 471.95061967 217.09994911 479.38676658 207.8125 486.625 C202.73108279 490.58531658 197.79205516 494.68210916 192.89819336 498.87109375 C188.3893132 502.7129798 183.75680032 506.37853247 179.08544922 510.02001953 C174.65943571 513.47203951 170.30042871 516.99726127 165.96484375 520.5625 C157.39806442 527.60554388 148.80826291 534.61744436 140.0625 541.4375 C133.37609072 546.65578766 126.83768373 552.04557611 120.30078125 557.44921875 C111.22488568 564.95061967 102.09994911 572.38676658 92.8125 579.625 C87.73108279 583.58531658 82.79205516 587.68210916 77.89819336 591.87109375 C73.3893132 595.7129798 68.75680032 599.37853247 64.08544922 603.02001953 C59.65943571 606.47203951 55.30042871 609.99726127 50.96484375 613.5625 C41.85094668 621.05534818 32.69774453 628.49167582 23.38867188 635.7409668 C17.63846144 640.24009573 12.0228994 644.90087742 6.42016602 649.58178711 C5.38267212 650.44429077 5.38267212 650.44429077 4.32421875 651.32421875 C3.3974231 652.0989856 3.3974231 652.0989856 2.4519043 652.8894043 C1 654 1 654 0 654 C0 438.18 0 222.36 0 0 Z " fill="#F15922" transform="translate(54,462)"/>
<path d="M0 0 C4.02371101 2.96030167 7.01001703 6.29307938 10 10.25 C10.96354858 11.50099864 11.9284494 12.75095664 12.89453125 14 C13.39807129 14.65226563 13.90161133 15.30453125 14.42041016 15.9765625 C17.12566286 19.44196194 19.9071385 22.84478374 22.6875 26.25 C23.79571221 27.60926144 24.90378909 28.96863324 26.01171875 30.328125 C26.52911621 30.96298828 27.04651367 31.59785156 27.57958984 32.25195312 C29.39913874 34.49120546 31.20172548 36.74363871 33 39 C37.04056399 44.06782602 41.13367748 49.09242098 45.22485352 54.11938477 C48.14671046 57.71170692 51.05612678 61.3125466 53.9375 64.9375 C57.47368259 69.37258615 61.07772877 73.74983035 64.6875 78.125 C84.17342266 101.7534138 84.17342266 101.7534138 92.24609375 112.390625 C94.29464386 115.08949638 96.37796099 117.75867616 98.47265625 120.421875 C116.6325582 143.66887025 132.76743924 168.40038539 146.625 194.4375 C147.06408691 195.26209717 147.50317383 196.08669434 147.95556641 196.9362793 C148.55377197 198.07963745 148.55377197 198.07963745 149.1640625 199.24609375 C149.69700928 200.26207642 149.69700928 200.26207642 150.24072266 201.29858398 C151 203 151 203 151 205 C17.35 205 -116.3 205 -254 205 C-251.86913657 200.73827314 -249.56420231 198.82334724 -245.875 196.0625 C-244.60050794 195.08601026 -243.32711296 194.10808737 -242.0546875 193.12890625 C-241.38920898 192.61859863 -240.72373047 192.10829102 -240.03808594 191.58251953 C-236.64412503 188.94719914 -233.32456076 186.22196897 -230 183.5 C-224.47820348 178.99210016 -218.91029099 174.55213883 -213.29125977 170.16625977 C-208.79336154 166.64624854 -204.36014298 163.05143112 -199.9375 159.4375 C-194.1500513 154.71034725 -188.2818091 150.12160224 -182.33984375 145.58984375 C-177.82258932 142.11471951 -173.42459661 138.49267037 -169.01171875 134.88671875 C-164.71063392 131.37663802 -160.37623814 127.91582925 -156 124.5 C-150.95146314 120.55814969 -145.96237437 116.5497538 -141 112.5 C-135.47660315 107.99240027 -129.90815564 103.55157358 -124.2890625 99.1640625 C-119.81563292 95.66223753 -115.40132798 92.09188836 -111 88.5 C-105.47660315 83.99240027 -99.90815564 79.55157358 -94.2890625 75.1640625 C-89.81563292 71.66223753 -85.40132798 68.09188836 -81 64.5 C-76.03762183 60.4502431 -71.048419 56.44200507 -66 52.5 C-59.48770583 47.41402155 -53.0763363 42.20903861 -46.671875 36.98828125 C-43.02458406 34.01583171 -39.35135699 31.07700432 -35.671875 28.14453125 C-32.87593695 25.90042308 -30.09589803 23.63762574 -27.31713867 21.37231445 C-21.30832724 16.47485281 -15.28003929 11.60558723 -9.1875 6.8125 C-8.60709961 6.35512451 -8.02669922 5.89774902 -7.42871094 5.42651367 C-4.99941688 3.52259978 -2.56987009 1.71324673 0 0 Z " fill="#F15922" transform="translate(414,911)"/>
</svg>
