<?xml version="1.0" encoding="UTF-8"?>
<svg version="1.1" xmlns="http://www.w3.org/2000/svg" width="1200" height="454">
<path d="M0 0 C4.12407336 0.01556176 8.24807167 0.00199088 12.37214875 -0.00774431 C20.4299894 -0.02220378 28.48757638 -0.01010594 36.5453929 0.01136893 C45.94164377 0.03548407 55.33783782 0.03365821 64.73411277 0.03106302 C81.50381507 0.02738034 98.27339848 0.04813572 115.04306245 0.08231306 C131.29406955 0.11542076 147.54495199 0.12956688 163.79599214 0.12332869 C181.52344025 0.11655716 199.25083629 0.11904493 216.97827673 0.13868809 C217.91652289 0.13972757 218.85476905 0.14076706 219.82144691 0.14183804 C221.70551466 0.14392883 223.58958238 0.1460398 225.47365008 0.14817122 C232.01498806 0.1550509 238.55630993 0.15573881 245.09765077 0.15428877 C253.07199177 0.15284573 261.0462315 0.16260101 269.02053896 0.18623513 C273.08486304 0.1980539 277.14904637 0.20524779 281.21338677 0.19939756 C284.94024367 0.19419176 288.66680426 0.20303246 292.39361063 0.22267216 C294.36630287 0.22958978 296.33902993 0.22200613 298.31171703 0.21375084 C317.55679744 0.35961766 333.30848836 7.55495644 347.0259726 20.932899 C359.15784049 33.6979115 366.76782078 50.68519771 366.79021287 68.46160078 C366.79405401 69.61095043 366.79789516 70.76030008 366.8018527 71.94447851 C366.80098622 73.19757378 366.80011974 74.45066904 366.799227 75.74173689 C366.80181259 77.0939977 366.8048263 78.44625775 366.8082304 79.79851675 C366.8162811 83.5090537 366.8180889 87.21957129 366.81882787 90.93011594 C366.82068184 94.9344109 366.82823099 98.93869588 366.83496308 102.94298506 C366.84853411 111.69742143 366.85456946 120.45185321 366.85897374 129.20629835 C366.86173874 134.6763031 366.86597662 140.14630609 366.87047791 145.61630964 C366.88266992 160.77105298 366.89296875 175.92579491 366.89635301 191.08054304 C366.89657257 192.05015455 366.89679214 193.01976605 366.89701836 194.01875973 C366.89723664 194.99065259 366.89745491 195.96254544 366.89767981 196.9638896 C366.89812327 198.93321435 366.89856983 200.90253909 366.89901948 202.87186384 C366.89924091 203.84871075 366.89946234 204.82555765 366.89969048 205.83200598 C366.90363577 221.64901143 366.9210819 237.46597075 366.944379 253.28295839 C366.96812303 269.53505612 366.98055628 285.78713073 366.98172092 302.03924608 C366.98263607 311.15886209 366.98834773 320.278418 367.00654054 329.39801741 C367.02198288 337.16610917 367.02703775 344.93412226 367.01880243 352.70222646 C367.01491026 356.66143282 367.01575486 360.62048094 367.02985978 364.57966757 C367.04268557 368.21324965 367.04132611 371.84655601 367.02926907 375.48013818 C367.02641589 377.39816487 367.03818184 379.31619672 367.05069113 381.23418474 C366.9396288 400.95641617 360.4704428 420.18484493 346.6587851 434.62430525 C340.84508859 440.137472 334.82783425 444.37155193 327.7212851 447.99930525 C326.79255586 448.48149519 326.79255586 448.48149519 325.8450644 448.97342634 C315.46302872 454.02111956 304.95351291 455.06566749 293.54735017 455.00525618 C292.16032186 455.00872059 290.77329631 455.01349038 289.38627642 455.01943791 C285.60748146 455.0318702 281.8289161 455.02581333 278.05012071 455.01647925 C273.96209501 455.00965689 269.87410721 455.02018575 265.78608918 455.02841902 C257.79026251 455.04172506 249.79452055 455.0388925 241.79869062 455.0301811 C235.29688827 455.02339213 228.79510957 455.02249307 222.29330468 455.02575254 C221.36616258 455.02621224 220.43902048 455.02667194 219.48378317 455.02714557 C217.60000408 455.0281048 215.71622499 455.02907744 213.83244591 455.03006335 C196.18789345 455.0386082 178.54338782 455.02879757 160.89884304 455.01266225 C145.77754051 454.99926211 130.65630709 455.00158641 115.53500581 455.01541853 C97.95298046 455.03149417 80.37099612 455.03778198 62.78896445 455.02858174 C60.9120034 455.02762615 59.03504235 455.02668303 57.15808129 455.02575254 C56.23470935 455.02528972 55.31133741 455.02482689 54.35998451 455.02435004 C47.87075387 455.02176594 41.38154937 455.02611867 34.89232278 455.0331912 C26.97721367 455.04162858 19.06219376 455.03927929 11.14709479 455.02334897 C7.1130452 455.01549592 3.07914399 455.01232364 -0.95490432 455.02229643 C-4.6554381 455.03130595 -8.35568744 455.02620886 -12.0561958 455.01036377 C-14.01244314 455.00548167 -15.96871058 455.01515624 -17.92493647 455.02553546 C-35.62224188 454.90908343 -51.05065247 449.49823796 -64.3412149 437.62430525 C-65.02699615 437.01973494 -65.7127774 436.41516462 -66.4193399 435.792274 C-78.20460751 424.74920835 -86.26160917 408.46942874 -87.61738837 392.33839977 C-87.72800337 388.73114521 -87.74607939 385.13524102 -87.72889495 381.52632856 C-87.73307713 380.140725 -87.73855946 378.75512487 -87.74521476 377.36953098 C-87.75957244 373.59460411 -87.75545526 369.81989737 -87.74804795 366.04495895 C-87.74329436 361.9609798 -87.75584545 357.8770468 -87.76606536 353.79308271 C-87.78321642 345.80461149 -87.78410099 337.81621905 -87.77885246 329.82773419 C-87.77480234 323.33071532 -87.77626429 316.83371964 -87.78160071 310.33670187 C-87.78234914 309.41013722 -87.78309756 308.48357256 -87.78386866 307.52893019 C-87.78540022 305.64628256 -87.78693857 303.76363494 -87.78848363 301.88098732 C-87.80219551 284.24591514 -87.79678039 266.61088738 -87.78529841 248.97581623 C-87.77536919 232.86561794 -87.78830368 216.75553456 -87.81223261 200.645354 C-87.83665428 184.07777792 -87.84622383 167.51025529 -87.83957988 150.94266158 C-87.83609425 141.65150807 -87.83827621 132.36044288 -87.85583091 123.06930304 C-87.87059138 115.15935681 -87.87113837 107.24956108 -87.85376 99.33961769 C-87.84527883 95.30932646 -87.84302919 91.27930363 -87.85841155 87.24902678 C-87.87235571 83.54955061 -87.8673726 79.85057031 -87.84817231 76.15112213 C-87.84269304 74.20032235 -87.85660228 72.24949668 -87.87152642 70.29874629 C-87.72800466 52.8542718 -81.95707218 36.77039522 -70.3412149 23.62430525 C-69.62320708 22.80059431 -68.90519927 21.97688337 -68.16543365 21.1282115 C-49.3157991 0.85945553 -25.87409984 -0.13233596 0 0 Z M-26.3412149 49.62430525 C-34.42245913 60.14998905 -35.79593796 71.92364646 -35.72216582 84.83806562 C-35.72684579 86.11462583 -35.73152577 87.39118605 -35.73634756 88.7064299 C-35.74876632 92.21545433 -35.74272936 95.72423115 -35.7333889 99.23325598 C-35.726561 103.03085327 -35.73709801 106.82840994 -35.74532866 110.62599897 C-35.75862814 118.05165453 -35.75580532 125.47721882 -35.74709074 132.90287787 C-35.74030015 138.94035768 -35.73940341 144.97781202 -35.74266219 151.01529455 C-35.74312189 151.87640543 -35.74358159 152.7375163 -35.74405522 153.62472145 C-35.74501445 155.374344 -35.74598709 157.12396655 -35.74697299 158.87358909 C-35.75551566 175.25717726 -35.74571014 191.64071496 -35.72957189 208.02429485 C-35.71616734 222.06717838 -35.71850011 236.10998751 -35.73232818 250.1528697 C-35.74839974 266.48162352 -35.7546943 282.81033319 -35.74549139 299.13909382 C-35.74453579 300.88177311 -35.74359268 302.62445241 -35.74266219 304.36713171 C-35.74219936 305.22444643 -35.74173654 306.08176115 -35.74125969 306.9650551 C-35.7386747 312.9923575 -35.74303012 319.01963179 -35.75010085 325.04692984 C-35.75853347 332.39629667 -35.75619867 339.74556743 -35.74025862 347.09492332 C-35.73239991 350.84114114 -35.72924309 354.58719905 -35.73920608 358.33341551 C-35.74986133 362.40159107 -35.73709828 366.46936642 -35.72216582 370.53752851 C-35.72885799 371.71127769 -35.73555015 372.88502687 -35.74244511 374.0943442 C-35.65408343 386.53350204 -32.8260469 397.55327374 -24.26699615 406.886024 C-14.32379338 416.27393446 -4.87205633 417.82727213 8.38119721 417.86453962 C10.42663858 417.87409664 12.47100765 417.90506982 14.51620698 417.93680525 C36.55233797 418.11592692 54.94957474 411.5809211 71.3462851 396.49930525 C82.87454372 384.47520756 88.29849782 369.12600951 88.1341269 352.65311384 C87.87403967 345.51826895 86.40957577 339.22982231 83.6587851 332.62430525 C83.3081601 331.74516462 82.9575351 330.866024 82.5962851 329.96024275 C80.01691318 324.17456822 76.48695016 319.81463143 72.1353476 315.24149275 C70.24811389 313.2470975 68.46609956 311.23532355 66.6875937 309.14823103 C62.42095461 304.26265288 57.84657297 299.69820178 53.24322724 295.13358259 C51.68404784 293.58737785 50.1281989 292.03788629 48.57309175 290.4875865 C45.27115375 287.19697542 41.96528095 283.91033563 38.6587851 280.62430525 C34.82167035 276.8109402 30.98626836 272.99588376 27.15509248 269.17655134 C25.63569045 267.66354473 24.11326808 266.15362555 22.59066987 264.6438365 C17.93040026 260.00781473 13.41379041 255.31172418 9.13656831 250.31803083 C7.13670486 248.02593557 4.98654329 245.92357345 2.7837851 243.82743025 C1.94460542 243.01403181 1.10542573 242.20063337 0.24081635 241.3625865 C-1.50456376 239.68057874 -3.25739539 238.00627438 -5.01699615 236.339149 C-5.84586333 235.53090681 -6.67473052 234.72266462 -7.5287149 233.88993025 C-8.28539458 233.16579939 -9.04207427 232.44166853 -9.82168365 231.69559431 C-11.3412149 229.62430525 -11.3412149 229.62430525 -11.25188994 227.83084822 C-9.9451914 224.66475018 -7.70078285 222.59954935 -5.28994536 220.24832869 C-4.50192283 219.46205847 -4.50192283 219.46205847 -3.69798064 218.659904 C-1.95831841 216.92743183 -0.20837952 215.20572735 1.5415976 213.48368025 C2.75723958 212.27618012 3.97214392 211.06793697 5.18634248 209.85898542 C8.38961612 206.67284305 11.60133501 203.49535735 14.81534028 200.32004499 C19.93997567 195.25451984 25.05221162 190.17649279 30.16357255 185.09757948 C31.94152463 183.33346088 33.72331493 181.57329553 35.50573945 179.81369734 C40.56249039 174.80889636 45.52096535 169.7837108 50.13922334 164.36450911 C52.67973237 161.45511528 55.44778063 158.7896793 58.2212851 156.104774 C59.44308629 154.9053594 60.66442635 153.70547492 61.8853476 152.50516462 C63.76971312 150.65775225 65.65690102 148.81363031 67.55233979 146.97757673 C76.84956879 137.95684974 85.04467661 129.1640122 89.5337851 116.74930525 C89.92308198 115.70000837 90.31237885 114.6507115 90.7134726 113.56961775 C95.90715988 97.38763343 92.39961893 81.13400209 84.90365815 66.40091658 C78.14711697 53.75001674 66.54249597 43.64170597 52.66684175 39.40726423 C42.1470395 36.66909316 31.53415706 36.30104547 20.73544526 36.36356306 C18.52862524 36.37433042 16.32261272 36.36357014 14.11581635 36.35086775 C-1.62169892 36.33470991 -15.1661805 37.5700756 -26.3412149 49.62430525 Z M124.6587851 36.62430525 C124.91047456 37.13702986 125.16216401 37.64975447 125.42148042 38.17801619 C141.40198788 70.88605757 146.25381149 104.9036208 134.25595307 139.95951033 C128.67084358 155.22006883 120.11278784 166.27917555 108.6587851 177.62430525 C107.18043497 179.10298663 105.70258673 180.58216994 104.22519135 182.06180525 C102.02688949 184.26223541 99.82587199 186.45897034 97.60800385 188.63968611 C94.40933986 191.79583912 91.31680771 194.97005546 88.40487885 198.3938365 C85.41016429 201.87567653 82.2018305 205.09951954 78.9087851 208.29618025 C78.40161454 208.79074217 77.89444398 209.28530409 77.37190461 209.79485273 C75.2634424 211.84911955 73.15358448 213.90139834 71.02548432 215.9353404 C69.45435517 217.44019716 67.89935832 218.96022607 66.3462851 220.48368025 C65.42202729 221.37538923 64.49776948 222.26709822 63.54550385 223.18582869 C61.46982375 225.37815951 61.46982375 225.37815951 61.58798432 227.651649 C63.05353108 230.35151625 64.90177847 232.1836857 67.1040976 234.32743025 C68.01675385 235.22590681 68.9294101 236.12438337 69.8697226 237.0500865 C70.84063751 237.99194578 71.81199442 238.93334961 72.7837851 239.87430525 C83.51300117 250.35297644 83.51300117 250.35297644 87.0884726 254.55399275 C90.0097851 257.97592814 93.13914045 261.1523712 96.3462851 264.30399275 C96.85690492 264.80672712 97.36752473 265.3094615 97.89361787 265.82743025 C100.01112992 267.90867691 102.13126134 269.98705106 104.26132417 272.05545759 C113.01107548 280.56648178 120.3959319 289.26835275 125.7837851 300.31180525 C126.28398164 301.3318968 126.28398164 301.3318968 126.79428315 302.37259626 C140.7348172 331.53877045 140.87171261 362.07394496 130.3931601 392.245399 C128.53676648 397.47746329 126.61231246 402.68132118 124.63266206 407.86795759 C123.49645296 411.08375121 122.58494209 414.34255518 121.6587851 417.62430525 C142.05215453 417.69451617 162.44549929 417.74735249 182.8389647 417.77974176 C192.30889396 417.79518318 201.77874793 417.81622037 211.24862885 417.85062361 C219.50659186 417.88060964 227.76450031 417.89990004 236.02251625 417.90657073 C240.39143577 417.91046745 244.76019929 417.91956794 249.12906861 417.94149542 C253.24945823 417.96200631 257.36962903 417.96810986 261.49006486 417.96362829 C262.99439015 417.96444701 264.4987235 417.97032514 266.00300431 417.98192167 C281.80984406 418.24854506 281.80984406 418.24854506 295.6587851 411.62430525 C295.04792558 411.01566633 294.43706605 410.40702742 293.80769563 409.7799449 C288.02388604 404.01625355 282.24254593 398.25009869 276.4638989 392.48123121 C273.49365684 389.51618608 270.52250101 386.55206931 267.54916596 383.59012556 C264.6745534 380.72645607 261.80246021 377.86028117 258.93202615 374.99242353 C257.84180543 373.90403663 256.75071168 372.81652342 255.65869164 371.72994184 C250.40526099 366.50161307 245.25359007 361.25356332 240.43040681 355.61954451 C236.67961262 351.39531775 232.60761084 347.47382327 228.5962851 343.49930525 C227.63627136 342.54371155 226.67656057 341.58781341 225.71713471 340.63162947 C222.70052141 337.62632975 219.67996914 334.62500913 216.6587851 331.62430525 C213.15208359 328.14137514 209.64711044 324.65674023 206.14636445 321.16782331 C204.75993171 319.78777391 203.37041212 318.41082781 201.98080659 317.03397322 C197.6393156 312.70920065 193.47665566 308.32324657 189.48520112 303.67557478 C185.71088136 299.4365914 181.62663519 295.49267305 177.5962851 291.49930525 C176.63627136 290.54371155 175.67656057 289.58781341 174.71713471 288.63162947 C171.70052141 285.62632975 168.67996914 282.62500913 165.6587851 279.62430525 C162.15208359 276.14137514 158.64711044 272.65674023 155.14636445 269.16782331 C153.75993171 267.78777391 152.37041212 266.41082781 150.98080659 265.03397322 C146.54475515 260.61500435 142.27024823 256.13561201 138.19195771 251.38455915 C136.02641401 248.89827239 133.71952418 246.57286582 131.38144135 244.24930525 C130.45653901 243.32762556 129.53163667 242.40594587 128.57870698 241.4563365 C127.62628943 240.51226918 126.6738148 239.56825943 125.7212851 238.62430525 C124.741232 237.64928138 123.7614127 236.67402245 122.78183198 235.698524 C120.40976198 233.33813907 118.0353765 230.9801362 115.6587851 228.62430525 C116.9998784 224.64359715 118.65008002 222.26827681 121.63022065 219.32816267 C122.44834733 218.51349028 123.26647401 217.69881788 124.1093924 216.85945845 C124.99580918 215.99166258 125.88222596 215.12386671 126.79550385 214.229774 C128.19061913 212.84477132 129.58573194 211.45976615 130.98070455 210.07461977 C132.93515882 208.13768308 134.89644345 206.20773291 136.85769868 204.2776866 C140.27126538 200.91618627 143.67532093 197.54506931 147.0774405 194.17198896 C148.88619954 192.38004433 150.69804224 190.59120512 152.51344514 188.80599165 C156.84063292 184.52944298 160.97343331 180.18432071 164.93504548 175.56868696 C168.08423204 172.01639827 171.50439624 168.73847629 174.9009726 165.4250865 C176.47824753 163.87020635 178.05505583 162.31485273 179.63144135 160.75907087 C182.07745172 158.34998788 184.52630232 155.94410681 186.98349214 153.54642439 C204.07735872 136.84597443 218.07147572 120.94815385 218.7603476 95.93680525 C217.92936028 78.20907569 210.79989622 63.19018187 198.11874604 50.93875837 C182.08466569 36.50272348 162.03805832 36.28249482 141.7212851 36.49930525 C140.05527495 36.50936981 138.38925881 36.51848943 136.72323823 36.526649 C132.70160182 36.54835348 128.68026267 36.58268499 124.6587851 36.62430525 Z M250.6587851 36.62430525 C251.17827729 37.66586775 251.69776948 38.70743025 252.23300385 39.78055525 C267.22186153 70.36631595 271.44839949 104.85973521 260.6587851 137.62430525 C254.61985466 154.66796232 244.63261474 167.27386618 231.88925385 179.74930525 C230.67762778 180.9508952 229.46697874 182.15347107 228.25725007 183.35697126 C225.10619939 186.48732529 221.94373243 189.60586646 218.7780478 192.72141218 C213.69263769 197.73082232 208.62637994 202.75962481 203.55785775 207.78610945 C201.79725517 209.52913343 200.03244984 211.26780351 198.26674104 213.0056529 C197.18407303 214.07509912 196.10145422 215.14459516 195.01889253 216.214149 C194.53312242 216.69003965 194.0473523 217.16593031 193.54686189 217.65624189 C190.68674986 220.4886746 188.11447394 223.43578289 185.6587851 226.62430525 C186.96821615 229.51939709 188.36145011 231.57023062 190.62045503 233.79715681 C191.21835343 234.39167646 191.81625184 234.98619612 192.43226838 235.59873152 C193.40097619 236.54724989 193.40097619 236.54724989 194.38925385 237.51493025 C195.39222253 238.51009657 195.39222253 238.51009657 196.4154532 239.52536726 C198.55436592 241.64648931 200.6998213 243.76082693 202.8462851 245.87430525 C204.9740727 247.97430232 207.1003234 250.07579657 209.22355866 252.18039656 C210.5430592 253.48783068 211.86522115 254.79258668 213.19056916 256.09409285 C216.24067751 259.11174018 219.17093636 262.17066392 221.96469331 265.42801619 C225.98991246 270.08939948 230.33149866 274.41066555 234.70395112 278.74463606 C236.19592753 280.22362434 237.68456064 281.70591027 239.17245698 283.18900251 C242.33173276 286.33695774 245.49494533 289.48093794 248.6587851 292.62430525 C252.33069299 296.27245308 256.00088068 299.92229869 259.66684175 303.57642317 C261.11976418 305.02295593 262.57570791 306.46639692 264.03183198 307.90970564 C268.5179408 312.37930957 272.84615194 316.89879189 276.96866059 321.70487165 C280.0746809 325.23230391 283.4177115 328.52560439 286.7447226 331.84305525 C287.48711183 332.5864012 288.22950105 333.32974714 288.99438691 334.09561872 C290.54779604 335.64970312 292.10244764 337.2025465 293.65829682 338.75418806 C296.05156181 341.14204176 298.43937251 343.53525808 300.82675385 345.92899275 C302.34075576 347.4423348 303.85506733 348.95536714 305.3697226 350.46805525 C306.44460435 351.54597334 306.44460435 351.54597334 307.54120088 352.64566755 C308.19923707 353.30055159 308.85727326 353.95543562 309.53524995 354.63016462 C310.4062584 355.49997969 310.4062584 355.49997969 311.29486299 356.38736677 C312.47536363 357.73626908 312.47536363 357.73626908 313.6587851 357.62430525 C313.75039092 320.86728329 313.82084935 284.11027856 313.86304642 247.35316549 C313.8680491 243.01117218 313.8732264 238.66917909 313.87851167 234.32718611 C313.88008553 233.0305968 313.88008553 233.0305968 313.88169119 231.70781378 C313.89908447 217.72164674 313.93061622 203.73554564 313.96739629 189.74941768 C314.0048357 175.39256113 314.0270273 161.03573905 314.03513908 146.67883569 C314.04062064 137.82371205 314.05791788 128.96877479 314.09045097 120.11370853 C314.11163592 114.03697874 314.11797617 107.96034496 314.11279061 101.88358095 C314.11023499 98.38040451 314.11408262 94.8775532 314.135607 91.37443495 C314.15556625 87.56824129 314.15070144 83.76283915 314.13980317 79.95662642 C314.15728022 78.31212579 314.15728022 78.31212579 314.17511034 76.63440293 C314.08668713 65.17556883 310.59796533 55.95393696 302.6587851 47.62430525 C288.52050939 34.20492491 268.70790585 36.46234903 250.6587851 36.62430525 Z " fill="#00519C" transform="translate(87.34121489524841,-0.624305248260498)"/>
<path d="M0 0 C165.88526037 0 165.88526037 0 188 6 C189.2478125 6.33644531 190.495625 6.67289063 191.78125 7.01953125 C219.8964921 15.52018671 241.3253152 32.93622929 255.4296875 58.6015625 C265.75758725 79.32151045 269.29576405 107.73483122 262.1953125 129.85546875 C260.34888235 134.71290755 258.40602606 139.39070289 256 144 C255.52046875 144.94101563 255.0409375 145.88203125 254.546875 146.8515625 C249.81759798 155.55251392 243.59101908 162.6838606 237 170 C240.11940692 173.17461766 243.31066858 176.16568098 246.6875 179.0625 C267.61402435 197.94590215 282.66393349 225.91696383 284.17700195 254.32299805 C284.24451033 258.11126686 284.29875219 261.8986815 284.3125 265.6875 C284.31511841 266.3757486 284.31773682 267.06399719 284.32043457 267.77310181 C284.32522954 279.56376671 283.17349555 290.61791819 280 302 C279.71125 303.09441406 279.4225 304.18882812 279.125 305.31640625 C271.44277288 331.07244451 253.49656309 351.98249877 230.28515625 365.16015625 C164.45855566 400.71175495 55.34794862 382 0 382 C0 255.94 0 129.88 0 0 Z M72 67 C72 94.06 72 121.12 72 149 C90.51555028 149.20360298 90.51555028 149.20360298 109.03125 149.34179688 C116.58335798 149.38364273 124.13487189 149.43314448 131.68652344 149.52807617 C137.77495709 149.60413479 143.86275376 149.64599079 149.95162582 149.6641407 C152.27453516 149.67707479 154.59740962 149.70233264 156.92004776 149.7401104 C160.17418992 149.79093401 163.42570059 149.79792327 166.68017578 149.79467773 C168.12055962 149.83242813 168.12055962 149.83242813 169.59004211 149.87094116 C174.59857345 149.83823365 174.59857345 149.83823365 178.88988876 147.52044868 C182.36727477 143.56566809 184.93618288 139.02441999 187.25 134.3125 C187.59353516 133.61624512 187.93707031 132.91999023 188.29101562 132.20263672 C191.10581505 126.24646648 192.57469858 120.59689761 193 114 C193.06832031 113.16210938 193.13664062 112.32421875 193.20703125 111.4609375 C193.77124535 98.29594179 188.99537227 88.28692528 180.3125 78.75 C167.68757807 66.722849 149.59292736 66.55181354 133.23046875 66.70703125 C131.65515462 66.71145472 130.07983605 66.71450746 128.5045166 66.71618652 C122.73210949 66.73176903 116.95979742 66.77365208 111.1875 66.8125 C98.255625 66.874375 85.32375 66.93625 72 67 Z M72 216 C72 248.67 72 281.34 72 315 C91.490625 315.061875 91.490625 315.061875 111.375 315.125 C115.43989746 315.14320801 119.50479492 315.16141602 123.69287109 315.18017578 C127.41682267 315.18687487 127.41682267 315.18687487 131.14077759 315.19088745 C132.76749779 315.19390858 134.39421425 315.20083486 136.02090454 315.21115112 C157.84746624 315.3423486 181.22787172 315.03503991 198.1875 299.375 C207.26571567 289.67196787 211.66828622 278.22968197 212.375 265 C211.64335453 250.76339863 206.46954119 238.58056902 196.65625 228.29296875 C181.31451744 215.04944373 160.53002925 215.54679051 141.43359375 215.70703125 C139.64392377 215.71145722 137.85424986 215.71450841 136.0645752 215.71618652 C129.52215651 215.73174002 122.97982166 215.77362246 116.4375 215.8125 C101.773125 215.874375 87.10875 215.93625 72 216 Z " fill="#00529C" transform="translate(498,35)"/>
<path d="M0 0 C175.70056726 0 175.70056726 0 193.875 4.25 C194.82713379 4.46688477 195.77926758 4.68376953 196.76025391 4.90722656 C226.44499281 11.94427645 253.2101857 28.14895793 269.88623047 54.16748047 C287.59400356 83.30262838 289.64034735 120.28279918 281.734375 152.80883789 C274.10192676 182.08132128 255.03484907 206.83501993 229.01904297 222.16748047 C206.7846856 235 206.7846856 235 196 235 C201.40715556 243.8151867 207.33394648 252.21334651 213.32470703 260.63623047 C216.23593514 264.74385369 219.11663273 268.87279611 222 273 C226.31878719 279.17702781 230.64892521 285.34567229 235 291.5 C239.35107602 297.65432945 243.68089344 303.82319417 248 310 C254.30697922 319.01872145 260.64646222 328.01403927 267 337 C271.00442529 342.66355464 275.00447107 348.33016561 279 354 C279.89549561 355.2694043 279.89549561 355.2694043 280.80908203 356.56445312 C282.68751818 359.22886009 284.56284005 361.89543514 286.4375 364.5625 C287.01677246 365.38339111 287.59604492 366.20428223 288.19287109 367.05004883 C288.74668457 367.83919678 289.30049805 368.62834473 289.87109375 369.44140625 C290.35505615 370.12920166 290.83901855 370.81699707 291.33764648 371.52563477 C293.64658056 374.9624165 295.82149017 378.47953271 298 382 C286.96046874 382.30201487 275.92192888 382.53259129 264.87909889 382.67355824 C259.75042849 382.74124033 254.62459561 382.83292395 249.49755859 382.98071289 C244.54356712 383.12261003 239.59229254 383.19981931 234.63642502 383.23340416 C232.75189815 383.25731487 230.86751036 383.30401562 228.98414993 383.37449074 C214.63790456 383.88967448 214.63790456 383.88967448 210.24078751 380.73978043 C206.73273008 377.27246111 204.38833677 373.28330323 202 369 C200.88475302 367.37840319 199.7560276 365.76578917 198.6015625 364.171875 C197.60580884 362.70032349 196.61362361 361.2263511 195.625 359.75 C194.51275158 358.1073731 193.39944817 356.46546011 192.28515625 354.82421875 C191.73617676 354.0151709 191.18719727 353.20612305 190.62158203 352.37255859 C188.14017635 348.7419804 185.60586382 345.14983876 183.0625 341.5625 C178.68739502 335.3894663 174.33474041 329.20145723 170 323 C163.6931954 313.98115724 157.35353705 304.9859597 151 296 C138.76508053 278.69586021 138.76508053 278.69586021 133.79101562 271.54736328 C132.59581553 269.84742901 131.38341806 268.15945853 130.15429688 266.48388672 C127.20805125 262.4276565 124.733915 258.64660064 122.8515625 253.98828125 C120.49094454 248.32018982 120.49094454 248.32018982 113 242 C99.8 241.67 86.6 241.34 73 241 C73 287.53 73 334.06 73 382 C48.91 382 24.82 382 0 382 C0 255.94 0 129.88 0 0 Z M73 67 C73 102.31 73 137.62 73 174 C86.426875 174.04125 99.85375 174.0825 113.6875 174.125 C117.90233154 174.14320801 122.11716309 174.16141602 126.4597168 174.18017578 C130.29019766 174.18687113 130.29019766 174.18687113 134.12068176 174.19088745 C135.8059546 174.19392691 137.49122353 174.20089386 139.1764679 174.21115112 C160.23992553 174.33276872 179.33980706 172.00260184 196 158 C207.86894898 146.1118456 211.78566804 131.36067319 212 115 C211.36060526 101.00435952 204.87934288 89.66346258 194.81640625 80.33984375 C183.37472265 70.83420092 169.80119206 66.82299873 155.07885742 66.88647461 C154.17624585 66.88635407 153.27363428 66.88623354 152.34367085 66.88610935 C149.43091148 66.88685389 146.51821663 66.89446124 143.60546875 66.90234375 C141.80358918 66.90381459 140.00170918 66.90483443 138.1998291 66.90539551 C131.52904621 66.91063193 124.85827246 66.92459318 118.1875 66.9375 C103.275625 66.958125 88.36375 66.97875 73 67 Z " fill="#00519C" transform="translate(806,35)"/>
<path d="M0 0 C24.75 0 49.5 0 75 0 C75 126.06 75 252.12 75 382 C50.25 382 25.5 382 0 382 C0 255.94 0 129.88 0 0 Z " fill="#00529B" transform="translate(1125,35)"/>
</svg>
