<?xml version="1.0" encoding="UTF-8"?>
<svg version="1.1" xmlns="http://www.w3.org/2000/svg" width="1500" height="1500">
<path d="M0 0 C1.43005364 0.0022225 2.86010735 0.00439901 4.29016113 0.00653076 C24.50193045 0.04827889 44.46974693 0.33266124 64.5 3.3125 C65.92804562 3.51865358 67.35610623 3.72470338 68.78417969 3.93066406 C117.88313012 11.10892178 165.4034105 24.46867227 210.5 45.3125 C211.95913818 45.97934814 211.95913818 45.97934814 213.44775391 46.65966797 C255.90466844 66.12116103 296.6801584 92.4001833 331.09375 124.1171875 C333.12670597 125.9719298 335.18485428 127.78488005 337.26171875 129.58984375 C348.66483878 139.5460021 359.44163154 150.00454895 369.5 161.3125 C370.42968827 162.3214156 371.36203655 163.32788582 372.296875 164.33203125 C378.30222868 170.78460313 383.98799781 177.4316231 389.5 184.3125 C390.41042701 185.42011935 391.32193843 186.526848 392.234375 187.6328125 C448.32883742 256.06203511 483.2926493 340.73474 496.3125 427.875 C496.60483521 429.81366943 496.60483521 429.81366943 496.90307617 431.79150391 C500.11776658 454.42326441 500.8752709 476.97802793 500.8125 499.8125 C500.8102775 501.24255364 500.80810099 502.67260735 500.80596924 504.10266113 C500.76422111 524.31443045 500.47983876 544.28224693 497.5 564.3125 C497.29384642 565.74054562 497.08779662 567.16860623 496.88183594 568.59667969 C489.70357822 617.69563012 476.34382773 665.2159105 455.5 710.3125 C455.05543457 711.28525879 454.61086914 712.25801758 454.15283203 713.26025391 C434.69133897 755.71716844 408.4123167 796.4926584 376.6953125 830.90625 C374.8405702 832.93920597 373.02761995 834.99735428 371.22265625 837.07421875 C361.2664979 848.47733878 350.80795105 859.25413154 339.5 869.3125 C338.4910844 870.24218827 337.48461418 871.17453655 336.48046875 872.109375 C330.02789687 878.11472868 323.3808769 883.80049781 316.5 889.3125 C315.39238065 890.22292701 314.285652 891.13443843 313.1796875 892.046875 C244.75046489 948.14133742 160.07776 983.1051493 72.9375 996.125 C71.64505371 996.31989014 70.35260742 996.51478027 69.02099609 996.71557617 C46.38923559 999.93026658 23.83447207 1000.6877709 1 1000.625 C-0.43005364 1000.6227775 -1.86010735 1000.62060099 -3.29016113 1000.61846924 C-23.50193045 1000.57672111 -43.46974693 1000.29233876 -63.5 997.3125 C-64.92804562 997.10634642 -66.35610623 996.90029662 -67.78417969 996.69433594 C-116.88313012 989.51607822 -164.4034105 976.15632773 -209.5 955.3125 C-210.95913818 954.64565186 -210.95913818 954.64565186 -212.44775391 953.96533203 C-254.90466844 934.50383897 -295.6801584 908.2248167 -330.09375 876.5078125 C-332.12670597 874.6530702 -334.18485428 872.84011995 -336.26171875 871.03515625 C-347.66483878 861.0789979 -358.44163154 850.62045105 -368.5 839.3125 C-369.42968827 838.3035844 -370.36203655 837.29711418 -371.296875 836.29296875 C-377.30222868 829.84039687 -382.98799781 823.1933769 -388.5 816.3125 C-389.41042701 815.20488065 -390.32193843 814.098152 -391.234375 812.9921875 C-447.32883742 744.56296489 -482.2926493 659.89026 -495.3125 572.75 C-495.50739014 571.45755371 -495.70228027 570.16510742 -495.90307617 568.83349609 C-499.11776658 546.20173559 -499.8752709 523.64697207 -499.8125 500.8125 C-499.8102775 499.38244636 -499.80810099 497.95239265 -499.80596924 496.52233887 C-499.76422111 476.31056955 -499.47983876 456.34275307 -496.5 436.3125 C-496.29384642 434.88445438 -496.08779662 433.45639377 -495.88183594 432.02832031 C-488.70357822 382.92936988 -475.34382773 335.4090895 -454.5 290.3125 C-454.05543457 289.33974121 -453.61086914 288.36698242 -453.15283203 287.36474609 C-433.69133897 244.90783156 -407.4123167 204.1323416 -375.6953125 169.71875 C-373.8405702 167.68579403 -372.02761995 165.62764572 -370.22265625 163.55078125 C-360.2664979 152.14766122 -349.80795105 141.37086846 -338.5 131.3125 C-337.4910844 130.38281173 -336.48461418 129.45046345 -335.48046875 128.515625 C-329.02789687 122.51027132 -322.3808769 116.82450219 -315.5 111.3125 C-314.39238065 110.40207299 -313.285652 109.49056157 -312.1796875 108.578125 C-243.75046489 52.48366258 -159.07776 17.5198507 -71.9375 4.5 C-70.64505371 4.30510986 -69.35260742 4.11021973 -68.02099609 3.90942383 C-45.38923559 0.69473342 -22.83447207 -0.0627709 0 0 Z " fill="#00AED6" transform="translate(749.5,249.6875)"/>
<path d="M0 0 C1.62540208 -0.00323294 3.25080389 -0.00659832 4.87620544 -0.01008606 C8.2653775 -0.01601934 11.6545243 -0.01793237 15.04370117 -0.01733398 C18.44349562 -0.01725336 21.8431535 -0.02410387 25.24291992 -0.0378418 C56.25263531 -0.1611367 86.8377953 1.10992383 117.62109375 5.16796875 C118.81927734 5.32555664 120.01746094 5.48314453 121.25195312 5.64550781 C128.62864751 6.62459634 135.99843921 7.64589907 143.36425781 8.70361328 C146.27910917 9.11920903 149.19565296 9.51857142 152.11328125 9.9140625 C173.34031665 12.8866435 191.55587976 19.5585023 207.62109375 34.16796875 C208.31460937 34.76867187 209.008125 35.369375 209.72265625 35.98828125 C222.90062873 48.11621608 232.06646384 66.53205873 234.62109375 84.16796875 C234.651344 85.89844212 234.65894461 87.62939866 234.64892578 89.36010742 C234.64490753 90.2604924 234.64088928 91.16087738 234.63674927 92.08854675 C234.63158295 92.77475601 234.62641663 93.46096527 234.62109375 94.16796875 C233.9156614 94.1678064 233.21022905 94.16764405 232.48341995 94.16747677 C190.67209997 94.15861419 148.86089789 94.18094046 107.04962117 94.24375904 C102.02909347 94.25127507 97.00856542 94.25853056 91.98803711 94.265625 C90.98854195 94.26704175 89.9890468 94.2684585 88.95926391 94.26991819 C72.77637746 94.29223562 56.59355478 94.2934476 40.41065723 94.28685738 C23.80502336 94.28056489 7.1995236 94.29695885 -9.40606982 94.33440483 C-19.65235527 94.35679563 -29.89833521 94.36149909 -40.14463074 94.34356539 C-47.17127933 94.3329622 -54.19767694 94.34439896 -61.22427391 94.37313028 C-65.27814774 94.38905659 -69.33142444 94.39530036 -73.38529396 94.37536049 C-77.0999726 94.35730387 -80.81352347 94.36704719 -84.52810318 94.39850758 C-86.50179986 94.40810379 -88.47557266 94.38830101 -90.44918102 94.36730778 C-98.23709439 94.46872514 -103.63393138 95.67476765 -109.37890625 101.16796875 C-111.08633476 103.46077077 -112.16882994 105.54613675 -113.37890625 108.16796875 C-113.70890625 108.82796875 -114.03890625 109.48796875 -114.37890625 110.16796875 C-115.43520365 117.30552116 -113.59503366 122.41555382 -109.37890625 128.16796875 C-104.57527453 132.85150968 -100.01495021 134.41716365 -93.37351513 134.42130184 C-91.55505055 134.42972494 -91.55505055 134.42972494 -89.69984931 134.43831819 C-88.357857 134.43446873 -87.0158652 134.43044102 -85.6738739 134.42625427 C-84.24552921 134.42910914 -82.81718605 134.43284727 -81.38884574 134.43739277 C-77.46325713 134.44737985 -73.53775781 134.44499863 -69.61216247 134.44066584 C-65.37808354 134.43819083 -61.14402815 134.44725672 -56.90995789 134.45504761 C-49.57034083 134.46709842 -42.23074549 134.47220088 -34.891119 134.472929 C-24.2618073 134.474255 -13.63254823 134.48937103 -3.00325511 134.50842417 C14.26483188 134.53927909 31.5329202 134.56343572 48.80102539 134.58129883 C49.83473486 134.58237151 50.86844432 134.58344419 51.93347832 134.58454937 C63.45375896 134.59635723 74.97404013 134.60656324 86.49432373 134.61499023 C90.66524253 134.61806386 94.83616131 134.62115271 99.00708008 134.62426758 C100.03619447 134.62503292 101.06530886 134.62579826 102.12560854 134.62658679 C119.31561473 134.63969103 136.50558301 134.66436502 153.69556111 134.69801098 C164.28986505 134.71825257 174.88408774 134.72859705 185.47841116 134.72602177 C192.7488779 134.72498275 200.01928065 134.73468683 207.28972504 134.7526608 C211.47801275 134.76265638 215.6661588 134.76788765 219.85445404 134.75989342 C223.69975675 134.7526417 227.54478524 134.75945822 231.39005341 134.77677882 C233.41698545 134.78241524 235.44394247 134.7735312 237.47085935 134.7638759 C268.14326447 134.96711894 295.66251682 148.19733424 317.30859375 169.41796875 C332.58000073 184.89642598 343.45560763 203.93843943 348.62109375 225.16796875 C348.88365967 226.19631836 349.14622559 227.22466797 349.41674805 228.28417969 C352.6690985 243.39858347 352.08755264 258.88186032 352.00781631 274.26225662 C351.99598855 276.68955872 351.98896561 279.11683587 351.98300171 281.54415894 C351.9128359 306.18186107 351.36878856 330.66214724 348.62109375 355.16796875 C348.53152405 355.97486145 348.44195435 356.78175415 348.34967041 357.61309814 C347.06702388 369.07049652 345.58269568 380.49409318 343.94464111 391.90582275 C343.62618402 394.13237908 343.31417538 396.35975979 343.00341797 398.58740234 C337.66866707 436.54801343 325.24075818 468.37867984 294.62109375 493.16796875 C285.66343722 499.81740043 275.94147987 504.98444034 265.62109375 509.16796875 C264.9883252 509.43206543 264.35555664 509.69616211 263.70361328 509.96826172 C233.97511574 521.98300316 197.34141748 521.67214989 165.76098633 523.9407959 C162.67154633 524.16431848 159.58286314 524.39668093 156.49414062 524.62988281 C90.33241006 529.5283965 22.74362664 529.57789168 -43.37890625 524.16796875 C-45.35447731 524.01104309 -47.3300634 523.85430651 -49.30566406 523.69775391 C-62.01349031 522.67803843 -74.69869489 521.48499859 -87.37890625 520.16796875 C-88.17401611 520.08675781 -88.96912598 520.00554688 -89.78833008 519.921875 C-130.88438425 515.72209281 -167.24268608 505.43195253 -194.79003906 472.47998047 C-201.29748717 464.30909838 -206.18974544 455.44072245 -210.54003906 445.97119141 C-211.26167123 444.41997627 -212.03075164 442.89099294 -212.80859375 441.3671875 C-226.28396294 413.11913097 -225.70703076 374.47415655 -228.12890625 343.73046875 C-228.18798157 342.98092926 -228.24705688 342.23138977 -228.30792236 341.45913696 C-229.7021221 323.4820182 -230.53615088 305.52373733 -230.58203125 287.4921875 C-230.58905852 285.7655383 -230.59614529 284.03888934 -230.60328674 282.3122406 C-230.62266798 276.82664611 -230.6277213 271.34109404 -230.62890625 265.85546875 C-230.62934811 264.91903282 -230.62978996 263.98259689 -230.63024521 263.01778412 C-230.63751082 233.62961951 -230.2131408 204.4419011 -227.37890625 175.16796875 C-227.28697998 174.20084961 -227.19505371 173.23373047 -227.1003418 172.23730469 C-225.72858311 157.85637367 -224.17230017 143.50250105 -222.37890625 129.16796875 C-222.29060547 128.46095825 -222.20230469 127.75394775 -222.11132812 127.0255127 C-217.63604138 91.62001012 -203.64555341 58.54267779 -174.98828125 35.83203125 C-155.12437723 20.81706003 -133.49010297 13.45410111 -109.06640625 9.66796875 C-108.09185989 9.51405167 -108.09185989 9.51405167 -107.09762573 9.35702515 C-83.00588079 5.56078318 -58.71022321 2.82644747 -34.37890625 1.16796875 C-33.16917145 1.08501556 -31.95943665 1.00206238 -30.71304321 0.91659546 C-20.4669962 0.24682905 -10.26603568 0.00494739 0 0 Z " fill="#FEFEFE" transform="translate(690.37890625,489.83203125)"/>
<path d="M0 0 C7.49755196 5.35894675 13.04783495 12.32383108 14.66796875 21.55859375 C15.94024607 33.10848631 11.52324813 42.48853181 4.66796875 51.55859375 C4.33796875 51.88859375 4.00796875 52.21859375 3.66796875 52.55859375 C3.56965742 54.89977525 3.53083796 57.21678963 3.52734375 59.55859375 C3.50899248 61.01824448 3.48942008 62.47788027 3.46875 63.9375 C3.43996271 66.23706813 3.41797366 68.53569017 3.41748047 70.83544922 C3.39167819 87.82440962 3.39167819 87.82440962 -2.33203125 94.55859375 C-7.58484685 99.28946991 -12.97959864 102.07977109 -20.21484375 101.875 C-26.44847188 100.94340613 -31.36661983 97.31708746 -35.33203125 92.55859375 C-38.14322225 87.88300564 -38.66669722 84.52915491 -38.5625 79.10546875 C-38.56039976 77.66666805 -38.55979652 76.22786453 -38.56054688 74.7890625 C-38.54611994 72.55264311 -38.51976576 70.31835767 -38.46606445 68.08251953 C-38.21052524 57.2416488 -38.21052524 57.2416488 -43.2265625 47.8203125 C-43.93272705 47.10061279 -44.6388916 46.38091309 -45.36645508 45.6394043 C-49.99281145 40.74182196 -51.53989575 34.59122542 -51.76953125 27.99609375 C-51.34532455 18.26670775 -47.5595812 9.52638966 -40.4453125 2.765625 C-28.9206456 -6.4042966 -12.73055795 -7.86863632 0 0 Z " fill="#01AED6" transform="translate(947.33203125,769.44140625)"/>
</svg>
