<?xml version="1.0" encoding="UTF-8"?>
<svg version="1.1" xmlns="http://www.w3.org/2000/svg" width="4060" height="1200">
<path d="M0 0 C0.87817383 0.17160645 1.75634766 0.34321289 2.66113281 0.52001953 C55.47543625 11.24582816 103.35131393 43.25675552 136 86 C137.04730644 87.3103333 138.09699803 88.61876206 139.1484375 89.92578125 C153.57970396 107.98815362 166.13094874 127.44164193 177.5859375 147.51171875 C182.43017679 155.97848574 187.39811185 163.74517786 194 171 C194.62132813 171.6909375 195.24265625 172.381875 195.8828125 173.09375 C220.89936596 199.47103649 259.0290733 213.87230254 294.8515625 215.28125 C316.35872317 215.78093234 336.4292072 212.06166477 357 206 C358.15371094 205.66742188 359.30742187 205.33484375 360.49609375 204.9921875 C370.26620362 201.69655947 378.92928527 195.93483016 387.7421875 190.6875 C393.44535427 187.30108007 399.22483165 184.08511764 405.0625 180.9375 C413.49079225 176.38332057 421.8516417 171.72340213 430.18383789 166.99584961 C437.27548257 162.97241208 444.38307704 158.97854426 451.5 155 C459.47102452 150.54298398 467.42942537 146.06471655 475.375 141.5625 C487.03601423 134.96035245 498.7461916 128.44845351 510.47021484 121.95898438 C513.44154964 120.31207896 516.40700423 118.65486197 519.3710022 116.99479675 C622.32876423 59.3529695 622.32876423 59.3529695 675.5 74.0625 C701.58501272 81.9102884 723.09863666 101.40110598 739.78515625 122.28125 C741.94705844 124.93501353 744.19244864 127.47249141 746.5 130 C750.36533345 134.24651686 754.01398246 138.6301311 757.625 143.09375 C760.16665273 146.20393032 762.7660466 149.25892214 765.375 152.3125 C769.62388348 157.30109161 773.71434946 162.39329722 777.73828125 167.56445312 C781.221115 172.03327221 784.78510131 176.42942811 788.375 180.8125 C799.4631775 194.39588655 809.94429625 208.44766786 820.26269531 222.62158203 C822.02620745 225.03587872 823.80603857 227.43761275 825.5859375 229.83984375 C826.70404896 231.37172187 827.82127458 232.90424705 828.9375 234.4375 C829.4641626 235.14132812 829.9908252 235.84515625 830.53344727 236.5703125 C834.02231455 241.41652352 834.02231455 241.41652352 833.92236328 244.0300293 C832.61441876 246.82351906 830.98103299 247.51247132 828.27734375 248.9609375 C827.27646729 249.50741943 826.27559082 250.05390137 825.24438477 250.61694336 C823.60747681 251.4871814 823.60747681 251.4871814 821.9375 252.375 C819.63174554 253.63215965 817.32708345 254.89132458 815.0234375 256.15234375 C814.4346431 256.47278152 813.84584869 256.7932193 813.23921204 257.12336731 C807.44611606 260.28126414 801.74924113 263.59300172 796.0625 266.9375 C794.07181055 268.10450101 792.08092317 269.27116445 790.08984375 270.4375 C789.0932373 271.02144531 788.09663086 271.60539062 787.06982422 272.20703125 C781.7667275 275.30437038 776.44605065 278.37113858 771.125 281.4375 C770.04484619 282.06003662 768.96469238 282.68257324 767.85180664 283.32397461 C765.66203666 284.58576826 763.47217645 285.84740534 761.28222656 287.10888672 C755.85340058 290.23680148 750.42680719 293.36858448 745 296.5 C742.83334417 297.75001879 740.6666775 299.00001878 738.5 300.25 C737.4275 300.86875 736.355 301.4875 735.25 302.125 C671.33333333 339 607.41666667 375.875 543.5 412.75 C542.42685547 413.36931396 541.35371094 413.98862793 540.24804688 414.62670898 C538.08856261 415.87217823 535.92840939 417.11648834 533.76757812 418.35961914 C528.23486815 421.54460027 522.71643422 424.75097676 517.21875 427.99609375 C499.4130968 438.4706889 481.86525241 447.2053806 462 453 C460.85144531 453.34160156 459.70289062 453.68320312 458.51953125 454.03515625 C429.83882381 461.13107351 397.82483302 455.25636313 372.57446289 440.42895508 C364.40339795 435.38710758 357.03617601 429.51465586 350 423 C349.4627832 422.50661133 348.92556641 422.01322266 348.37207031 421.50488281 C336.16169321 410.16408747 326.63691049 397.21283503 318.2734375 382.8515625 C298.44127775 348.91108787 272.44851272 314.84766372 241 291 C240.00226563 290.20851563 239.00453125 289.41703125 237.9765625 288.6015625 C185.98752337 247.47839972 121.88015171 231.3045386 56.22485352 238.453125 C-6.1470331 246.13634595 -65.17793741 271.21798399 -118.84277344 303.13916016 C-123.9351314 306.14054837 -129.07344111 309.06073367 -134.21154785 311.98278809 C-144.5321731 317.8528154 -154.81452242 323.7850929 -165.0625 329.78125 C-172.35900169 334.04883255 -179.6750282 338.28148956 -187 342.5 C-195.34802448 347.30844723 -203.68248303 352.13897095 -212 357 C-221.4099033 362.49945536 -230.84470563 367.95449196 -240.2890625 373.39453125 C-247.5395149 377.57349128 -254.77488269 381.77740506 -262 386 C-271.4099033 391.49945536 -280.84470563 396.95449196 -290.2890625 402.39453125 C-297.5395149 406.57349128 -304.77488269 410.77740506 -312 415 C-321.40675749 420.49761684 -330.83716254 425.95302009 -340.28027344 431.38793945 C-346.61821085 435.03864824 -352.93803459 438.71818979 -359.24414062 442.42358398 C-399.32762677 465.94561025 -437.16859974 485.3320236 -484.8125 473.1875 C-507.2654345 466.69048066 -526.18592548 456.13608765 -543 440 C-544.32257813 438.77216797 -544.32257813 438.77216797 -545.671875 437.51953125 C-556.66687228 427.00595334 -564.62284267 414.88438554 -572.30834961 401.83520508 C-584.45053286 381.29602408 -598.30794063 361.96453748 -614 344 C-614.70125 343.18660156 -615.4025 342.37320312 -616.125 341.53515625 C-626.46768981 329.76251121 -637.57167792 318.56164341 -650 309 C-650.95519531 308.22785156 -651.91039063 307.45570313 -652.89453125 306.66015625 C-681.32806441 284.02062607 -714.6406373 268.79872702 -750.125 261.25 C-751.05344727 261.05124268 -751.98189453 260.85248535 -752.93847656 260.64770508 C-768.12876134 257.57886767 -783.16296734 256.58896306 -798.625 256.625 C-799.51229797 256.62554382 -800.39959595 256.62608765 -801.31378174 256.62664795 C-874.66861798 256.83152683 -945.644208 286.14297205 -1007.8515625 323.14355469 C-1013.49115869 326.4688873 -1019.18528505 329.69901567 -1024.875 332.9375 C-1027.24516103 334.28841534 -1029.61485193 335.64015353 -1031.984375 336.9921875 C-1032.8620755 337.49292786 -1032.8620755 337.49292786 -1033.75750732 338.00378418 C-1043.11637655 343.34625069 -1052.44290127 348.74498552 -1061.7734375 354.13671875 C-1065.03524007 356.0203505 -1068.29861844 357.90122321 -1071.5625 359.78125 C-1082.05738916 365.82747312 -1092.54230539 371.88963481 -1103 378 C-1116.73055188 386.02267511 -1130.51077966 393.95858259 -1144.29101562 401.89550781 C-1155.87681766 408.56956312 -1167.45553353 415.25464084 -1179 422 C-1192.73055188 430.02267511 -1206.51077966 437.95858259 -1220.29101562 445.89550781 C-1232.20808887 452.76039344 -1244.11826635 459.63658061 -1256 466.5625 C-1256.9605127 467.12203369 -1257.92102539 467.68156738 -1258.91064453 468.25805664 C-1259.82700684 468.79293701 -1260.74336914 469.32781738 -1261.6875 469.87890625 C-1262.57775879 470.39791504 -1263.46801758 470.91692383 -1264.38525391 471.45166016 C-1266.11227077 472.47432504 -1267.82850873 473.515442 -1269.53271484 474.57568359 C-1275.36434971 478.19401811 -1281.22502051 481.02803245 -1287.625 483.5 C-1289.10021118 484.0724646 -1289.10021118 484.0724646 -1290.60522461 484.65649414 C-1310.99127597 492.31839826 -1331.96603898 496.43396224 -1353.75 496.3125 C-1354.45032349 496.31034485 -1355.15064697 496.3081897 -1355.87219238 496.30596924 C-1366.81681524 496.25207786 -1377.36067598 495.72847181 -1388 493 C-1388.78697266 492.80132324 -1389.57394531 492.60264648 -1390.38476562 492.39794922 C-1420.70536411 484.51057607 -1446.66377773 468.61834899 -1470 448 C-1470.87011719 447.25234375 -1471.74023438 446.5046875 -1472.63671875 445.734375 C-1482.10667588 437.46860394 -1490.21045203 428.20618572 -1497.87475586 418.2824707 C-1500.98277035 414.26296323 -1504.19248061 410.35661929 -1507.5 406.5 C-1511.76911845 401.51607709 -1515.84883908 396.41186334 -1519.875 391.23046875 C-1522.99148491 387.23747246 -1526.20547719 383.34702042 -1529.5 379.5 C-1533.68765667 374.6071239 -1537.70290762 369.60688474 -1541.65527344 364.52270508 C-1546.01874687 358.92939917 -1550.53478455 353.46723979 -1555.05834961 348.00317383 C-1559.13346874 343.07349316 -1563.13640622 338.09820081 -1567 333 C-1564.22262654 330.01114732 -1561.56071009 327.98949092 -1557.984375 326.0390625 C-1556.49744141 325.21921875 -1556.49744141 325.21921875 -1554.98046875 324.3828125 C-1553.91441406 323.80273438 -1552.84835937 323.22265625 -1551.75 322.625 C-1549.47293027 321.3690496 -1547.19691359 320.11118839 -1544.921875 318.8515625 C-1544.34256226 318.53133118 -1543.76324951 318.21109985 -1543.16638184 317.88116455 C-1537.38957881 314.67973033 -1531.691826 311.34941341 -1526 308 C-1516.85144835 302.62706493 -1507.62594446 297.40922126 -1498.35546875 292.25 C-1491.18646305 288.25035548 -1484.07907237 284.15651956 -1477 280 C-1467.85086711 274.62803207 -1458.62596869 269.40923475 -1449.35546875 264.25 C-1442.18646305 260.25035548 -1435.07907237 256.15651956 -1428 252 C-1418.85086711 246.62803207 -1409.62596869 241.40923475 -1400.35546875 236.25 C-1393.18646305 232.25035548 -1386.07907237 228.15651956 -1379 224 C-1369.85086711 218.62803207 -1360.62596869 213.40923475 -1351.35546875 208.25 C-1344.18646305 204.25035548 -1337.07907237 200.15651956 -1330 196 C-1320.85086711 190.62803207 -1311.62596869 185.40923475 -1302.35546875 180.25 C-1295.18646305 176.25035548 -1288.07907237 172.15651956 -1281 168 C-1271.85086711 162.62803207 -1262.62596869 157.40923475 -1253.35546875 152.25 C-1246.18646305 148.25035548 -1239.07907237 144.15651956 -1232 140 C-1222.85086711 134.62803207 -1213.62596869 129.40923475 -1204.35546875 124.25 C-1197.18646305 120.25035548 -1190.07907237 116.15651956 -1183 112 C-1173.85086711 106.62803207 -1164.62596869 101.40923475 -1155.35546875 96.25 C-1148.18645965 92.25035358 -1141.07915097 88.15639003 -1134 84 C-1123.63245125 77.91495965 -1113.17564142 72.0042281 -1102.6640625 66.171875 C-1099.39746799 64.35578996 -1096.15624955 62.51677944 -1092.9609375 60.578125 C-1032.01468172 23.87223107 -947.40002939 6.45849464 -878.1159668 22.82446289 C-847.28582975 30.61103802 -819.58801177 44.93400821 -795 65 C-794.45843262 65.43860352 -793.91686523 65.87720703 -793.35888672 66.32910156 C-780.16763164 77.08664505 -767.53001798 88.98837912 -757.02734375 102.4140625 C-754.80689169 105.24631542 -752.47033554 107.95798313 -750.125 110.6875 C-744.21959703 117.77033262 -739.09094128 125.31924821 -734 133 C-733.349104 133.97549805 -733.349104 133.97549805 -732.68505859 134.97070312 C-725.93726173 145.11143132 -719.63383803 155.49779294 -713.47753906 166.00756836 C-694.09120826 198.79358391 -664.67564052 221.01346181 -627.78125 230.81640625 C-626.18863925 231.21551146 -624.59493407 231.61028307 -623 232 C-622.31035156 232.17644043 -621.62070313 232.35288086 -620.91015625 232.53466797 C-591.70913583 239.71396368 -560.14061951 234.89289679 -532 226 C-530.88753906 225.66742188 -529.77507812 225.33484375 -528.62890625 224.9921875 C-518.87308008 221.70137761 -510.25387909 216.05992679 -501.453125 210.81640625 C-495.19857262 207.09413407 -488.86386851 203.53121955 -482.5 200 C-474.2773868 195.42542059 -466.11415926 190.764277 -458 186 C-448.85086711 180.62803207 -439.62596869 175.40923475 -430.35546875 170.25 C-423.18646305 166.25035548 -416.07907237 162.15651956 -409 158 C-400.88580901 153.23570437 -392.72190812 148.57588149 -384.5 144 C-375.34276685 138.90169076 -366.2630683 133.68691945 -357.22167969 128.38623047 C-349.59201024 123.91721168 -341.93015345 119.50651115 -334.25 115.125 C-333.66634674 114.79196869 -333.08269348 114.45893738 -332.48135376 114.11581421 C-329.51240496 112.42200953 -326.54297977 110.72904238 -323.57324219 109.03662109 C-317.67198311 105.67347949 -311.7730765 102.30621933 -305.875 98.9375 C-305.29463989 98.60606995 -304.71427979 98.27463989 -304.11633301 97.9331665 C-294.65800527 92.5307091 -285.21971616 87.09404459 -275.78857422 81.64428711 C-267.28798329 76.73525053 -258.76778967 71.8611168 -250.24157715 66.99679565 C-242.6833511 62.68425206 -235.13565307 58.35427585 -227.60180664 53.99926758 C-224.32389022 52.10519583 -221.04297545 50.21640249 -217.76171875 48.328125 C-214.41728225 46.40219647 -211.08366184 44.46193928 -207.76953125 42.484375 C-169.12223803 19.65553206 -124.02199773 6.34562124 -80 -1 C-78.71416016 -1.22042969 -78.71416016 -1.22042969 -77.40234375 -1.4453125 C-52.69217777 -5.48488746 -24.49308358 -4.80394387 0 0 Z " fill="#FCBB0D" transform="translate(3138,29)"/>
<path d="M0 0 C0.73790771 0.6798999 0.73790771 0.6798999 1.49072266 1.37353516 C2.90804687 2.66710937 2.90804687 2.66710937 4.35400391 3.98681641 C18.36106706 17.35989651 29.35594046 34.3814757 36.49072266 52.37353516 C36.49072266 53.03353516 36.49072266 53.69353516 36.49072266 54.37353516 C37.15072266 54.37353516 37.81072266 54.37353516 38.49072266 54.37353516 C38.73693359 53.66455078 38.98314453 52.95556641 39.23681641 52.22509766 C46.41568649 35.89931833 63.59342477 18.38219666 77.49072266 7.37353516 C78.0222998 6.95136719 78.55387695 6.52919922 79.1015625 6.09423828 C119.9755742 -26.11019785 167.07750271 -41.42768972 219.26977539 -35.68115234 C258.43592868 -30.69276189 294.42433079 -11.72731201 319.16650391 19.27197266 C340.81351261 48.15890529 352.36274922 80.73571142 358.74072266 116.06103516 C358.8919458 116.88933838 359.04316895 117.7176416 359.19897461 118.57104492 C362.5127479 138.22353556 362.77905774 157.90630484 362.7228539 177.78012693 C362.71409044 181.67958917 362.71714852 185.57904629 362.71865845 189.47851562 C362.71969928 196.20948203 362.71350748 202.9404092 362.70218277 209.67136574 C362.68582062 219.4027916 362.6807089 229.13419879 362.67820679 238.86563691 C362.67384635 254.66019118 362.66058242 270.4547246 362.64160156 286.24926758 C362.62319977 301.57804257 362.6090644 316.90681187 362.60058594 332.2355957 C362.59979777 333.6565973 362.59979777 333.6565973 362.59899367 335.10630599 C362.5963833 339.85954137 362.59385596 344.61277678 362.59136987 349.36601222 C362.57068886 388.70187172 362.53384715 428.0376926 362.49072266 467.37353516 C322.23072266 467.37353516 281.97072266 467.37353516 240.49072266 467.37353516 C240.46884888 454.15742187 240.46884888 454.15742187 240.4465332 440.67431641 C240.39765362 412.40128864 240.3342111 384.12831006 240.26173637 355.85533333 C240.2504698 351.45498812 240.23933109 347.0546426 240.22827148 342.65429688 C240.22496596 341.34039301 240.22496596 341.34039301 240.22159366 339.99994564 C240.1863349 325.86417522 240.16140655 311.72840484 240.14037564 297.5926069 C240.11852214 283.06049667 240.08538231 268.52844291 240.0420211 253.99638081 C240.01566778 245.04770118 239.9978527 236.09909175 239.99137662 227.15037531 C239.98607227 220.99269839 239.96968928 214.8351094 239.945057 208.6774798 C239.93121224 205.13834823 239.9218058 201.59937336 239.92571449 198.06021309 C239.94217955 160.18496517 236.49306487 115.32119463 208.10009766 86.85400391 C195.11684331 74.51213788 177.441619 67.13605111 159.49072266 66.37353516 C158.62833984 66.32197266 157.76595703 66.27041016 156.87744141 66.21728516 C134.86600974 65.50243487 112.79447484 73.32345805 96.61572266 88.31103516 C94.53894761 90.29853637 92.50589943 92.32377216 90.49072266 94.37353516 C89.72888672 95.13666016 88.96705078 95.89978516 88.18212891 96.68603516 C69.0919223 116.929841 62.16718587 144.54560517 62.21224976 171.66767883 C62.20356115 173.57706664 62.20356115 173.57706664 62.19469702 175.52502793 C62.1790574 179.0187593 62.17547531 182.51240992 62.17404842 186.00617206 C62.170326 189.78855114 62.15515669 193.57088735 62.14143372 197.35324097 C62.11924565 203.89334467 62.10418176 210.43343296 62.09406662 216.97356606 C62.07943168 226.42929535 62.05388159 235.88497087 62.02573533 245.34066846 C61.98035448 260.68486169 61.94370383 276.0290627 61.91259766 291.37329102 C61.88237635 306.2717424 61.84800971 321.17017479 61.80810547 336.06860352 C61.80564392 336.98816974 61.80318237 337.90773597 61.80064623 338.85516784 C61.78827093 343.4687278 61.77581453 348.08228753 61.76331782 352.69584715 C61.65988049 390.92172065 61.57225257 429.14760742 61.49072266 467.37353516 C20.90072266 467.37353516 -19.68927734 467.37353516 -61.50927734 467.37353516 C-61.53115112 453.62616699 -61.53115112 453.62616699 -61.5534668 439.60107422 C-61.60231091 410.2163729 -61.66574388 380.83171908 -61.73826363 351.44706704 C-61.74953066 346.87633272 -61.76066929 342.3055981 -61.77172852 337.73486328 C-61.77503404 336.37004041 -61.77503404 336.37004041 -61.77840634 334.97764537 C-61.81369807 320.27981782 -61.83860795 305.58199033 -61.85962436 290.88413623 C-61.88145135 275.78252024 -61.9145667 260.68095883 -61.9579789 245.57938933 C-61.98437729 236.27446864 -62.00215942 226.96961584 -62.00862338 217.66465959 C-62.01391367 211.26826495 -62.03025121 204.87195546 -62.054943 198.47560659 C-62.06883458 194.79520324 -62.07817583 191.11495187 -62.07428551 187.43452072 C-62.0478646 155.83707341 -64.47305988 119.93994018 -85.50927734 94.37353516 C-86.18603516 93.53564453 -86.86279297 92.69775391 -87.56005859 91.83447266 C-100.20186969 76.96967879 -117.73302005 68.13600675 -137.19677734 66.50244141 C-137.95990234 66.45990234 -138.72302734 66.41736328 -139.50927734 66.37353516 C-140.37552734 66.32068359 -141.24177734 66.26783203 -142.13427734 66.21337891 C-165.30695412 65.48923276 -186.564558 74.20524291 -203.69677734 89.56103516 C-223.94475303 108.58712146 -238.00980375 136.58324315 -239.69730306 164.48210096 C-239.77500972 167.80067645 -239.79330743 171.11405351 -239.78775024 174.43353271 C-239.79354265 175.69335284 -239.79933505 176.95317296 -239.80530298 178.25116944 C-239.82096028 181.71295557 -239.82452569 185.17466023 -239.82595158 188.63647747 C-239.82967084 192.3827459 -239.84483865 196.12897092 -239.85856628 199.87521362 C-239.88076413 206.35422045 -239.89582219 212.83321169 -239.90593338 219.31224823 C-239.92056265 228.67966656 -239.94611121 238.04703053 -239.97426467 247.41441682 C-240.01965574 262.61496786 -240.0563022 277.81552677 -240.08740234 293.01611328 C-240.11761944 307.77589293 -240.15198417 322.53565339 -240.19189453 337.29541016 C-240.19435608 338.20627812 -240.19681763 339.11714609 -240.19935377 340.05561611 C-240.21172898 344.62549449 -240.2241854 349.19537264 -240.23668218 353.76525068 C-240.34013483 391.63465611 -240.4277564 429.50407492 -240.50927734 467.37353516 C-280.76927734 467.37353516 -321.02927734 467.37353516 -362.50927734 467.37353516 C-362.5343335 456.51487549 -362.55938965 445.65621582 -362.58520508 434.46850586 C-362.6665786 399.46674873 -362.75219894 364.46500309 -362.84039428 329.46326252 C-362.85415893 323.99902731 -362.86788677 318.534792 -362.8815918 313.07055664 C-362.88568425 311.43925277 -362.88568425 311.43925277 -362.88985939 309.77499326 C-362.93357526 292.31455404 -362.9743293 274.85410915 -363.01392996 257.39366017 C-363.05482822 239.39112958 -363.09904545 221.3886092 -363.14615589 203.3860938 C-363.17243136 193.31085434 -363.197301 183.23561599 -363.21835136 173.16036415 C-363.29506241 136.79340382 -363.37485496 100.42859295 -363.96264648 64.06567383 C-363.98148923 62.86103694 -364.00033197 61.65640004 -364.01974571 60.415259 C-364.35143858 39.85326546 -365.074944 19.3075522 -366.2293281 -1.22535819 C-366.64220489 -9.38004181 -366.50927734 -17.42119267 -366.50927734 -25.62646484 C-330.86927734 -25.62646484 -295.22927734 -25.62646484 -258.50927734 -25.62646484 C-256.85927734 -1.53646484 -255.20927734 22.55353516 -253.50927734 47.37353516 C-250.19190789 44.05616571 -247.628381 40.82302174 -245.00927734 36.99853516 C-217.63105308 -2.06903636 -179.24616051 -25.47767054 -132.73974609 -34.34521484 C-85.70961077 -42.07931207 -35.85110994 -32.73660917 0 0 Z " fill="#0D3B70" transform="translate(426.50927734375,687.62646484375)"/>
<path d="M0 0 C41.25 0 82.5 0 125 0 C125.01981934 17.79574951 125.03963867 35.59149902 125.06005859 53.92651367 C125.07358904 65.82097902 125.08715232 77.71544427 125.10116577 89.60990906 C125.10205564 90.36602132 125.1029455 91.12213358 125.10386233 91.90115834 C125.13392741 117.41793966 125.16664488 142.93471686 125.20132446 168.45149231 C125.2030249 169.70339466 125.2030249 169.70339466 125.20475969 170.98058797 C125.22942648 189.13039676 125.25452005 207.28020494 125.28005161 225.43001254 C125.29257454 234.33411957 125.30500342 243.23822674 125.31738281 252.14233398 C125.3192328 253.47124343 125.3192328 253.47124343 125.32112016 254.82699952 C125.36085954 283.40470012 125.39442128 311.98240381 125.42468691 340.56011588 C125.45589175 369.99321281 125.49351345 399.42629502 125.53890612 428.85937364 C125.545354 433.04213169 125.55173053 437.22488986 125.55806351 441.40764809 C125.55931181 442.23065927 125.56056012 443.05367045 125.56184625 443.90162137 C125.58154306 457.00765722 125.59472076 470.11369142 125.60529328 483.21973746 C125.61613689 496.48182306 125.63424505 509.74388442 125.65916704 523.00595113 C125.67241762 530.15662908 125.68287566 537.30727866 125.68421364 544.45796967 C125.69359882 582.69160358 126.5901595 620.79657328 128 659 C128.33 669.23 128.66 679.46 129 690 C92.04 690 55.08 690 17 690 C14.7078714 663.64052116 14.7078714 663.64052116 14.18359375 654.97265625 C14.12220718 654.00315536 14.06082062 653.03365448 13.99757385 652.03477478 C13.80832341 649.04417011 13.62245962 646.05337286 13.4375 643.0625 C13.18905162 639.05320016 12.93723107 635.04413075 12.68359375 631.03515625 C12.62940781 630.14240494 12.57522186 629.24965363 12.51939392 628.32984924 C12.19391681 623.18537596 11.69258107 618.10838627 11 613 C10.47792969 613.92039062 9.95585937 614.84078125 9.41796875 615.7890625 C-13.27231635 655.11958903 -50.09677977 682.01187742 -93.65063477 694.31591797 C-112.06888306 699.18891601 -130.29639382 701.23556866 -149.3125 701.25 C-150.11268555 701.25067474 -150.91287109 701.25134949 -151.73730469 701.25204468 C-164.38073746 701.23514085 -176.59574621 700.63434821 -189 698 C-190.21816406 697.75056641 -190.21816406 697.75056641 -191.4609375 697.49609375 C-243.94874696 686.45893756 -288.13249819 653.54285525 -317.44555664 609.21972656 C-346.66923618 563.96102208 -359.99898246 510.57169723 -361 457 C-361.02046387 456.30390625 -361.04092773 455.6078125 -361.06201172 454.890625 C-363.17364325 381.73393586 -342.69485449 306.11327807 -291.98291016 251.84130859 C-277.31788207 236.3839362 -261.43373799 223.6705137 -243 213 C-242.33564941 212.61360352 -241.67129883 212.22720703 -240.98681641 211.82910156 C-213.76472206 196.20439213 -181.43002409 186.83959414 -150 186 C-149.26313965 185.97953613 -148.5262793 185.95907227 -147.76708984 185.93798828 C-112.95778578 185.10674183 -77.59912534 190.56828687 -47 208 C-46.41686035 208.33 -45.8337207 208.66 -45.23291016 209 C-37.60642863 213.37140615 -30.68895911 218.31157427 -24 224 C-23.26394531 224.59039063 -22.52789063 225.18078125 -21.76953125 225.7890625 C-16.93340052 229.81203851 -12.9571529 234.27499172 -9.0625 239.1875 C-8.58949463 239.78191895 -8.11648926 240.37633789 -7.62915039 240.98876953 C-5.16118592 244.1870363 -3.26734696 247.15450721 -2 251 C-1.34 251 -0.68 251 0 251 C0 168.17 0 85.34 0 0 Z M-181 308 C-181.78375 308.65226562 -182.5675 309.30453125 -183.375 309.9765625 C-194.4479368 319.49236756 -202.96713446 330.44963113 -210.00195312 343.19287109 C-210.91387348 344.84405369 -211.85396935 346.47959473 -212.796875 348.11328125 C-222.35112006 365.70974634 -228.17659568 386.22566735 -231 406 C-231.17442627 407.18924072 -231.34885254 408.37848145 -231.52856445 409.60375977 C-233.13435773 421.29810066 -233.35847442 432.89676071 -233.3125 444.6875 C-233.31067719 445.65833527 -233.30885437 446.62917053 -233.30697632 447.62942505 C-233.26273002 461.62091051 -232.89636813 475.26505743 -230 489 C-229.83371094 489.84852539 -229.66742187 490.69705078 -229.49609375 491.57128906 C-222.47237563 526.93701046 -205.54398155 561.40221105 -175 582 C-150.06824158 598.42835125 -119.13578089 604.17779473 -89.75 598.8125 C-87.48804491 598.25475765 -85.23686768 597.65110702 -83 597 C-81.77796875 596.6596875 -80.5559375 596.319375 -79.296875 595.96875 C-51.39584311 587.47213947 -28.56081743 567.92181013 -14.84008789 542.30786133 C-2.44030154 518.23006283 0.15816263 493.46740223 0.16796875 466.77734375 C0.17118941 464.706263 0.17455407 462.63518247 0.17805481 460.56410217 C0.18402066 456.23291498 0.18589742 451.90174765 0.18530273 447.57055664 C0.18520145 442.06958975 0.19883001 436.56875292 0.21607494 431.06781673 C0.22729471 426.79079118 0.22921888 422.51379603 0.22869301 418.23675728 C0.22985907 416.21134558 0.23420176 414.18593273 0.24202538 412.16053581 C0.37740476 373.48385544 -7.96938462 340.9226396 -35.25 312.375 C-55.47019784 292.65960599 -81.83295983 283.47583604 -109.6875 282.6875 C-135.87324193 283.19393642 -160.99682262 290.64875901 -181 308 Z " fill="#0D3B70" transform="translate(2206,465)"/>
<path d="M0 0 C0.96679688 0.66902344 1.93359375 1.33804688 2.9296875 2.02734375 C18.95956874 13.71996286 32.48237108 28.20182026 43 45 C43.37801758 45.60263672 43.75603516 46.20527344 44.14550781 46.82617188 C46.59634565 50.79799038 48.84831561 54.86059046 51 59 C51.32419922 59.61713867 51.64839844 60.23427734 51.98242188 60.87011719 C74.8800086 105.08075977 77.38157332 155.29668205 77.23213124 204.0769968 C77.22325838 207.73563577 77.22643318 211.39427075 77.22793579 215.05291748 C77.22897005 221.34934222 77.22284945 227.64572459 77.21146011 233.94213867 C77.19500529 243.04499593 77.18997703 252.1478333 77.18748413 261.25070381 C77.18313781 276.02977761 77.16991324 290.80882897 77.15087891 305.58789062 C77.13243984 319.91992076 77.11832297 334.25194473 77.10986328 348.58398438 C77.10933783 349.4716759 77.10881239 350.35936742 77.10827102 351.27395868 C77.1056604 355.72851972 77.10313311 360.1830808 77.10064721 364.63764191 C77.08001042 401.42511455 77.04319336 438.21254557 77 475 C35.42 475 -6.16 475 -49 475 C-49.01458252 466.0576123 -49.02916504 457.11522461 -49.04418945 447.90185547 C-49.09305177 419.21818347 -49.15648966 390.53456004 -49.22898628 361.85093843 C-49.24025308 357.38793059 -49.25139175 352.92492243 -49.26245117 348.46191406 C-49.2657567 347.12927958 -49.2657567 347.12927958 -49.269129 345.76972319 C-49.3044038 331.42567267 -49.32932317 317.0816222 -49.35034702 302.73754452 C-49.37218761 287.99526207 -49.40531555 273.2530354 -49.44870156 258.51080048 C-49.4750768 249.43006447 -49.49287586 240.34939782 -49.49934604 231.26862545 C-49.50464353 225.02312664 -49.52100446 218.77771477 -49.54566566 212.53226273 C-49.55953317 208.94072247 -49.56890789 205.34933727 -49.56500816 201.75776863 C-49.53188349 163.1648797 -54.22531918 124.17139609 -82 95 C-96.41362898 81.98319742 -115.63214021 74.82709722 -135 74 C-136.36511719 73.92265625 -136.36511719 73.92265625 -137.7578125 73.84375 C-165.32047148 73.01479785 -189.22950589 83.34136171 -209.6953125 101.375 C-221.01144539 112.15902632 -228.54578901 124.90233352 -235 139 C-235.42152344 139.88171875 -235.84304688 140.7634375 -236.27734375 141.671875 C-243.47153293 157.85201369 -242.45067771 175.76691404 -242.43273985 193.06537676 C-242.43210983 196.85793916 -242.44879318 200.65043322 -242.46325684 204.44296265 C-242.48593381 210.99611943 -242.49790898 217.54922345 -242.50238609 224.10241699 C-242.50887487 233.57694337 -242.53185983 243.0513748 -242.55872939 252.52586269 C-242.6018934 267.90166849 -242.63191929 283.27747026 -242.65356445 298.65332031 C-242.67460539 313.57977269 -242.70190754 328.50619222 -242.73754883 343.43261719 C-242.73974765 344.35438224 -242.74194648 345.27614729 -242.74421193 346.22584462 C-242.75528236 350.85057681 -242.76647503 355.47530869 -242.77772844 360.10004044 C-242.87076635 398.40000707 -242.93999042 436.69996458 -243 475 C-284.91 475 -326.82 475 -370 475 C-370.01981934 462.51897461 -370.03963867 450.03794922 -370.06005859 437.17871094 C-370.12515363 397.03801102 -370.19970352 356.8973335 -370.28005161 316.75666134 C-370.29256736 310.49972098 -370.30500062 304.24278047 -370.31738281 297.98583984 C-370.31984881 296.74043117 -370.3223148 295.49502249 -370.32485552 294.21187416 C-370.36435353 274.16521273 -370.39720123 254.11854583 -370.42749982 234.07186863 C-370.45884485 213.43305485 -370.49754832 192.79426388 -370.54279006 172.15547585 C-370.56793441 160.59213476 -370.58986424 149.02880755 -370.60334396 137.46544647 C-370.64328902 69.70771069 -370.64328902 69.70771069 -373 2 C-373.33 -4.6 -373.66 -11.2 -374 -18 C-337.7 -18 -301.4 -18 -264 -18 C-262.98261935 -14.94785804 -262.69225026 -12.41882483 -262.42749023 -9.21850586 C-262.32746201 -8.0297435 -262.22743378 -6.84098114 -262.12437439 -5.61619568 C-262.02016678 -4.32874954 -261.91595917 -3.04130341 -261.80859375 -1.71484375 C-261.69813111 -0.37543539 -261.58745582 0.96395544 -261.47657776 2.30332947 C-261.24470218 5.11502911 -261.01557298 7.92693595 -260.78833008 10.73901367 C-260.49889343 14.31776041 -260.20249703 17.89588913 -259.90394497 21.47388554 C-259.67364354 24.24399662 -259.44725472 27.01441742 -259.22197151 29.78494072 C-259.06244538 31.73800122 -258.89960316 33.69078997 -258.73667908 35.64356995 C-258.19232468 42.44730672 -257.84948706 49.17421656 -258 56 C-257.01 56 -256.02 56 -255 56 C-254.75121094 55.30003906 -254.50242187 54.60007812 -254.24609375 53.87890625 C-248.6997277 41.06488813 -237.69266094 30.69266094 -228 21 C-227.15308594 20.08347656 -227.15308594 20.08347656 -226.2890625 19.1484375 C-171.39709332 -39.35145454 -64.04092753 -44.71662432 0 0 Z " fill="#0D3B70" transform="translate(1716,680)"/>
<path d="M0 0 C1.47306145 1.41203495 2.94049012 2.82993962 4.4074707 4.24829102 C5.40520508 5.16868164 5.40520508 5.16868164 6.4230957 6.10766602 C15.80642981 14.96483185 23.01932199 26.13678385 29.4074707 37.24829102 C29.7398877 37.82272949 30.07230469 38.39716797 30.41479492 38.98901367 C48.41930531 70.38701814 55.46034585 107.06232639 56.96011353 142.91694641 C57.002204 143.9126384 57.04429448 144.90833039 57.08766043 145.93419486 C57.51457271 156.80597538 57.55993087 167.6710773 57.56518555 178.54980469 C57.56987172 180.77734473 57.57501812 183.00488385 57.58058167 185.23242188 C57.5917432 189.98356724 57.60023424 194.73470679 57.6067009 199.48586082 C57.61754451 207.04832036 57.63783278 214.61073768 57.65982056 222.173172 C57.69022685 232.82035921 57.71945841 243.46754704 57.74536133 254.11474609 C57.74699951 254.78701114 57.74863769 255.45927619 57.75032552 256.15191291 C57.77647682 266.98771642 57.79520275 277.82352323 57.81195323 288.65934476 C57.82959249 299.89264397 57.85884091 311.12588608 57.8968426 322.3591364 C57.91757955 328.62228186 57.93332106 334.88533797 57.93564987 341.14851952 C57.94712228 364.85587192 58.12565923 388.49213471 59.74975586 412.15185547 C59.8369256 413.44056189 59.8369256 413.44056189 59.92585635 414.75530279 C60.89543903 428.67589807 62.67356246 442.37702505 64.4074707 456.24829102 C26.7874707 456.24829102 -10.8325293 456.24829102 -49.5925293 456.24829102 C-56.5925293 409.24829102 -56.5925293 409.24829102 -56.5925293 402.24829102 C-60.46048622 404.3414586 -63.04658721 406.60703852 -65.9050293 409.93579102 C-66.69522461 410.83040039 -67.48541992 411.72500977 -68.29956055 412.64672852 C-69.05624023 413.50524414 -69.81291992 414.36375977 -70.5925293 415.24829102 C-93.4948221 440.94354636 -128.18626652 456.35942077 -161.2800293 463.49829102 C-161.97862061 463.64943359 -162.67721191 463.80057617 -163.39697266 463.95629883 C-176.99762693 466.6996522 -190.44576373 467.62958618 -204.2800293 467.56079102 C-205.06556183 467.55863586 -205.85109436 467.55648071 -206.66043091 467.55426025 C-243.89616418 467.39091043 -281.27260181 457.48608129 -309.5925293 432.24829102 C-310.43041992 431.5302832 -311.26831055 430.81227539 -312.1315918 430.07250977 C-339.19289645 406.48812196 -355.14380914 373.69804178 -359.5925293 338.24829102 C-359.70521303 335.46397847 -359.77897828 332.7044309 -359.7956543 329.92016602 C-359.80271393 329.13780075 -359.80977356 328.35543549 -359.81704712 327.54936218 C-360.04394895 295.01675757 -360.04394895 295.01675757 -356.5925293 281.24829102 C-356.29451416 280.00885742 -356.29451416 280.00885742 -355.99047852 278.74438477 C-345.77222074 237.16717412 -320.28788631 203.19209652 -283.90405273 180.62939453 C-281.42840386 179.13516821 -278.9261732 177.69347457 -276.4074707 176.27319336 C-274.66183338 175.28742722 -272.92957833 174.27807681 -271.19799805 173.26782227 C-224.89262556 147.23079464 -169.8580906 139.10193976 -117.5925293 135.24829102 C-116.14813477 135.14025146 -116.14813477 135.14025146 -114.67456055 135.0300293 C-99.33797817 133.93663074 -83.95819482 134.14429599 -68.5925293 134.24829102 C-68.93625915 116.82118727 -70.06431922 99.83347025 -78.5925293 84.24829102 C-79.03338867 83.41168945 -79.47424805 82.57508789 -79.9284668 81.71313477 C-90.03122016 63.65655624 -107.22548641 52.55621727 -126.79174805 46.99829102 C-181.93683098 32.57798564 -246.25458943 47.79003742 -294.79101562 75.37548828 C-296.70428299 76.30243378 -298.52911643 76.76130136 -300.5925293 77.24829102 C-303.70739862 69.41814742 -306.05780753 61.35874696 -308.47924805 53.29516602 C-308.94570613 51.74674122 -309.41224494 50.19834074 -309.87886047 48.64996338 C-310.85153046 45.41965049 -311.82195348 42.18867232 -312.79101562 38.95727539 C-314.03290957 34.81742469 -315.28239472 30.67990738 -316.53378582 26.54291916 C-317.49749851 23.35276101 -318.45621475 20.16111759 -319.41352272 16.96903229 C-319.87225546 15.44228181 -320.33277167 13.91606602 -320.7951107 12.39040375 C-321.43944306 10.2622061 -322.07677849 8.13203285 -322.71240234 6.0012207 C-323.07641647 4.79069031 -323.4404306 3.58015991 -323.81547546 2.33294678 C-324.5925293 -0.75170898 -324.5925293 -0.75170898 -324.5925293 -4.75170898 C-307.99907348 -13.78811259 -291.57099819 -21.77303434 -273.5925293 -27.75170898 C-272.64990234 -28.06688477 -271.70727539 -28.38206055 -270.73608398 -28.70678711 C-241.21446794 -38.43561689 -210.5749567 -44.38037408 -179.5925293 -46.75170898 C-178.84438965 -46.80955566 -178.09625 -46.86740234 -177.32543945 -46.92700195 C-116.02835629 -51.42061018 -46.67011738 -44.10907834 0 0 Z M-173.5925293 229.24829102 C-174.28781738 229.50336426 -174.98310547 229.7584375 -175.69946289 230.02124023 C-198.512687 238.54626233 -218.39598827 252.02614852 -229.5925293 274.24829102 C-237.8757413 293.13711091 -238.86390686 316.87831885 -231.5925293 336.24829102 C-225.05068899 352.10808402 -216.14292844 363.25950452 -200.4050293 370.99829102 C-176.0921794 381.02946685 -149.15223994 379.64633986 -124.9050293 370.12329102 C-101.09199385 360.08534942 -81.63767004 340.9233872 -71.38549805 317.22973633 C-67.51548959 307.55948121 -65.42683239 297.72164957 -65.47900391 287.31518555 C-65.47878487 286.1580732 -65.47878487 286.1580732 -65.4785614 284.97758484 C-65.47925422 282.4453951 -65.48701689 279.91328029 -65.49487305 277.38110352 C-65.49673947 275.61847982 -65.49816231 273.8558556 -65.49916077 272.0932312 C-65.50296827 267.46710768 -65.5127834 262.84101584 -65.52386475 258.21490479 C-65.53411692 253.48905872 -65.53866653 248.76320751 -65.54370117 244.03735352 C-65.55440732 234.77431881 -65.57146244 225.51130755 -65.5925293 216.24829102 C-70.57350168 216.21846006 -75.55441964 216.19716415 -80.53546143 216.18305969 C-82.222401 216.17716655 -83.90933474 216.16912446 -85.59625244 216.15870667 C-115.22593788 215.98059328 -145.61746318 218.92967754 -173.5925293 229.24829102 Z " fill="#0D3B70" transform="translate(1204.592529296875,698.751708984375)"/>
<path d="M0 0 C35.97 0 71.94 0 109 0 C111.33271375 44.32156134 111.33271375 44.32156134 112.00537109 60.45288086 C112.12954706 63.42119325 112.25803404 66.38930182 112.38671875 69.35742188 C112.46899626 71.29686457 112.55103782 73.23631729 112.6328125 75.17578125 C112.67028595 76.03818924 112.7077594 76.90059723 112.74636841 77.78913879 C112.96853218 83.19764422 113.03196799 88.58686748 113 94 C113.99 93.67 114.98 93.34 116 93 C117.16519096 90.48548167 118.16501474 88.029432 119.125 85.4375 C124.72240381 71.1840841 132.20090521 58.74372135 142 47 C142.77988281 46.05511719 143.55976563 45.11023438 144.36328125 44.13671875 C166.13793544 18.94084229 198.41508934 5.03681157 231 1 C247.29521779 -0.16394413 263.66326566 0 280 0 C280 36.63 280 73.26 280 111 C273.73 110.01 267.46 109.02 261 108 C228.87709142 105.21601459 196.8943913 110.80431995 171.453125 131.85546875 C144.0754051 155.60896791 133.29207304 189.93792246 130.20619977 225.04146254 C129.87295965 229.82276467 129.84647243 234.59192201 129.84178162 239.38322449 C129.83684364 240.47476454 129.83190566 241.56630458 129.82681805 242.6909216 C129.81155888 246.31893004 129.80311408 249.94692095 129.79467773 253.57495117 C129.78509009 256.18737947 129.7750795 258.79980625 129.76467896 261.41223145 C129.74301135 267.02146369 129.72483181 272.63069834 129.70907402 278.23995018 C129.68628624 286.34981866 129.65815619 294.45966183 129.62875474 302.56950871 C129.58118747 315.72967752 129.53789414 328.88985675 129.49731445 342.05004883 C129.45790404 354.82805185 129.41645369 367.60604561 129.37231445 380.3840332 C129.36956495 381.18072353 129.36681544 381.97741386 129.36398262 382.79824632 C129.34246135 389.02960825 129.3208224 395.26096976 129.29914629 401.49233115 C129.19307176 431.99486869 129.09725397 462.4974306 129 493 C87.75 493 46.5 493 4 493 C3.97494385 481.36081299 3.9498877 469.72162598 3.92407227 457.72973633 C3.84288867 420.31397829 3.75725391 382.8982316 3.66888306 345.48248987 C3.65511661 339.65214502 3.64138904 333.82180008 3.62768555 327.99145508 C3.62495724 326.83093806 3.62222894 325.67042104 3.61941796 324.47473683 C3.57557079 305.78454823 3.53485997 287.09435409 3.49534739 268.40415589 C3.45460875 249.16772913 3.4104089 229.93131247 3.36312145 210.69490069 C3.33414426 198.86421417 3.30773659 187.03352804 3.28482103 175.20282819 C3.2687584 167.04487809 3.24927697 158.8869402 3.22733159 150.72900382 C3.21484182 146.05113948 3.20364175 141.37328382 3.19658089 136.69540787 C3.16536922 116.72389337 2.96935998 96.76429847 2.52061462 76.79740906 C2.49933546 75.84862854 2.47805629 74.89984803 2.4561323 73.92231659 C2.13215662 59.72991229 1.65809593 45.55335526 0.9375 31.375 C0.79940298 28.58079629 0.66310739 25.78652656 0.52967834 22.99209595 C0.44914732 21.31224485 0.36601727 19.63251457 0.27928162 17.95297241 C-0.01368214 11.945833 0 6.03669655 0 0 Z " fill="#0D3B70" transform="translate(2627,662)"/>
<path d="M0 0 C41.58 0 83.16 0 126 0 C126 162.69 126 325.38 126 493 C84.42 493 42.84 493 0 493 C0 330.31 0 167.62 0 0 Z " fill="#0D3B70" transform="translate(2964,662)"/>
<path d="M0 0 C41.58 0 83.16 0 126 0 C126 162.69 126 325.38 126 493 C84.42 493 42.84 493 0 493 C0 330.31 0 167.62 0 0 Z " fill="#0D3B70" transform="translate(2418,662)"/>
</svg>
